<?xml version="1.0" encoding="UTF-8"?>
<svg id="Lager_4" data-name="Lager 4" xmlns="http://www.w3.org/2000/svg" width="841.43" height="841.43" xmlns:xlink="http://www.w3.org/1999/xlink" viewBox="0 0 841.43 841.43">
  <defs>
    <style>
      .cls-1 {
        fill: #01513c;
      }

      .cls-1, .cls-2, .cls-3 {
        stroke-width: 0px;
      }

      .cls-2 {
        fill: #fff;
      }

      .cls-3 {
        fill: url(#Namnlös_övertoning_84);
      }
    </style>
    <radialGradient id="Namnlös_övertoning_84" data-name="Namnlös övertoning 84" cx="420.72" cy="420.72" fx="420.72" fy="-358.95" r="779.67" gradientTransform="translate(388.24 -141.79) rotate(45) scale(1 .89)" gradientUnits="userSpaceOnUse">
      <stop offset=".44" stop-color="#fff"/>
      <stop offset=".5" stop-color="#fbfcfc"/>
      <stop offset=".55" stop-color="#f0f4f3"/>
      <stop offset=".59" stop-color="#dde8e5"/>
      <stop offset=".64" stop-color="#c3d6d1"/>
      <stop offset=".68" stop-color="#a1bfb7"/>
      <stop offset=".73" stop-color="#78a398"/>
      <stop offset=".77" stop-color="#478172"/>
      <stop offset=".82" stop-color="#105b48"/>
      <stop offset=".83" stop-color="#00513c"/>
    </radialGradient>
  </defs>
  <circle class="cls-3" cx="420.72" cy="420.72" r="420.72" transform="translate(-174.27 420.72) rotate(-45)"/>
  <path class="cls-1" d="M18.54,484.4c-2.62-5.31-5.57-9.46-8.59-10.8-.61-.28-1.22-.41-1.81-.41-1.09,0-2.11.47-2.92,1.34-.25.27-.47.58-.67.91-.39-9.09.58-15.24,2.11-17.02,3.54.83,8.34,10.94,11.88,25.98Z"/>
  <path class="cls-1" d="M129.87,430.98c-7.76-15.08-20.92-24.45-35.04-24.45-12.46.16-23.28,8.13-29.12,20.61,1.42-23.14,13.91-41.7,29.41-42.53l1.12-.03c17.25,0,31.82,20.47,33.61,46.4Z"/>
  <path class="cls-1" d="M120.29,339.88c3.7-25.29,22.19-47.07,42.95-49.68,1.45-.17,2.89-.27,4.31-.27,9.13,0,17.39,3.62,23.9,10.46,8.12,8.52,12.58,21.39,12.4,35.54-7.65-14.49-22.25-23.54-38.75-23.54-1.53,0-3.08.08-4.64.23-16.5,1.64-31.52,12.04-40.17,27.26Z"/>
  <path class="cls-1" d="M20.18,349.89c-1.64-4.59-3.98-7.07-6.84-7.07-.81,0-1.62.2-2.42.61-1.5.75-2.89,2.26-4.12,4.29,2.58-10.48,5.9-17.97,8.49-19.56.31-.19.59-.3.8-.3.09,0,.37,0,.84.5,1.92,2.12,3.51,9.56,3.25,21.53Z"/>
  <path class="cls-1" d="M35.54,423.4c-4.25-9.84-10.15-15.58-16.47-15.58-4.82.12-8.91,3.86-11.73,10.16,1.56-16.19,7.03-27.21,12.26-27.81h.02c6.85.02,13.96,12.51,15.93,33.22Z"/>
  <path class="cls-1" d="M701.79,339.27c-8.9-15.55-24.57-26.17-41.81-27.78-1.55-.14-3.06-.22-4.57-.22-17.21,0-32.44,9.27-40.37,24.09-.17-14.16,4.42-27.12,12.69-35.8,6.87-7.2,15.61-10.99,25.31-10.99,1.41,0,2.83.08,4.26.25,21.67,2.51,40.87,24.68,44.5,50.45Z"/>
  <path class="cls-1" d="M744.33,262.6c-8.13-12.3-19.86-21.51-31.87-24.54-2.9-.73-5.76-1.09-8.51-1.09-10.79,0-19.63,5.71-24.18,15.29-1.16-11.19,1.06-20.87,6.21-26.84,3.61-4.18,8.49-6.39,14.15-6.39,2.22,0,4.54.34,6.95,1.01,15.38,4.32,30.91,22.53,37.25,42.56Z"/>
  <path class="cls-1" d="M629.33,244.47c-10.82-15.69-29.46-26.74-49.4-28.88-2.36-.25-4.65-.37-6.92-.37-18.75,0-34.61,8.18-42.75,21.69-.37-11.43,3.33-21.86,10.51-29.51,7.48-7.98,18.16-12.37,30.04-12.37,1.94,0,3.92.11,5.92.36,24.9,2.97,47.71,24.57,52.6,49.09Z"/>
  <path class="cls-1" d="M761.37,204.61c-6.09-7.42-13.01-13.36-19.56-16.6-3.73-1.83-7.21-2.75-10.35-2.75-5.32,0-9.31,2.65-11.38,7.35-1.92-7.99-1.64-14.36.87-17.71,1.26-1.69,3.06-2.54,5.39-2.54s4.81.77,7.7,2.26c9.27,4.81,19.91,16.8,27.34,29.98Z"/>
  <path class="cls-1" d="M357.48,234.28c2.03-26.62,27.01-48.03,56.66-48.09,29.66,0,54.61,21.36,56.57,47.98-11.19-16.55-32.71-26.96-56.55-26.96-23.9.06-45.45,10.52-56.67,27.07Z"/>
  <path class="cls-1" d="M558.81,333.2c-11.07-18.19-32.47-30.04-56.33-30.71l-2.05-.03c-23.78,0-44.97,11.23-55.68,29.06.28-14.4,5.87-27.78,15.85-37.83,10.29-10.35,24.11-16.05,38.91-16.05l1.94.03c29.91,1.06,55.19,25.76,57.36,55.54Z"/>
  <path class="cls-1" d="M263.25,333.48c2.26-29.62,27.32-54.25,56.89-55.43l2.15-.05c14.6,0,28.2,5.64,38.33,15.85,9.9,9.99,15.44,23.36,15.68,37.74-10.57-17.69-31.51-28.82-55-28.82l-2.28.03c-23.59.75-44.76,12.57-55.77,30.68Z"/>
  <path class="cls-1" d="M195.91,245.24c5-24.34,27.56-45.87,52.07-48.98,2.08-.25,4.11-.37,6.1-.37,11.58,0,21.98,4.29,29.26,12.1,7.09,7.59,10.73,17.99,10.3,29.4-7.95-13.32-23.47-21.39-41.84-21.39-2.34,0-4.73.12-7.15.41-19.64,2.22-38,13.26-48.74,28.84Z"/>
  <path class="cls-1" d="M78.63,509.81c-7.09-12.65-16.85-21.36-26.42-23.12-1.08-.19-2.11-.3-3.11-.3-6.74,0-12.08,4.34-14.93,11.65-.5-11.55,1.84-21.48,6.53-26.84,2.26-2.59,4.9-3.92,7.85-3.92.42,0,.86.03,1.3.08,11.93,1.53,24.28,20.25,28.77,42.45Z"/>
  <path class="cls-1" d="M35.1,346.16c4-18.78,13.94-34.6,24.32-37.33,1.11-.28,2.2-.44,3.26-.44,3.39,0,6.46,1.47,9.13,4.36,5.57,6.04,8.59,17.33,8.31,30.79-4.29-10.24-11.68-16.32-20.39-16.32-1.31,0-2.64.14-3.98.42-7.96,1.69-15.41,8.56-20.66,18.52Z"/>
  <path class="cls-1" d="M25.98,279.26c5.01-12.58,11.8-23.19,17.71-26.74,1.36-.81,2.59-1.22,3.65-1.22,1.16,0,2.11.5,2.95,1.51,2.2,2.7,3.73,9.66,2.09,21.47-1.84-5.23-5.14-8.17-9.45-8.17-1.81,0-3.75.55-5.75,1.62-3.76,2.01-7.65,6.09-11.21,11.52Z"/>
  <path class="cls-1" d="M466.55,436.21c-11.24-19.13-33.96-31.21-59.61-31.23-25.56.02-48.15,12.05-59.31,31.12.33-15.32,6.43-29.68,17.27-40.59,11.21-11.29,26.17-17.53,42.06-17.55,15.94,0,30.94,6.23,42.2,17.53,10.91,10.93,17.06,25.36,17.39,40.72Z"/>
  <path class="cls-1" d="M607.28,531.39c3.28-28.7,25.2-52.6,50.04-53.93.62-.03,1.26-.05,1.89-.05,9.63,0,18.49,3.95,24.97,11.12,7.54,8.34,11.4,20.42,10.76,33.47-6.17-12.9-19.41-20.91-35.44-20.91-1.26,0-2.54.05-3.84.14-19.13,1.47-37.78,13.3-48.37,30.15Z"/>
  <path class="cls-1" d="M369.92,538.76c-11.33-17.91-33.83-30.02-57.92-30.71l-2.12-.03c-22.67,0-42.06,10.18-51.15,26.37-.36-13.74,4.47-26.59,13.65-36.32,9.68-10.26,23.11-15.91,37.8-15.91l1.06.02c31.3.62,57.28,25.85,58.69,56.58Z"/>
  <path class="cls-1" d="M281.35,435.35c-10.57-18.11-31.09-29.9-52.96-29.9-21.11.12-39.27,10.77-48.26,27.65.92-28.96,22.12-52.55,48.38-53.16l1.01-.02c27.74,0,50.65,24.7,51.82,55.43Z"/>
  <path class="cls-1" d="M529,435.67c1.08-31.12,24.78-56.16,53.55-56.16l.94.02c27.39.56,49.51,24.61,50.38,54.13-9.35-17.28-28.28-28.18-50.02-28.29-22.86,0-44.04,11.96-54.85,30.3Z"/>
  <path class="cls-1" d="M437.6,539.12c1.09-30.84,27.26-56.03,59.08-56.53h.03c16.08,0,30.04,5.84,40.13,16.44,9.41,9.88,14.38,22.86,14.11,36.67-9.52-16.63-29.71-27.1-53.21-27.1l-1.66.02c-24.5.56-47.2,12.6-58.49,30.51Z"/>
  <path class="cls-1" d="M200.3,529.09c-10.24-16.46-27.81-28.06-45.65-29.6-1.33-.11-2.64-.17-3.92-.17-14.66,0-26.68,7.54-32.32,19.73-.66-12.96,3-24.78,10.21-32.82,5.92-6.59,13.61-10.05,22.3-10.05.62,0,1.28.02,1.92.06,23.17,1.39,43.9,24.79,47.46,52.85Z"/>
  <path class="cls-1" d="M314.57,43.5c7.04-9.23,25.06-17.17,43.58-18.86,2.53-.23,5.01-.34,7.4-.34,12.97,0,24.18,3.33,29.31,8.68,1.53,1.61,2.45,3.33,2.76,5.14-6.76-5.15-18.86-8.26-32.79-8.26-2.87,0-5.84.12-8.88.39-15.94,1.41-31.3,6.42-41.37,13.26Z"/>
  <path class="cls-1" d="M686.55,431.69c1.73-26.65,17.41-47.76,36.03-47.76l1.17.03c16.85.83,30.41,20.11,31.77,44.06-6.21-13.08-17.92-21.48-31.15-21.64h0c-15.52,0-29.65,9.73-37.83,25.31Z"/>
  <path class="cls-1" d="M804.37,278.66c-3.81-5.82-8.03-10.2-12.1-12.32-2.06-1.06-4.04-1.61-5.92-1.61-4.56,0-8.04,3.08-9.98,8.52-1.64-11.9-.02-19,2.28-21.81.92-1.12,2-1.67,3.29-1.67,1.12,0,2.4.42,3.84,1.23,6.28,3.62,13.43,14.64,18.58,27.65Z"/>
  <path class="cls-1" d="M788.02,424.58c1.89-19.95,9.1-35.11,17.36-35.11,6.59.66,13.04,12.47,14.71,29.73-3.14-7.14-7.84-11.4-13.29-11.52h0c-7.28,0-14.08,6.37-18.78,16.91Z"/>
  <path class="cls-1" d="M813.01,488.91c3.89-16.77,9.76-28.2,13.97-29.31.08-.02.17-.02.25-.02.33,0,.66.09,1.09.59,1.92,2.23,3.22,8.96,2.84,18.67-.37-.77-.83-1.45-1.36-2.01-1.01-1.08-2.26-1.66-3.64-1.66-.64,0-1.3.12-1.97.37-4.06,1.55-7.93,6.82-11.19,13.35Z"/>
  <path class="cls-1" d="M791.84,345.75c-5.56-10.52-13.63-17.77-22.26-19.47-1.41-.28-2.76-.41-4.11-.41-9.32,0-17.24,6.32-21.81,16.97-.28-13.54,2.87-25.04,8.7-31.32,2.97-3.19,6.39-4.81,10.16-4.81,1.12,0,2.28.14,3.43.42,11.21,2.78,21.84,19.19,25.89,38.61Z"/>
  <path class="cls-1" d="M815.12,349.47c-.27-12.37,1.5-20.06,3.72-22.5.64-.7,1.11-.7,1.26-.7.3,0,.64.11,1.03.33,2.97,1.69,6.78,9.8,9.56,21.08-1.55-2.65-3.31-4.62-5.28-5.53-.84-.37-1.7-.58-2.54-.58-3.26-.02-5.92,2.76-7.74,7.9Z"/>
  <path class="cls-1" d="M532.06,45.81c-10.13-7.01-25.45-12.35-41.19-14.1-3.65-.41-7.29-.61-10.8-.61-13.02,0-23.89,2.78-30.07,7.54.19-1.95,1-3.58,2.36-5.07,4.57-5.01,14.57-8.01,26.74-8.01,2.89,0,5.92.17,9.02.53,18.84,2.15,36.86,10.49,43.93,19.72Z"/>
  <path class="cls-1" d="M635.12,69.83c-8.13-5.42-17.5-10.09-26.53-13.07-6.87-2.26-13.33-3.45-18.7-3.45s-9.76,1.26-12.22,3.64c-.7-1.89-1.12-4.28.05-6.04,1.3-1.97,4.42-3.04,8.81-3.04s9.57,1.03,15.35,2.97c11.65,3.9,24.15,11.24,33.26,19Z"/>
  <path class="cls-1" d="M469.17,86.72c-9.84-10.43-28.28-17.17-48.35-17.46-19.92.06-38.14,6.48-47.93,16.63l-.11-1.23-1.11,1.12c2.87-15.04,23.68-26.95,47.87-26.95l1.12.05c24.81.14,45.79,12.02,49.27,26.96l-.42-.5-.34,1.37Z"/>
  <path class="cls-1" d="M605.99,104.7c-10.52-10.66-26.99-19.22-43.72-22.45-4.34-.77-8.57-1.16-12.62-1.16-12.55,0-22.69,3.73-27.99,10.13l-.42-1.3-.98,1.19c-.58-4.73.61-8.96,3.43-12.33,4.34-5.15,12.46-8.1,22.26-8.1,3.47,0,7.15.36,10.9,1.08l1.2.25c20.14,3.89,40.06,17.46,47.73,31.68l.2,1.01Z"/>
  <path class="cls-1" d="M550.48,156.62c-11.23-13.57-30.68-23.01-51.43-24.57-2.01-.16-4-.22-5.95-.22-19.08,0-36.02,7.23-44.73,18.75.14-7.98,3.25-15.32,9.02-21.28,8.07-8.34,20.64-13.11,34.47-13.11,1.62,0,3.28.06,4.93.2,25.61,2.05,48.88,19.78,53.68,40.23Z"/>
  <path class="cls-1" d="M679.62,178.26c-10.07-12.08-24.68-21.53-39.39-25.04-4.17-.98-8.24-1.5-12.13-1.5-11.87,0-21.28,4.67-26.1,12.69-1.16-8.06.37-14.88,4.5-19.83,4.01-4.84,10.45-7.49,18.06-7.49,3.14,0,6.48.44,9.91,1.31,18.55,4.72,37.46,21.8,45.15,39.86Z"/>
  <path class="cls-1" d="M204.84,67.05c9.27-7.99,22.15-15.33,34.25-19.14,5.7-1.8,11.02-2.75,15.36-2.75,4.93,0,8.48,1.2,9.96,3.4,1.01,1.5,1.09,3.5.25,5.95-2.7-2.53-7.31-3.89-13.36-3.89-5.42,0-11.87,1.09-18.64,3.19-9.52,2.95-19.38,7.7-27.82,13.24Z"/>
  <path class="cls-1" d="M705.63,134.74c-8.12-8.09-17.91-15.02-27.17-18.99-5.37-2.2-10.23-3.31-14.49-3.31-5.67,0-9.87,2-12.08,5.59l-.64-1.34-.42.94c-1.72-5.21-1.69-9.46.09-12.04,1.76-2.53,4.93-3.06,7.29-3.06,3.31,0,7.4,1.01,11.85,2.94l.89.39c12.38,5.4,25.85,16.89,34.68,28.88Z"/>
  <path class="cls-1" d="M283.92,156.35c4.73-20.47,28.01-38.17,53.69-40.17,1.62-.12,3.22-.19,4.81-.19,13.91,0,26.56,4.81,34.69,13.18,5.82,5.98,8.96,13.32,9.13,21.31-8.79-11.58-25.82-18.84-45.01-18.84-1.9,0-3.83.06-5.79.2-20.8,1.53-40.3,10.94-51.52,24.51Z"/>
  <path class="cls-1" d="M230.87,102.6c7.59-14.24,27.59-27.73,47.71-31.48l1.19-.2c3.92-.73,7.49-1.08,10.91-1.08,10.1,0,18.47,3.03,22.97,8.32,2.86,3.37,4.09,7.6,3.59,12.29l-.56-.72-.62,1.14c-5.4-6.7-15.91-10.6-28.95-10.6-3.95,0-8.09.36-12.27,1.06-16.94,3.15-33.57,11.69-44.12,22.36l.16-1.09Z"/>
  <path class="cls-1" d="M737.81,513.37c4.45-23.56,18-42.95,31.85-44.53.48-.05.97-.08,1.44-.08,3.7,0,6.98,1.61,9.76,4.78,5.09,5.81,7.67,16.21,7.15,28.03-3.22-8.13-9.46-13.01-17.31-13.01-1.08,0-2.19.09-3.33.28-10.9,1.76-21.89,11.07-29.56,24.53Z"/>
  <path class="cls-1" d="M151.25,178.54c7.71-18.03,26.56-35.08,45-39.81,3.45-.87,6.79-1.33,9.93-1.33,7.67,0,13.85,2.58,17.88,7.43,4.11,4.92,5.64,11.76,4.45,19.81-4.78-7.99-14.11-12.62-25.9-12.62-3.87,0-7.96.5-12.13,1.51-14.65,3.53-29.18,12.94-39.22,25Z"/>
  <path class="cls-1" d="M83.59,263.5c6.35-19.77,21.5-37.71,36.39-42.06,2.37-.69,4.67-1.03,6.85-1.03,5.37,0,10.04,2.11,13.47,6.1,5.06,5.87,7.2,15.5,6.01,26.68-4.42-9.38-12.94-14.99-23.37-14.99-2.73,0-5.57.37-8.45,1.12-11.58,3.04-22.94,12.08-30.91,24.17Z"/>
  <path class="cls-1" d="M129.14,133.67c8.87-12.18,22.65-23.89,35.29-29.24l.86-.34c4.72-2,8.74-2.97,12.15-2.97,2.5,0,5.85.56,7.7,3.22,1.81,2.59,1.89,6.81.25,11.94l-.22-.52-.76,1.23c-2.25-3.83-6.67-5.95-12.65-5.95-4.31,0-9.21,1.08-14.57,3.22-9.62,4.03-19.73,11.12-28.04,19.41Z"/>
  <path class="cls-1" d="M70.04,204.89c7.42-13.11,17.95-25.03,27.12-29.84,2.87-1.5,5.45-2.26,7.65-2.26s4.06.84,5.29,2.5c2.5,3.34,2.78,9.68.84,17.67-2.05-4.65-5.98-7.29-11.26-7.29-3.12,0-6.59.92-10.3,2.76-6.48,3.2-13.32,9.1-19.34,16.46Z"/>
  <g>
    <path class="cls-2" d="M128.33,608.8c-2.17,0-4.45-.33-6.79-.98-15.16-4.29-30.45-22.44-36.72-42.47,8.04,12.24,19.56,21.37,31.37,24.36,2.84.72,5.64,1.08,8.32,1.08,10.69,0,19.45-5.75,24-15.35,1.14,11.32-1.09,21.09-6.28,27.07-3.56,4.11-8.37,6.29-13.9,6.29h0Z"/>
    <path class="cls-2" d="M105.53,657.31c-2.22,0-4.79-.75-7.67-2.2-9.43-4.82-20.22-17.06-27.65-30.51,6.18,7.6,13.24,13.71,19.95,16.94,3.7,1.78,7.15,2.69,10.27,2.69,5.46,0,9.57-2.75,11.69-7.59,1.9,8.12,1.56,14.6-1.03,18.03-1.3,1.75-3.17,2.64-5.57,2.64t0,0Z"/>
    <path class="cls-2" d="M345.3,713.2c-1.5,0-3.01-.06-4.56-.17-25.89-1.92-49.31-19.8-53.88-40.55,11.23,13.72,30.84,23.19,51.82,24.64,1.84.12,3.67.19,5.48.19,19.44,0,36.74-7.42,45.67-19.24-.2,8.15-3.43,15.64-9.4,21.75-8.27,8.49-21.08,13.38-35.13,13.38h0Z"/>
    <path class="cls-2" d="M207.97,692.3c-3.11,0-6.4-.42-9.81-1.28-18.72-4.68-37.77-21.97-45.37-40.28,10.09,12.24,24.82,21.75,39.7,25.25,4.11.95,8.13,1.44,11.96,1.44,12.08,0,21.67-4.76,26.57-12.97,1.14,8.2-.45,15.16-4.67,20.2-4.11,4.93-10.65,7.65-18.39,7.65h0Z"/>
    <path class="cls-2" d="M256.77,632.8c-1.94,0-3.9-.12-5.92-.36-24.78-3.01-47.46-24.72-52.33-49.32,10.76,15.72,29.27,26.82,49.1,28.96,2.34.25,4.65.37,6.92.37,18.67,0,34.46-8.21,42.53-21.76.39,11.57-3.33,22.11-10.55,29.82-7.43,7.92-17.99,12.29-29.74,12.29h0Z"/>
    <path class="cls-2" d="M47.76,578.38c-1.08,0-2.31-.41-3.67-1.19-6.1-3.54-13.05-14.43-18.08-27.32,3.68,5.67,7.73,9.9,11.68,11.98,1.98,1.05,3.9,1.56,5.71,1.56,4.48,0,7.92-3.06,9.84-8.51,1.59,11.98-.03,19.09-2.33,21.87-.89,1.06-1.92,1.61-3.15,1.61h0Z"/>
    <path class="cls-2" d="M417.88,641.96c-29.73,0-54.75-21.53-56.67-48.37,11.21,16.66,32.79,27.15,56.69,27.15,23.97-.05,45.54-10.57,56.78-27.24-2,26.84-27.04,48.4-56.77,48.46h-.03Z"/>
    <path class="cls-2" d="M417.07,831.03c-16.03,0-29.66-3.5-35.68-7.56,8.6,3.62,21.7,5.82,35.66,5.82,13.55-.03,26.18-2.08,34.88-5.42-6.57,4-19.56,7.12-34.64,7.15h-.22Z"/>
    <path class="cls-2" d="M320.54,821.23c-4.9,0-10.8-.72-17.05-2.08-8.12-1.78-16.38-4.51-23.5-7.62,6.06,2.25,12.54,4.17,18.97,5.54,7.2,1.55,14.1,2.36,19.95,2.36,4.36,0,9.88-.45,13.46-2.4.08.62-.11,1.03-.3,1.3-.45.69-2.65,2.9-11.54,2.9h0Z"/>
    <path class="cls-2" d="M661.41,726.33c-2.33,0-5.45-.53-7.2-3.04-1.8-2.59-1.84-6.87-.16-12.15,2.25,3.58,6.45,5.56,12.08,5.56,4.36,0,9.34-1.17,14.8-3.47,8.59-3.62,17.63-9.85,25.42-17.27-8.79,11.52-21.58,22.34-33.27,27.45-4.39,1.9-8.42,2.92-11.68,2.92h0Z"/>
    <path class="cls-2" d="M729.11,656.04c-2.26,0-4.04-.84-5.28-2.5-2.53-3.37-2.84-9.8-.92-17.92,2.06,4.73,6.01,7.42,11.3,7.42,3.09,0,6.49-.92,10.13-2.7,6.45-3.19,13.26-9.1,19.25-16.49-7.35,13.21-17.85,25.21-26.98,29.99-2.83,1.45-5.36,2.2-7.51,2.2h0Z"/>
    <path class="cls-2" d="M513.68,820.79c-8.6,0-10.71-2.14-11.15-2.79-.19-.27-.37-.67-.27-1.34,3.47,1.9,8.85,2.36,13.1,2.36,5.89,0,12.85-.84,20.13-2.45,6.17-1.36,12.38-3.22,18.22-5.37-6.98,3.03-14.97,5.68-22.84,7.45-6.32,1.41-12.27,2.15-17.19,2.15h0Z"/>
    <path class="cls-2" d="M545.82,825.69c.12-.05.23-.12.36-.16-.14.03-.3.03-.36.16Z"/>
    <path class="cls-2" d="M495.45,712.52c-13.72,0-26.21-4.76-34.24-13.07-5.84-6.04-8.96-13.49-9.07-21.61,8.68,11.73,25.25,18.81,44.59,18.81,2,0,4.03-.08,6.1-.23,20.72-1.61,40.17-11.15,51.43-24.84-4.82,20.66-28.13,38.58-53.74,40.72-1.72.16-3.4.22-5.07.22Z"/>
    <path class="cls-2" d="M703.24,608.92c-5.56,0-10.38-2.19-13.96-6.32-5.18-6-7.43-15.77-6.31-27.1,4.56,9.63,13.35,15.39,24.08,15.39,2.7,0,5.5-.36,8.34-1.08,11.85-2.98,23.4-12.13,31.44-24.4-6.26,20.05-21.59,38.24-36.8,42.51-2.34.67-4.62,1-6.79,1h0Z"/>
    <path class="cls-2" d="M578.49,632.41c-11.62,0-22.05-4.32-29.4-12.16-7.17-7.68-10.87-18.19-10.45-29.76,7.99,13.47,23.64,21.62,42.12,21.62,2.3,0,4.64-.12,7.01-.39,19.69-2.19,38.08-13.27,48.79-28.93-4.9,24.53-27.48,46.2-52.08,49.26-2.03.23-4.03.36-6,.36h0Z"/>
    <path class="cls-2" d="M628.05,691.31c-7.62,0-13.82-2.58-17.88-7.45-4.17-5-5.71-11.94-4.53-20.16,4.79,8.1,14.16,12.8,26,12.8,3.84,0,7.88-.5,12.01-1.5,14.63-3.53,29.13-12.99,39.14-25.12-7.67,18.2-26.48,35.39-44.9,40.13-3.42.86-6.73,1.3-9.84,1.3h0Z"/>
    <path class="cls-2" d="M784.01,578.51c-1.25,0-2.28-.53-3.18-1.62-2.31-2.79-3.93-9.91-2.34-21.89,1.94,5.45,5.39,8.52,9.88,8.52,1.83,0,3.75-.53,5.73-1.56,3.97-2.08,8.06-6.35,11.76-12.07-5.04,12.96-12.02,23.89-18.17,27.45-1.34.76-2.59,1.17-3.67,1.17h0Z"/>
    <path class="cls-2" d="M422.46,770.86c-24.01,0-44.62-11.88-47.59-26.92,9.93,10.02,27.98,16.3,47.7,16.3,20.56-.17,39-6.71,49.26-16.96-3.48,15.21-24.56,27.35-48.76,27.57h-.61Z"/>
    <path class="cls-2" d="M366.45,806.21c-2.33,0-4.72-.09-7.17-.31-19.19-1.7-37.78-10.16-44.33-19.55,10.09,7.12,25.81,12.35,42.17,13.75,2.95.25,5.81.37,8.59.37,14.1,0,26.34-3.17,33.22-8.43-.31,2.01-1.28,3.72-2.81,5.31-5.21,5.45-16.61,8.85-29.68,8.85h0Z"/>
    <path class="cls-2" d="M291.37,760.1c-3.36,0-6.89-.33-10.48-.98-20.3-3.67-40.37-17.22-47.93-31.63,10.79,10.24,27.01,18.24,43.5,21.09,4.34.75,8.6,1.12,12.69,1.12,13.07,0,23.68-3.86,29.34-10.51.44,4.72-.86,8.98-3.76,12.4-4.62,5.42-13.13,8.51-23.36,8.51Z"/>
    <path class="cls-2" d="M254.71,785.51c-4.34,0-9.6-.92-15.22-2.67-12.77-3.98-26.37-11.9-35.63-20.19,8.74,5.95,19.16,11.04,29.23,14.1,6.7,2.05,13.08,3.11,18.47,3.11,6.26,0,11.04-1.42,13.8-4.06.84,2.53.73,4.61-.33,6.15-1.56,2.3-5.21,3.56-10.32,3.56h0Z"/>
    <path class="cls-2" d="M552.65,757.89c-9.65,0-17.3-2.81-21.58-7.93-2.81-3.36-3.97-7.62-3.4-12.38,5.26,6.31,15.16,9.98,27.43,9.98,4.31,0,8.82-.45,13.44-1.34,15.91-3.06,31.68-11.07,42.37-21.23-7.87,14.25-27.54,27.81-47.2,31.74-3.81.78-7.54,1.17-11.07,1.17h0Z"/>
    <path class="cls-2" d="M480.79,804.68c-12.12,0-22.11-3.01-26.71-8.06-1.51-1.67-2.36-3.48-2.54-5.42,6.17,4.9,17.1,7.76,30.23,7.76,3.54,0,7.2-.22,10.88-.62,15.85-1.8,31.24-7.23,41.42-14.4-7.07,9.45-25.23,18-44.2,20.2-3.14.36-6.15.53-9.07.53h0Z"/>
    <path class="cls-2" d="M588.58,782.12c-4.39,0-7.54-1.09-8.87-3.09-1.2-1.83-.78-4.29-.06-6.26,2.48,2.42,6.73,3.73,12.35,3.73s11.77-1.2,18.56-3.45c9.15-3.03,18.64-7.82,26.85-13.4-9.15,7.96-21.83,15.52-33.63,19.52-5.68,1.94-10.96,2.95-15.21,2.95h0Z"/>
    <path class="cls-2" d="M177.46,729.05c-3.4,0-7.42-.95-11.9-2.81-12.35-5.15-25.75-16.32-34.64-28.15,8.13,7.74,17.77,14.25,26.95,17.94,5.51,2.22,10.55,3.34,15.02,3.34,6.01,0,10.52-2.08,12.93-5.82,1.62,5.23,1.5,9.52-.36,12.19-1.97,2.73-5.43,3.31-7.99,3.31h0Z"/>
  </g>
</svg>