<?xml version="1.0" encoding="UTF-8"?>
<svg id="Lager_1" data-name="Lager 1" xmlns="http://www.w3.org/2000/svg" width="403.02" height="46.67" xmlns:xlink="http://www.w3.org/1999/xlink" viewBox="0 0 403.02 46.67">
  <defs>
    <style>
      .cls-1 {
        fill: url(#Namnlös_övertoning_50);
      }
    </style>
    <linearGradient id="Namnlös_övertoning_50" data-name="Namnlös övertoning 50" x1="0" y1="23.33" x2="403.02" y2="23.33" gradientUnits="userSpaceOnUse">
      <stop offset="0" stop-color="#000"/>
      <stop offset=".45" stop-color="#232f3c"/>
      <stop offset="1" stop-color="#4d6682"/>
    </linearGradient>
  </defs>
  <rect x="4.83" y=".08" width="3.17" height="5"/>
  <path class="cls-1" d="m6,46.64H0V.08h6v46.56Zm24-25H6v5h24v-5ZM31,.08H5.94v5h25.06V.08Zm0,41.56H6v5h25v-5ZM50.08.08h-6v46.56h6V.08Zm23.83,41.56h-23.83v5h23.83v-5ZM91.08.08h-6v46.56h6V.08Zm33.08,1.56h-6v45h6V1.64ZM172.94.08h-70v5h70V.08Zm0,41.56h-29.78v5h29.78v-5Zm-.78-20h-29v5h29v-5Zm165.16,20v5h23.72v-5h-23.72Zm-81.3-19.98h-24.06v5h24.06v-5Zm0,1.29h-5.97v23.69h5.97v-23.69Zm0-.99h-4.72c.04.46.08.92.08,1.39,0,9.53-8.3,17.29-18.5,17.29s-18.5-7.76-18.5-17.29,8.3-17.29,18.5-17.29c5.92,0,11.18,2.62,14.57,6.67h7.23C250.61,5.21,242.37.06,232.89.06c-13.51,0-24.5,10.45-24.5,23.29s10.99,23.29,24.5,23.29c10.71,0,19.82-6.58,23.14-15.71v-8.97Zm61.87,1.36c0-12.78-11.17-23.18-24.89-23.18s-24.89,10.4-24.89,23.18,11.17,23.18,24.89,23.18,24.89-10.4,24.89-23.18Zm-6,0c0,9.47-8.47,17.18-18.89,17.18s-18.89-7.71-18.89-17.18,8.47-17.18,18.89-17.18,18.89,7.71,18.89,17.18ZM337.33,0h-6v46.64h6V0Zm40.84.03h-6v46.64h6V.03ZM403.02.03h-24.86v5h24.86V.03Zm-1.86,21.65h-23v5h23v-5Z"/>
</svg>