<?xml version="1.0" encoding="UTF-8" standalone="no"?>
<!-- Uploaded to: SVG Repo, www.svgrepo.com, Generator: SVG Repo Mixer Tools -->

<svg
   fill="#000000"
   height="800"
   width="800"
   version="1.1"
   id="Layer_1"
   viewBox="-143 145 512 512"
   xml:space="preserve"
   sodipodi:docname="facebook-rounded-svgrepo-com.svg"
   xmlns:inkscape="http://www.inkscape.org/namespaces/inkscape"
   xmlns:sodipodi="http://sodipodi.sourceforge.net/DTD/sodipodi-0.dtd"
   xmlns="http://www.w3.org/2000/svg"
   xmlns:svg="http://www.w3.org/2000/svg"><defs
   id="defs1" /><sodipodi:namedview
   id="namedview1"
   pagecolor="#ffffff"
   bordercolor="#111111"
   borderopacity="1"
   inkscape:showpageshadow="0"
   inkscape:pageopacity="0"
   inkscape:pagecheckerboard="1"
   inkscape:deskcolor="#d1d1d1" />
<path
   d="m 329,145 h -432 c -22.1,0 -40,17.9 -40,40 v 432 c 0,22.1 17.9,40 40,40 h 432 c 22.1,0 40,-17.9 40,-40 V 185 c 0,-22.1 -17.9,-40 -40,-40 z m -159.5,212.6 -2.9,38.3 h -39.3 v 133 H 77.7 v -133 H 51.2 v -38.3 h 26.5 v -25.7 c 0,-11.3 0.3,-28.8 8.5,-39.7 8.7,-11.5 20.6,-19.3 41.1,-19.3 33.4,0 47.4,4.8 47.4,4.8 l -6.6,39.2 c 0,0 -11,-3.2 -21.3,-3.2 -10.3,0 -19.5,3.7 -19.5,14 v 29.9 z"
   id="path1"
   style="fill:#ffffff;fill-opacity:1" />
</svg>
