<?xml version="1.0" encoding="UTF-8" standalone="no"?>
<!-- Uploaded to: SVG Repo, www.svgrepo.com, Generator: SVG Repo Mixer Tools -->

<svg
   fill="#000000"
   height="800"
   width="800"
   version="1.1"
   id="Layer_1"
   viewBox="-143 145 512 512"
   xml:space="preserve"
   sodipodi:docname="twitter-rounded-svgrepo-com.svg"
   xmlns:inkscape="http://www.inkscape.org/namespaces/inkscape"
   xmlns:sodipodi="http://sodipodi.sourceforge.net/DTD/sodipodi-0.dtd"
   xmlns="http://www.w3.org/2000/svg"
   xmlns:svg="http://www.w3.org/2000/svg"><defs
   id="defs1" /><sodipodi:namedview
   id="namedview1"
   pagecolor="#ffffff"
   bordercolor="#111111"
   borderopacity="1"
   inkscape:showpageshadow="0"
   inkscape:pageopacity="0"
   inkscape:pagecheckerboard="1"
   inkscape:deskcolor="#d1d1d1" />
<path
   d="m 329,145 h -432 c -22.1,0 -40,17.9 -40,40 v 432 c 0,22.1 17.9,40 40,40 h 432 c 22.1,0 40,-17.9 40,-40 V 185 c 0,-22.1 -17.9,-40 -40,-40 z M 215.2,361.2 c 0.1,2.2 0.1,4.5 0.1,6.8 0,69.5 -52.9,149.7 -149.7,149.7 -29.7,0 -57.4,-8.7 -80.6,-23.6 4.1,0.5 8.3,0.7 12.6,0.7 24.6,0 47.3,-8.4 65.3,-22.5 -23,-0.4 -42.5,-15.6 -49.1,-36.5 3.2,0.6 6.5,0.9 9.9,0.9 4.8,0 9.5,-0.6 13.9,-1.9 C 13.5,430 -4.6,408.7 -4.6,383.2 v -0.6 c 7.1,3.9 15.2,6.3 23.8,6.6 -14.1,-9.4 -23.4,-25.6 -23.4,-43.8 0,-9.6 2.6,-18.7 7.1,-26.5 26,31.9 64.7,52.8 108.4,55 -0.9,-3.8 -1.4,-7.8 -1.4,-12 0,-29 23.6,-52.6 52.6,-52.6 15.1,0 28.8,6.4 38.4,16.6 12,-2.4 23.2,-6.7 33.4,-12.8 -3.9,12.3 -12.3,22.6 -23.1,29.1 10.6,-1.3 20.8,-4.1 30.2,-8.3 -7,10.6 -15.9,19.8 -26.2,27.3 z"
   id="path1"
   style="fill:#ffffff;fill-opacity:1" />
</svg>
