<?xml version="1.0" encoding="UTF-8"?>
<svg id="Lager_1" data-name="Lager 1" xmlns="http://www.w3.org/2000/svg" width="100.5" height="88.69" xmlns:xlink="http://www.w3.org/1999/xlink" viewBox="0 0 100.5 88.69">
  <defs>
    <style>
      .cls-1 {
        fill: url(#Namnlös_övertoning_47-7);
      }

      .cls-1, .cls-2, .cls-3, .cls-4, .cls-5, .cls-6, .cls-7, .cls-8, .cls-9, .cls-10, .cls-11, .cls-12, .cls-13, .cls-14, .cls-15, .cls-16, .cls-17 {
        stroke: #1d1d1b;
        stroke-miterlimit: 10;
      }

      .cls-1, .cls-2, .cls-3, .cls-4, .cls-5, .cls-6, .cls-7, .cls-10, .cls-11, .cls-12, .cls-13, .cls-14, .cls-16, .cls-17 {
        stroke-width: .25px;
      }

      .cls-2 {
        fill: url(#Namnlös_övertoning_47-3);
      }

      .cls-3 {
        fill: url(#Namnlös_övertoning_47-12);
      }

      .cls-4 {
        fill: url(#Namnlös_övertoning_47-13);
      }

      .cls-5 {
        fill: url(#Namnlös_övertoning_47);
      }

      .cls-6 {
        fill: url(#Namnlös_övertoning_47-8);
      }

      .cls-7 {
        fill: url(#Namnlös_övertoning_47-4);
      }

      .cls-8 {
        fill: url(#Namnlös_övertoning_47-9);
      }

      .cls-8, .cls-9, .cls-15 {
        stroke-width: .5px;
      }

      .cls-9 {
        fill: url(#Namnlös_övertoning_47-2);
      }

      .cls-10, .cls-15 {
        fill: #23577a;
      }

      .cls-11 {
        fill: url(#Namnlös_övertoning_47-6);
      }

      .cls-12 {
        fill: url(#Namnlös_övertoning_47-5);
      }

      .cls-13 {
        fill: #13597e;
      }

      .cls-14 {
        fill: url(#Namnlös_övertoning_47-14);
      }

      .cls-18 {
        fill: #01513c;
      }

      .cls-18, .cls-19, .cls-20 {
        stroke-width: 0px;
      }

      .cls-19 {
        fill: #fff;
      }

      .cls-16 {
        fill: url(#Namnlös_övertoning_47-11);
      }

      .cls-20 {
        fill: url(#Namnlös_övertoning_84);
      }

      .cls-17 {
        fill: url(#Namnlös_övertoning_47-10);
      }
    </style>
    <linearGradient id="Namnlös_övertoning_47" data-name="Namnlös övertoning 47" x1="19.53" y1="80.8" x2="75.09" y2="24.97" gradientTransform="translate(51.35 -17.73) rotate(45)" gradientUnits="userSpaceOnUse">
      <stop offset="0" stop-color="#cecece"/>
      <stop offset=".15" stop-color="#c8c8c8"/>
      <stop offset=".34" stop-color="#b8b8b8"/>
      <stop offset=".55" stop-color="#9e9d9d"/>
      <stop offset=".78" stop-color="#797978"/>
      <stop offset="1" stop-color="#504f4e"/>
    </linearGradient>
    <linearGradient id="Namnlös_övertoning_47-2" data-name="Namnlös övertoning 47" x1="1.01" y1="83.72" x2="13.98" y2="83.72" gradientTransform="matrix(1,0,0,1,0,0)" xlink:href="#Namnlös_övertoning_47"/>
    <linearGradient id="Namnlös_övertoning_47-3" data-name="Namnlös övertoning 47" x1="90.24" y1="12.93" x2="87.29" y2="9.7" gradientTransform="matrix(1,0,0,1,0,0)" xlink:href="#Namnlös_övertoning_47"/>
    <linearGradient id="Namnlös_övertoning_47-4" data-name="Namnlös övertoning 47" x1="2.9" y1="84.02" x2="6.92" y2="84.02" gradientTransform="matrix(1,0,0,1,0,0)" xlink:href="#Namnlös_övertoning_47"/>
    <linearGradient id="Namnlös_övertoning_47-5" data-name="Namnlös övertoning 47" x1="1.29" y1="82.49" x2="4.73" y2="82.49" gradientTransform="matrix(1,0,0,1,0,0)" xlink:href="#Namnlös_övertoning_47"/>
    <linearGradient id="Namnlös_övertoning_47-6" data-name="Namnlös övertoning 47" x1="5.63" y1="85.37" x2="9.09" y2="85.37" gradientTransform="matrix(1,0,0,1,0,0)" xlink:href="#Namnlös_övertoning_47"/>
    <linearGradient id="Namnlös_övertoning_47-7" data-name="Namnlös övertoning 47" x1="9.03" y1="86.28" x2="11.34" y2="86.28" gradientTransform="matrix(1,0,0,1,0,0)" xlink:href="#Namnlös_övertoning_47"/>
    <linearGradient id="Namnlös_övertoning_47-8" data-name="Namnlös övertoning 47" x1="80.45" y1="80.1" x2="24.15" y2="23.89" gradientTransform="translate(53.21 -22.22) rotate(45)" xlink:href="#Namnlös_övertoning_47"/>
    <linearGradient id="Namnlös_övertoning_47-9" data-name="Namnlös övertoning 47" x1="99.58" y1="83.69" x2="86.62" y2="83.78" gradientTransform="matrix(1,0,0,1,0,0)" xlink:href="#Namnlös_övertoning_47"/>
    <linearGradient id="Namnlös_övertoning_47-10" data-name="Namnlös övertoning 47" x1="10.31" y1="12.71" x2="13.43" y2="9.68" gradientTransform="matrix(1,0,0,1,0,0)" xlink:href="#Namnlös_övertoning_47"/>
    <linearGradient id="Namnlös_övertoning_47-11" data-name="Namnlös övertoning 47" x1="97.6" y1="84.02" x2="93.58" y2="84.02" gradientTransform="matrix(1,0,0,1,0,0)" xlink:href="#Namnlös_övertoning_47"/>
    <linearGradient id="Namnlös_övertoning_47-12" data-name="Namnlös övertoning 47" x1="99.21" y1="82.49" x2="95.77" y2="82.49" gradientTransform="matrix(1,0,0,1,0,0)" xlink:href="#Namnlös_övertoning_47"/>
    <linearGradient id="Namnlös_övertoning_47-13" data-name="Namnlös övertoning 47" x1="94.87" y1="85.37" x2="91.41" y2="85.37" gradientTransform="matrix(1,0,0,1,0,0)" xlink:href="#Namnlös_övertoning_47"/>
    <linearGradient id="Namnlös_övertoning_47-14" data-name="Namnlös övertoning 47" x1="91.47" y1="86.28" x2="89.16" y2="86.28" gradientTransform="matrix(1,0,0,1,0,0)" xlink:href="#Namnlös_övertoning_47"/>
    <radialGradient id="Namnlös_övertoning_84" data-name="Namnlös övertoning 84" cx="49.57" cy="46.5" fx="49.57" fy="-31.46" r="77.97" gradientTransform="translate(43.81 -17.84) rotate(45) scale(1 .89)" gradientUnits="userSpaceOnUse">
      <stop offset=".44" stop-color="#fff"/>
      <stop offset=".5" stop-color="#fbfcfc"/>
      <stop offset=".55" stop-color="#f0f4f3"/>
      <stop offset=".59" stop-color="#dde8e5"/>
      <stop offset=".64" stop-color="#c3d6d1"/>
      <stop offset=".68" stop-color="#a1bfb7"/>
      <stop offset=".73" stop-color="#78a398"/>
      <stop offset=".77" stop-color="#478172"/>
      <stop offset=".82" stop-color="#105b48"/>
      <stop offset=".83" stop-color="#00513c"/>
    </radialGradient>
  </defs>
  <g>
    <rect class="cls-5" x="6.78" y="52.24" width="80.59" height="1.77" transform="translate(-23.77 48.84) rotate(-45)"/>
    <path class="cls-10" d="M82.43,21.1l17.09-17.09c.73-.73.73-1.92,0-2.66l-.68-.68c-.74-.73-1.92-.73-2.66,0l-17.09,17.09,3.33,3.33Z"/>
    <polygon class="cls-10" points="76.19 25.25 82.43 21.1 79.09 17.76 74.94 24 76.19 25.25"/>
    <path class="cls-15" d="M3.24,78.53c4.26.62,8.52,7.84,11.81,4.55l2.86-2.86,2.06,2.06-2.86,2.86c-5.74,5.74-13.56,2.64-15.62.58-2.16-2.16-1.41-7.66,1.76-7.2Z"/>
    <path class="cls-9" d="M9.41,87.7c-3.4,0-6.41-1.48-7.47-2.54-.92-.92-1.21-2.99-.61-4.43.27-.65.63-.98,1.09-.98.06,0,.12,0,.19.01,1.51.22,3.23,1.55,4.91,2.84,2.08,1.6,4.04,3.11,6.18,3.11,1.17,0-1.35,1.98-4.28,1.98Z"/>
    <path class="cls-2" d="M94.48,2.38l.73-.73,3.33,3.33-.73.73-3.33-3.33ZM95.25,8.28l.73-.73-3.33-3.33-.73.73,3.33,3.33ZM92.68,10.84l.73-.73-3.33-3.33-.73.73,3.33,3.33ZM90.12,13.4l.73-.73-3.33-3.33-.73.73,3.33,3.33ZM87.55,15.97l.73-.73-3.33-3.33-.73.73,3.33,3.33ZM84.99,18.53l.73-.73-3.33-3.33-.73.73,3.33,3.33ZM82.43,21.1l.73-.73-3.33-3.33-.73.73,3.33,3.33Z"/>
    <g>
      <path class="cls-7" d="M3.57,86.27c1.8-1.03,2.78-2.22,3.35-4.12-.17-.13-.34-.26-.51-.39-.52,1.84-1.98,3.36-3.51,4.13.2.13.43.25.67.38Z"/>
      <path class="cls-12" d="M4.19,80.32c-.46,1.58-1.61,2.91-2.9,3.73.08.22.17.42.27.6,1.69-1.01,2.61-2.19,3.16-4.03-.18-.11-.36-.21-.54-.3Z"/>
      <path class="cls-11" d="M9.09,83.79c-.17-.12-.34-.25-.52-.38-.49,1.57-1.66,2.89-2.95,3.69.27.08.56.16.85.23,1.33-.91,2.12-1.98,2.61-3.54Z"/>
      <path class="cls-1" d="M11.34,85.15c-.18-.08-.37-.18-.55-.28-.32,1.08-.97,2.05-1.77,2.81.13,0,.25.02.38.02.21,0,.41-.01.61-.03.6-.69,1.01-1.5,1.32-2.52Z"/>
    </g>
  </g>
  <g>
    <rect class="cls-6" x="52.55" y="12.82" width="1.77" height="80.59" transform="translate(-21.91 53.34) rotate(-45)"/>
    <path class="cls-10" d="M18.07,21.1L.99,4.01c-.73-.73-.73-1.92,0-2.66l.68-.68C2.4-.06,3.59-.06,4.32.68l17.09,17.09-3.33,3.33Z"/>
    <polygon class="cls-13" points="24.31 25.25 18.07 21.1 21.41 17.76 25.56 24 24.31 25.25"/>
    <path class="cls-15" d="M97.26,78.53c-4.26.62-8.52,7.84-11.81,4.55l-2.86-2.86-2.06,2.06,2.86,2.86c5.74,5.74,13.56,2.64,15.62.58,2.16-2.16,1.41-7.66-1.76-7.2Z"/>
    <path class="cls-8" d="M91.09,87.7c3.4,0,6.42-1.48,7.47-2.54.92-.92,1.21-2.99.61-4.43-.27-.65-.63-.98-1.09-.98-.06,0-.12,0-.19.01-1.51.22-3.23,1.55-4.91,2.84-2.08,1.6-4.04,3.11-6.18,3.11-1.17,0,1.35,1.98,4.28,1.98Z"/>
    <path class="cls-17" d="M2.69,5.71l-.73-.73,3.33-3.33.73.73-3.33,3.33ZM8.59,4.94l-.73-.73-3.33,3.33.73.73,3.33-3.33ZM11.15,7.51l-.73-.73-3.33,3.33.73.73,3.33-3.33ZM13.71,10.07l-.73-.73-3.33,3.33.73.73,3.33-3.33ZM16.28,12.64l-.73-.73-3.33,3.33.73.73,3.33-3.33ZM18.84,15.2l-.73-.73-3.33,3.33.73.73,3.33-3.33ZM21.41,17.76l-.73-.73-3.33,3.33.73.73,3.33-3.33Z"/>
    <g>
      <path class="cls-16" d="M96.93,86.27c-1.8-1.03-2.78-2.22-3.35-4.12.17-.13.34-.26.51-.39.52,1.84,1.98,3.36,3.51,4.13-.2.13-.43.25-.67.38Z"/>
      <path class="cls-3" d="M96.31,80.32c.46,1.58,1.61,2.91,2.9,3.73-.08.22-.17.42-.27.6-1.69-1.01-2.61-2.19-3.16-4.03.18-.11.36-.21.54-.3Z"/>
      <path class="cls-4" d="M91.41,83.79c.17-.12.34-.25.52-.38.49,1.57,1.66,2.89,2.95,3.69-.27.08-.56.16-.85.23-1.32-.91-2.12-1.98-2.61-3.54Z"/>
      <path class="cls-14" d="M89.16,85.15c.18-.08.37-.18.55-.28.32,1.08.97,2.05,1.77,2.81-.13,0-.25.02-.38.02-.21,0-.41-.01-.61-.03-.6-.69-1.01-1.5-1.32-2.52Z"/>
    </g>
  </g>
  <g>
    <circle class="cls-20" cx="49.57" cy="46.5" r="42.07" transform="translate(-18.36 48.67) rotate(-45)"/>
    <path class="cls-18" d="M9.35,52.87c-.26-.53-.56-.95-.86-1.08-.06-.03-.12-.04-.18-.04-.11,0-.21.05-.29.13-.02.03-.05.06-.07.09-.04-.91.06-1.52.21-1.7.35.08.83,1.09,1.19,2.6Z"/>
    <path class="cls-18" d="M20.49,47.53c-.78-1.51-2.09-2.44-3.5-2.44-1.25.02-2.33.81-2.91,2.06.14-2.31,1.39-4.17,2.94-4.25h.11c1.73,0,3.18,2.04,3.36,4.64Z"/>
    <path class="cls-18" d="M19.53,38.42c.37-2.53,2.22-4.71,4.3-4.97.15-.02.29-.03.43-.03.91,0,1.74.36,2.39,1.05.81.85,1.26,2.14,1.24,3.55-.77-1.45-2.22-2.35-3.88-2.35-.15,0-.31,0-.46.02-1.65.16-3.15,1.2-4.02,2.73Z"/>
    <path class="cls-18" d="M9.52,39.42c-.16-.46-.4-.71-.68-.71-.08,0-.16.02-.24.06-.15.07-.29.23-.41.43.26-1.05.59-1.8.85-1.96.03-.02.06-.03.08-.03,0,0,.04,0,.08.05.19.21.35.96.32,2.15Z"/>
    <path class="cls-18" d="M11.05,46.77c-.42-.98-1.01-1.56-1.65-1.56-.48.01-.89.39-1.17,1.02.16-1.62.7-2.72,1.23-2.78h0c.69,0,1.4,1.25,1.59,3.32Z"/>
    <path class="cls-18" d="M77.68,38.36c-.89-1.56-2.46-2.62-4.18-2.78-.15-.01-.31-.02-.46-.02-1.72,0-3.24.93-4.04,2.41-.02-1.42.44-2.71,1.27-3.58.69-.72,1.56-1.1,2.53-1.1.14,0,.28,0,.43.02,2.17.25,4.09,2.47,4.45,5.04Z"/>
    <path class="cls-18" d="M81.93,30.69c-.81-1.23-1.99-2.15-3.19-2.45-.29-.07-.58-.11-.85-.11-1.08,0-1.96.57-2.42,1.53-.12-1.12.11-2.09.62-2.68.36-.42.85-.64,1.41-.64.22,0,.45.03.69.1,1.54.43,3.09,2.25,3.73,4.26Z"/>
    <path class="cls-18" d="M70.43,28.88c-1.08-1.57-2.95-2.67-4.94-2.89-.24-.02-.47-.04-.69-.04-1.88,0-3.46.82-4.27,2.17-.04-1.14.33-2.19,1.05-2.95.75-.8,1.82-1.24,3-1.24.19,0,.39.01.59.04,2.49.3,4.77,2.46,5.26,4.91Z"/>
    <path class="cls-18" d="M83.63,24.89c-.61-.74-1.3-1.34-1.96-1.66-.37-.18-.72-.27-1.04-.27-.53,0-.93.27-1.14.74-.19-.8-.16-1.44.09-1.77.13-.17.31-.25.54-.25s.48.08.77.23c.93.48,1.99,1.68,2.73,3Z"/>
    <path class="cls-18" d="M43.25,27.86c.2-2.66,2.7-4.8,5.67-4.81,2.97,0,5.46,2.14,5.66,4.8-1.12-1.65-3.27-2.7-5.65-2.7-2.39,0-4.54,1.05-5.67,2.71Z"/>
    <path class="cls-18" d="M63.38,37.75c-1.11-1.82-3.25-3-5.63-3.07h-.2c-2.38,0-4.5,1.12-5.57,2.9.03-1.44.59-2.78,1.58-3.78,1.03-1.04,2.41-1.61,3.89-1.61h.19c2.99.11,5.52,2.58,5.74,5.56Z"/>
    <path class="cls-18" d="M33.82,37.78c.23-2.96,2.73-5.43,5.69-5.54h.22c1.46,0,2.82.56,3.83,1.58.99,1,1.54,2.34,1.57,3.77-1.06-1.77-3.15-2.88-5.5-2.88h-.23c-2.36.08-4.48,1.26-5.58,3.07Z"/>
    <path class="cls-18" d="M27.09,28.96c.5-2.43,2.76-4.59,5.21-4.9.21-.02.41-.04.61-.04,1.16,0,2.2.43,2.93,1.21.71.76,1.07,1.8,1.03,2.94-.79-1.33-2.35-2.14-4.18-2.14-.23,0-.47.01-.72.04-1.96.22-3.8,1.33-4.87,2.88Z"/>
    <path class="cls-18" d="M15.36,55.41c-.71-1.26-1.68-2.14-2.64-2.31-.11-.02-.21-.03-.31-.03-.67,0-1.21.43-1.49,1.16-.05-1.16.18-2.15.65-2.68.23-.26.49-.39.79-.39.04,0,.09,0,.13,0,1.19.15,2.43,2.03,2.88,4.25Z"/>
    <path class="cls-18" d="M11.01,39.05c.4-1.88,1.39-3.46,2.43-3.73.11-.03.22-.04.33-.04.34,0,.65.15.91.44.56.6.86,1.73.83,3.08-.43-1.02-1.17-1.63-2.04-1.63-.13,0-.26.01-.4.04-.8.17-1.54.86-2.07,1.85Z"/>
    <path class="cls-18" d="M10.1,32.36c.5-1.26,1.18-2.32,1.77-2.67.14-.08.26-.12.37-.12.12,0,.21.05.3.15.22.27.37.97.21,2.15-.18-.52-.51-.82-.94-.82-.18,0-.37.05-.57.16-.38.2-.77.61-1.12,1.15Z"/>
    <path class="cls-18" d="M54.15,48.05c-1.12-1.91-3.4-3.12-5.96-3.12-2.56,0-4.82,1.21-5.93,3.11.03-1.53.64-2.97,1.73-4.06,1.12-1.13,2.62-1.75,4.21-1.75,1.59,0,3.09.62,4.22,1.75,1.09,1.09,1.71,2.54,1.74,4.07Z"/>
    <path class="cls-18" d="M68.23,57.57c.33-2.87,2.52-5.26,5-5.39.06,0,.13,0,.19,0,.96,0,1.85.4,2.5,1.11.75.83,1.14,2.04,1.08,3.35-.62-1.29-1.94-2.09-3.54-2.09-.13,0-.25,0-.38.01-1.91.15-3.78,1.33-4.84,3.01Z"/>
    <path class="cls-18" d="M44.49,58.31c-1.13-1.79-3.38-3-5.79-3.07h-.21c-2.27,0-4.21,1.01-5.11,2.63-.04-1.37.45-2.66,1.36-3.63.97-1.03,2.31-1.59,3.78-1.59h.11c3.13.06,5.73,2.59,5.87,5.66Z"/>
    <path class="cls-18" d="M35.63,47.97c-1.06-1.81-3.11-2.99-5.3-2.99-2.11.01-3.93,1.08-4.83,2.77.09-2.9,2.21-5.26,4.84-5.32h.1c2.77,0,5.06,2.47,5.18,5.54Z"/>
    <path class="cls-18" d="M60.4,48c.11-3.11,2.48-5.62,5.36-5.62h.09c2.74.06,4.95,2.46,5.04,5.41-.94-1.73-2.83-2.82-5-2.83-2.29,0-4.4,1.2-5.48,3.03Z"/>
    <path class="cls-18" d="M51.26,58.34c.11-3.08,2.73-5.6,5.91-5.65h0c1.61,0,3,.58,4.01,1.64.94.99,1.44,2.29,1.41,3.67-.95-1.66-2.97-2.71-5.32-2.71h-.17c-2.45.06-4.72,1.26-5.85,3.05Z"/>
    <path class="cls-18" d="M27.53,57.34c-1.02-1.65-2.78-2.81-4.57-2.96-.13-.01-.26-.02-.39-.02-1.47,0-2.67.75-3.23,1.97-.07-1.3.3-2.48,1.02-3.28.59-.66,1.36-1.01,2.23-1.01.06,0,.13,0,.19,0,2.32.14,4.39,2.48,4.75,5.28Z"/>
    <path class="cls-18" d="M38.96,8.78c.7-.92,2.51-1.72,4.36-1.89.25-.02.5-.03.74-.03,1.3,0,2.42.33,2.93.87.15.16.25.33.28.51-.68-.52-1.89-.83-3.28-.83-.29,0-.58.01-.89.04-1.59.14-3.13.64-4.14,1.33Z"/>
    <path class="cls-18" d="M76.15,47.6c.17-2.67,1.74-4.78,3.6-4.78h.12c1.68.09,3.04,2.01,3.18,4.41-.62-1.31-1.79-2.15-3.11-2.16h0c-1.55,0-2.96.97-3.78,2.53Z"/>
    <path class="cls-18" d="M87.93,32.3c-.38-.58-.8-1.02-1.21-1.23-.21-.11-.4-.16-.59-.16-.46,0-.8.31-1,.85-.16-1.19,0-1.9.23-2.18.09-.11.2-.17.33-.17.11,0,.24.04.38.12.63.36,1.34,1.46,1.86,2.77Z"/>
    <path class="cls-18" d="M86.3,46.89c.19-2,.91-3.51,1.74-3.51.66.07,1.3,1.25,1.47,2.97-.31-.71-.78-1.14-1.33-1.15h0c-.73,0-1.41.64-1.88,1.69Z"/>
    <path class="cls-18" d="M88.8,53.32c.39-1.68.98-2.82,1.4-2.93,0,0,.02,0,.02,0,.03,0,.07,0,.11.06.19.22.32.9.28,1.87-.04-.08-.08-.15-.14-.2-.1-.11-.23-.17-.36-.17-.06,0-.13.01-.2.04-.41.15-.79.68-1.12,1.33Z"/>
    <path class="cls-18" d="M86.68,39.01c-.56-1.05-1.36-1.78-2.23-1.95-.14-.03-.28-.04-.41-.04-.93,0-1.72.63-2.18,1.7-.03-1.35.29-2.5.87-3.13.3-.32.64-.48,1.02-.48.11,0,.23.01.34.04,1.12.28,2.18,1.92,2.59,3.86Z"/>
    <path class="cls-18" d="M89.01,39.38c-.03-1.24.15-2.01.37-2.25.06-.07.11-.07.13-.07.03,0,.06.01.1.03.3.17.68.98.96,2.11-.15-.27-.33-.46-.53-.55-.08-.04-.17-.06-.25-.06-.33,0-.59.28-.77.79Z"/>
    <path class="cls-18" d="M60.7,9.01c-1.01-.7-2.54-1.23-4.12-1.41-.37-.04-.73-.06-1.08-.06-1.3,0-2.39.28-3.01.75.02-.2.1-.36.24-.51.46-.5,1.46-.8,2.67-.8.29,0,.59.02.9.05,1.88.22,3.69,1.05,4.39,1.97Z"/>
    <path class="cls-18" d="M71.01,11.42c-.81-.54-1.75-1.01-2.65-1.31-.69-.23-1.33-.35-1.87-.35s-.98.13-1.22.36c-.07-.19-.11-.43,0-.6.13-.2.44-.3.88-.3s.96.1,1.53.3c1.16.39,2.42,1.12,3.33,1.9Z"/>
    <path class="cls-18" d="M54.42,13.1c-.98-1.04-2.83-1.72-4.84-1.75-1.99,0-3.81.65-4.79,1.66v-.12s-.12.11-.12.11c.29-1.5,2.37-2.69,4.79-2.69h.11c2.48.02,4.58,1.21,4.93,2.7l-.04-.05-.03.14Z"/>
    <path class="cls-18" d="M68.1,14.9c-1.05-1.07-2.7-1.92-4.37-2.25-.43-.08-.86-.12-1.26-.12-1.26,0-2.27.37-2.8,1.01l-.04-.13-.1.12c-.06-.47.06-.9.34-1.23.43-.52,1.25-.81,2.23-.81.35,0,.72.04,1.09.11l.12.02c2.01.39,4.01,1.75,4.77,3.17l.02.1Z"/>
    <path class="cls-18" d="M62.55,20.09c-1.12-1.36-3.07-2.3-5.14-2.46-.2-.02-.4-.02-.59-.02-1.91,0-3.6.72-4.47,1.88.01-.8.32-1.53.9-2.13.81-.83,2.06-1.31,3.45-1.31.16,0,.33,0,.49.02,2.56.2,4.89,1.98,5.37,4.02Z"/>
    <path class="cls-18" d="M75.46,22.26c-1.01-1.21-2.47-2.15-3.94-2.5-.42-.1-.82-.15-1.21-.15-1.19,0-2.13.47-2.61,1.27-.12-.81.04-1.49.45-1.98.4-.48,1.04-.75,1.81-.75.31,0,.65.04.99.13,1.85.47,3.75,2.18,4.52,3.99Z"/>
    <path class="cls-18" d="M27.98,11.14c.93-.8,2.22-1.53,3.43-1.91.57-.18,1.1-.27,1.54-.27.49,0,.85.12,1,.34.1.15.11.35.02.59-.27-.25-.73-.39-1.34-.39-.54,0-1.19.11-1.86.32-.95.3-1.94.77-2.78,1.32Z"/>
    <path class="cls-18" d="M78.06,17.91c-.81-.81-1.79-1.5-2.72-1.9-.54-.22-1.02-.33-1.45-.33-.57,0-.99.2-1.21.56l-.06-.13-.04.09c-.17-.52-.17-.95,0-1.2.18-.25.49-.31.73-.31.33,0,.74.1,1.19.29l.09.04c1.24.54,2.59,1.69,3.47,2.89Z"/>
    <path class="cls-18" d="M35.89,20.07c.47-2.05,2.8-3.82,5.37-4.02.16-.01.32-.02.48-.02,1.39,0,2.66.48,3.47,1.32.58.6.9,1.33.91,2.13-.88-1.16-2.58-1.88-4.5-1.88-.19,0-.38,0-.58.02-2.08.15-4.03,1.09-5.15,2.45Z"/>
    <path class="cls-18" d="M30.59,14.69c.76-1.42,2.76-2.77,4.77-3.15l.12-.02c.39-.07.75-.11,1.09-.11,1.01,0,1.85.3,2.3.83.29.34.41.76.36,1.23l-.06-.07-.06.11c-.54-.67-1.59-1.06-2.89-1.06-.4,0-.81.04-1.23.11-1.69.32-3.36,1.17-4.41,2.24l.02-.11Z"/>
    <path class="cls-18" d="M81.28,55.77c.44-2.36,1.8-4.3,3.19-4.45.05,0,.1,0,.14,0,.37,0,.7.16.98.48.51.58.77,1.62.72,2.8-.32-.81-.95-1.3-1.73-1.3-.11,0-.22,0-.33.03-1.09.18-2.19,1.11-2.96,2.45Z"/>
    <path class="cls-18" d="M22.62,22.29c.77-1.8,2.66-3.51,4.5-3.98.35-.09.68-.13.99-.13.77,0,1.38.26,1.79.74.41.49.56,1.18.44,1.98-.48-.8-1.41-1.26-2.59-1.26-.39,0-.8.05-1.21.15-1.46.35-2.92,1.29-3.92,2.5Z"/>
    <path class="cls-18" d="M15.86,30.78c.64-1.98,2.15-3.77,3.64-4.21.24-.07.47-.1.69-.1.54,0,1,.21,1.35.61.51.59.72,1.55.6,2.67-.44-.94-1.29-1.5-2.34-1.5-.27,0-.56.04-.84.11-1.16.3-2.29,1.21-3.09,2.42Z"/>
    <path class="cls-18" d="M20.41,17.8c.89-1.22,2.27-2.39,3.53-2.92l.09-.03c.47-.2.87-.3,1.21-.3.25,0,.59.06.77.32.18.26.19.68.02,1.19l-.02-.05-.08.12c-.22-.38-.67-.59-1.26-.59-.43,0-.92.11-1.46.32-.96.4-1.97,1.11-2.8,1.94Z"/>
    <path class="cls-18" d="M14.5,24.92c.74-1.31,1.8-2.5,2.71-2.98.29-.15.54-.23.77-.23s.41.08.53.25c.25.33.28.97.08,1.77-.2-.47-.6-.73-1.13-.73-.31,0-.66.09-1.03.28-.65.32-1.33.91-1.93,1.65Z"/>
    <g>
      <path class="cls-19" d="M20.33,65.31c-.22,0-.44-.03-.68-.1-1.52-.43-3.04-2.24-3.67-4.25.8,1.22,1.96,2.14,3.14,2.44.28.07.56.11.83.11,1.07,0,1.95-.57,2.4-1.53.11,1.13-.11,2.11-.63,2.71-.36.41-.84.63-1.39.63h0Z"/>
      <path class="cls-19" d="M18.05,70.16c-.22,0-.48-.07-.77-.22-.94-.48-2.02-1.71-2.77-3.05.62.76,1.32,1.37,2,1.69.37.18.72.27,1.03.27.55,0,.96-.27,1.17-.76.19.81.16,1.46-.1,1.8-.13.17-.32.26-.56.26t0,0Z"/>
      <path class="cls-19" d="M42.03,75.75c-.15,0-.3,0-.46-.02-2.59-.19-4.93-1.98-5.39-4.05,1.12,1.37,3.08,2.32,5.18,2.46.18.01.37.02.55.02,1.94,0,3.67-.74,4.57-1.92-.02.81-.34,1.56-.94,2.17-.83.85-2.11,1.34-3.51,1.34h0Z"/>
      <path class="cls-19" d="M28.29,73.66c-.31,0-.64-.04-.98-.13-1.87-.47-3.78-2.2-4.54-4.03,1.01,1.22,2.48,2.17,3.97,2.52.41.1.81.14,1.2.14,1.21,0,2.17-.48,2.66-1.3.11.82-.05,1.52-.47,2.02-.41.49-1.06.77-1.84.77h0Z"/>
      <path class="cls-19" d="M33.18,67.71c-.19,0-.39-.01-.59-.04-2.48-.3-4.75-2.47-5.23-4.93,1.08,1.57,2.93,2.68,4.91,2.9.23.02.47.04.69.04,1.87,0,3.45-.82,4.25-2.18.04,1.16-.33,2.21-1.06,2.98-.74.79-1.8,1.23-2.97,1.23h0Z"/>
      <path class="cls-19" d="M12.27,62.27c-.11,0-.23-.04-.37-.12-.61-.35-1.31-1.44-1.81-2.73.37.57.77.99,1.17,1.2.2.1.39.16.57.16.45,0,.79-.31.98-.85.16,1.2,0,1.91-.23,2.19-.09.11-.19.16-.32.16h0Z"/>
      <path class="cls-19" d="M49.29,68.63c-2.97,0-5.48-2.15-5.67-4.84,1.12,1.67,3.28,2.72,5.67,2.72,2.4,0,4.55-1.06,5.68-2.72-.2,2.68-2.7,4.84-5.68,4.85h0Z"/>
      <path class="cls-19" d="M49.21,87.54c-1.6,0-2.97-.35-3.57-.76.86.36,2.17.58,3.57.58,1.36,0,2.62-.21,3.49-.54-.66.4-1.96.71-3.46.72h-.02Z"/>
      <path class="cls-19" d="M39.55,86.56c-.49,0-1.08-.07-1.7-.21-.81-.18-1.64-.45-2.35-.76.61.22,1.25.42,1.9.55.72.15,1.41.24,2,.24.44,0,.99-.05,1.35-.24,0,.06-.01.1-.03.13-.05.07-.27.29-1.15.29h0Z"/>
      <path class="cls-19" d="M73.64,77.07c-.23,0-.54-.05-.72-.3-.18-.26-.18-.69-.02-1.21.22.36.64.56,1.21.56.44,0,.93-.12,1.48-.35.86-.36,1.76-.99,2.54-1.73-.88,1.15-2.16,2.23-3.33,2.74-.44.19-.84.29-1.17.29h0Z"/>
      <path class="cls-19" d="M80.41,70.04c-.23,0-.4-.08-.53-.25-.25-.34-.28-.98-.09-1.79.21.47.6.74,1.13.74.31,0,.65-.09,1.01-.27.64-.32,1.33-.91,1.93-1.65-.74,1.32-1.78,2.52-2.7,3-.28.15-.54.22-.75.22h0Z"/>
      <path class="cls-19" d="M58.87,86.51c-.86,0-1.07-.21-1.11-.28-.02-.03-.04-.07-.03-.13.35.19.89.24,1.31.24.59,0,1.28-.08,2.01-.25.62-.14,1.24-.32,1.82-.54-.7.3-1.5.57-2.28.74-.63.14-1.23.22-1.72.22h0Z"/>
      <path class="cls-19" d="M62.08,87s.02-.01.04-.02c-.01,0-.03,0-.04.02Z"/>
      <path class="cls-19" d="M57.04,75.68c-1.37,0-2.62-.48-3.42-1.31-.58-.6-.9-1.35-.91-2.16.87,1.17,2.52,1.88,4.46,1.88.2,0,.4,0,.61-.02,2.07-.16,4.02-1.11,5.14-2.48-.48,2.07-2.81,3.86-5.37,4.07-.17.02-.34.02-.51.02Z"/>
      <path class="cls-19" d="M77.82,65.32c-.56,0-1.04-.22-1.4-.63-.52-.6-.74-1.58-.63-2.71.46.96,1.33,1.54,2.41,1.54.27,0,.55-.04.83-.11,1.19-.3,2.34-1.21,3.14-2.44-.63,2-2.16,3.82-3.68,4.25-.23.07-.46.1-.68.1h0Z"/>
      <path class="cls-19" d="M65.35,67.67c-1.16,0-2.2-.43-2.94-1.22-.72-.77-1.09-1.82-1.04-2.98.8,1.35,2.36,2.16,4.21,2.16.23,0,.46-.01.7-.04,1.97-.22,3.81-1.33,4.88-2.89-.49,2.45-2.75,4.62-5.21,4.93-.2.02-.4.04-.6.04h0Z"/>
      <path class="cls-19" d="M70.3,73.56c-.76,0-1.38-.26-1.79-.74-.42-.5-.57-1.19-.45-2.02.48.81,1.42,1.28,2.6,1.28.38,0,.79-.05,1.2-.15,1.46-.35,2.91-1.3,3.91-2.51-.77,1.82-2.65,3.54-4.49,4.01-.34.09-.67.13-.98.13h0Z"/>
      <path class="cls-19" d="M85.9,62.28c-.12,0-.23-.05-.32-.16-.23-.28-.39-.99-.23-2.19.19.54.54.85.99.85.18,0,.37-.05.57-.16.4-.21.81-.64,1.18-1.21-.5,1.3-1.2,2.39-1.82,2.74-.13.08-.26.12-.37.12h0Z"/>
      <path class="cls-19" d="M49.74,81.52c-2.4,0-4.46-1.19-4.76-2.69.99,1,2.8,1.63,4.77,1.63,2.06-.02,3.9-.67,4.93-1.7-.35,1.52-2.46,2.74-4.88,2.76h-.06Z"/>
      <path class="cls-19" d="M44.14,85.05c-.23,0-.47,0-.72-.03-1.92-.17-3.78-1.02-4.43-1.95,1.01.71,2.58,1.23,4.22,1.38.3.02.58.04.86.04,1.41,0,2.63-.32,3.32-.84-.03.2-.13.37-.28.53-.52.54-1.66.89-2.97.89h0Z"/>
      <path class="cls-19" d="M36.64,80.44c-.34,0-.69-.03-1.05-.1-2.03-.37-4.04-1.72-4.79-3.16,1.08,1.02,2.7,1.82,4.35,2.11.43.07.86.11,1.27.11,1.31,0,2.37-.39,2.93-1.05.04.47-.09.9-.38,1.24-.46.54-1.31.85-2.34.85Z"/>
      <path class="cls-19" d="M32.97,82.98c-.43,0-.96-.09-1.52-.27-1.28-.4-2.64-1.19-3.56-2.02.87.59,1.92,1.1,2.92,1.41.67.2,1.31.31,1.85.31.63,0,1.1-.14,1.38-.41.08.25.07.46-.03.62-.16.23-.52.36-1.03.36h0Z"/>
      <path class="cls-19" d="M62.76,80.22c-.96,0-1.73-.28-2.16-.79-.28-.34-.4-.76-.34-1.24.53.63,1.52,1,2.74,1,.43,0,.88-.05,1.34-.13,1.59-.31,3.17-1.11,4.24-2.12-.79,1.43-2.75,2.78-4.72,3.17-.38.08-.75.12-1.11.12h0Z"/>
      <path class="cls-19" d="M55.58,84.9c-1.21,0-2.21-.3-2.67-.81-.15-.17-.24-.35-.25-.54.62.49,1.71.78,3.02.78.35,0,.72-.02,1.09-.06,1.58-.18,3.12-.72,4.14-1.44-.71.94-2.52,1.8-4.42,2.02-.31.04-.62.05-.91.05h0Z"/>
      <path class="cls-19" d="M66.36,82.64c-.44,0-.75-.11-.89-.31-.12-.18-.08-.43,0-.63.25.24.67.37,1.23.37s1.18-.12,1.86-.35c.91-.3,1.86-.78,2.69-1.34-.91.8-2.18,1.55-3.36,1.95-.57.19-1.1.3-1.52.3h0Z"/>
      <path class="cls-19" d="M25.24,77.34c-.34,0-.74-.1-1.19-.28-1.23-.52-2.57-1.63-3.46-2.82.81.77,1.78,1.43,2.69,1.79.55.22,1.06.33,1.5.33.6,0,1.05-.21,1.29-.58.16.52.15.95-.04,1.22-.2.27-.54.33-.8.33h0Z"/>
    </g>
  </g>
</svg>