<?xml version="1.0" encoding="UTF-8"?>
<svg id="Lager_1" data-name="Lager 1" xmlns="http://www.w3.org/2000/svg" width="50.5" height="44.53" xmlns:xlink="http://www.w3.org/1999/xlink" viewBox="0 0 50.5 44.53">
  <defs>
    <style>
      .cls-1 {
        fill: url(#Namnlös_övertoning_47-7);
      }

      .cls-1, .cls-2, .cls-3, .cls-4, .cls-5, .cls-6, .cls-7, .cls-8, .cls-9, .cls-10, .cls-11, .cls-12, .cls-13, .cls-14, .cls-15, .cls-16, .cls-17 {
        stroke: #1d1d1b;
        stroke-miterlimit: 10;
      }

      .cls-1, .cls-2, .cls-3, .cls-4, .cls-5, .cls-6, .cls-7, .cls-10, .cls-11, .cls-12, .cls-13, .cls-14, .cls-16, .cls-17 {
        stroke-width: .25px;
      }

      .cls-2 {
        fill: url(#Namnlös_övertoning_47-3);
      }

      .cls-3 {
        fill: url(#Namnlös_övertoning_47-12);
      }

      .cls-4 {
        fill: url(#Namnlös_övertoning_47-13);
      }

      .cls-5 {
        fill: url(#Namnlös_övertoning_47);
      }

      .cls-6 {
        fill: url(#Namnlös_övertoning_47-8);
      }

      .cls-7 {
        fill: url(#Namnlös_övertoning_47-4);
      }

      .cls-8 {
        fill: url(#Namnlös_övertoning_47-9);
      }

      .cls-8, .cls-9, .cls-15 {
        stroke-width: .5px;
      }

      .cls-9 {
        fill: url(#Namnlös_övertoning_47-2);
      }

      .cls-10, .cls-15 {
        fill: #23577a;
      }

      .cls-11 {
        fill: url(#Namnlös_övertoning_47-6);
      }

      .cls-12 {
        fill: url(#Namnlös_övertoning_47-5);
      }

      .cls-13 {
        fill: #13597e;
      }

      .cls-14 {
        fill: url(#Namnlös_övertoning_47-14);
      }

      .cls-18 {
        fill: #01513c;
      }

      .cls-18, .cls-19, .cls-20 {
        stroke-width: 0px;
      }

      .cls-19 {
        fill: #fff;
      }

      .cls-16 {
        fill: url(#Namnlös_övertoning_47-11);
      }

      .cls-20 {
        fill: url(#Namnlös_övertoning_84);
      }

      .cls-17 {
        fill: url(#Namnlös_övertoning_47-10);
      }
    </style>
    <linearGradient id="Namnlös_övertoning_47" data-name="Namnlös övertoning 47" x1="9.89" y1="40.46" x2="37.67" y2="12.55" gradientTransform="translate(25.76 -8.93) rotate(45)" gradientUnits="userSpaceOnUse">
      <stop offset="0" stop-color="#cecece"/>
      <stop offset=".15" stop-color="#c8c8c8"/>
      <stop offset=".34" stop-color="#b8b8b8"/>
      <stop offset=".55" stop-color="#9e9d9d"/>
      <stop offset=".78" stop-color="#797978"/>
      <stop offset="1" stop-color="#504f4e"/>
    </linearGradient>
    <linearGradient id="Namnlös_övertoning_47-2" data-name="Namnlös övertoning 47" x1=".63" y1="41.92" x2="7.12" y2="41.92" gradientTransform="matrix(1,0,0,1,0,0)" xlink:href="#Namnlös_övertoning_47"/>
    <linearGradient id="Namnlös_övertoning_47-3" data-name="Namnlös övertoning 47" x1="45.25" y1="6.53" x2="43.77" y2="4.91" gradientTransform="matrix(1,0,0,1,0,0)" xlink:href="#Namnlös_övertoning_47"/>
    <linearGradient id="Namnlös_övertoning_47-4" data-name="Namnlös övertoning 47" x1="1.58" y1="42.07" x2="3.59" y2="42.07" gradientTransform="matrix(1,0,0,1,0,0)" xlink:href="#Namnlös_övertoning_47"/>
    <linearGradient id="Namnlös_övertoning_47-5" data-name="Namnlös övertoning 47" x1=".77" y1="41.31" x2="2.49" y2="41.31" gradientTransform="matrix(1,0,0,1,0,0)" xlink:href="#Namnlös_övertoning_47"/>
    <linearGradient id="Namnlös_övertoning_47-6" data-name="Namnlös övertoning 47" x1="2.94" y1="42.75" x2="4.67" y2="42.75" gradientTransform="matrix(1,0,0,1,0,0)" xlink:href="#Namnlös_övertoning_47"/>
    <linearGradient id="Namnlös_övertoning_47-7" data-name="Namnlös övertoning 47" x1="4.64" y1="43.2" x2="5.79" y2="43.2" gradientTransform="matrix(1,0,0,1,0,0)" xlink:href="#Namnlös_övertoning_47"/>
    <linearGradient id="Namnlös_övertoning_47-8" data-name="Namnlös övertoning 47" x1="40.35" y1="40.11" x2="12.2" y2="12.01" gradientTransform="translate(26.69 -11.18) rotate(45)" xlink:href="#Namnlös_övertoning_47"/>
    <linearGradient id="Namnlös_övertoning_47-9" data-name="Namnlös övertoning 47" x1="49.92" y1="41.91" x2="43.43" y2="41.95" gradientTransform="matrix(1,0,0,1,0,0)" xlink:href="#Namnlös_övertoning_47"/>
    <linearGradient id="Namnlös_övertoning_47-10" data-name="Namnlös övertoning 47" x1="5.28" y1="6.42" x2="6.84" y2="4.9" gradientTransform="matrix(1,0,0,1,0,0)" xlink:href="#Namnlös_övertoning_47"/>
    <linearGradient id="Namnlös_övertoning_47-11" data-name="Namnlös övertoning 47" x1="48.92" y1="42.07" x2="46.91" y2="42.07" gradientTransform="matrix(1,0,0,1,0,0)" xlink:href="#Namnlös_övertoning_47"/>
    <linearGradient id="Namnlös_övertoning_47-12" data-name="Namnlös övertoning 47" x1="49.73" y1="41.31" x2="48.01" y2="41.31" gradientTransform="matrix(1,0,0,1,0,0)" xlink:href="#Namnlös_övertoning_47"/>
    <linearGradient id="Namnlös_övertoning_47-13" data-name="Namnlös övertoning 47" x1="47.56" y1="42.75" x2="45.83" y2="42.75" gradientTransform="matrix(1,0,0,1,0,0)" xlink:href="#Namnlös_övertoning_47"/>
    <linearGradient id="Namnlös_övertoning_47-14" data-name="Namnlös övertoning 47" x1="45.86" y1="43.2" x2="44.71" y2="43.2" gradientTransform="matrix(1,0,0,1,0,0)" xlink:href="#Namnlös_övertoning_47"/>
    <radialGradient id="Namnlös_övertoning_84" data-name="Namnlös övertoning 84" cx="24.91" cy="23.31" fx="24.91" fy="-15.67" r="38.98" gradientTransform="translate(0 2.55) scale(1 .89)" gradientUnits="userSpaceOnUse">
      <stop offset=".44" stop-color="#fff"/>
      <stop offset=".5" stop-color="#fbfcfc"/>
      <stop offset=".55" stop-color="#f0f4f3"/>
      <stop offset=".59" stop-color="#dde8e5"/>
      <stop offset=".64" stop-color="#c3d6d1"/>
      <stop offset=".68" stop-color="#a1bfb7"/>
      <stop offset=".73" stop-color="#78a398"/>
      <stop offset=".77" stop-color="#478172"/>
      <stop offset=".82" stop-color="#105b48"/>
      <stop offset=".83" stop-color="#00513c"/>
    </radialGradient>
  </defs>
  <g>
    <rect class="cls-5" x="3.51" y="26.18" width="40.3" height=".88" transform="translate(-11.9 24.53) rotate(-45)"/>
    <path class="cls-10" d="M41.34,10.61l8.54-8.54c.37-.37.37-.96,0-1.33l-.34-.34c-.37-.37-.96-.37-1.33,0l-8.54,8.54,1.67,1.67Z"/>
    <polygon class="cls-10" points="38.22 12.69 41.34 10.61 39.67 8.94 37.59 12.06 38.22 12.69"/>
    <path class="cls-15" d="M1.74,39.33c2.13.31,4.26,3.92,5.9,2.28l1.43-1.43,1.03,1.03-1.43,1.43c-2.87,2.87-6.78,1.32-7.81.29-1.08-1.08-.71-3.83.88-3.6Z"/>
    <path class="cls-9" d="M4.83,43.91c-1.7,0-3.21-.74-3.73-1.27-.46-.46-.6-1.5-.3-2.22.13-.33.32-.49.54-.49.03,0,.06,0,.1,0,.75.11,1.62.78,2.45,1.42,1.04.8,2.02,1.56,3.09,1.56.59,0-.68.99-2.14.99Z"/>
    <path class="cls-2" d="M47.36,1.25l.36-.36,1.67,1.67-.36.36-1.67-1.67ZM47.75,4.2l.36-.36-1.67-1.67-.36.36,1.67,1.67ZM46.47,5.48l.36-.36-1.67-1.67-.36.36,1.67,1.67ZM45.18,6.76l.36-.36-1.67-1.67-.36.36,1.67,1.67ZM43.9,8.05l.36-.36-1.67-1.67-.36.36,1.67,1.67ZM42.62,9.33l.36-.36-1.67-1.67-.36.36,1.67,1.67ZM41.34,10.61l.36-.36-1.67-1.67-.36.36,1.67,1.67Z"/>
    <g>
      <path class="cls-7" d="M1.91,43.2c.9-.52,1.39-1.11,1.68-2.06-.09-.07-.17-.13-.26-.19-.26.92-.99,1.68-1.75,2.06.1.06.21.13.33.19Z"/>
      <path class="cls-12" d="M2.22,40.22c-.23.79-.81,1.45-1.45,1.86.04.11.08.21.14.3.84-.5,1.31-1.09,1.58-2.02-.09-.05-.18-.1-.27-.15Z"/>
      <path class="cls-11" d="M4.67,41.96c-.09-.06-.17-.13-.26-.19-.24.79-.83,1.45-1.47,1.85.14.04.28.08.43.11.66-.45,1.06-.99,1.31-1.77Z"/>
      <path class="cls-1" d="M5.79,42.64c-.09-.04-.18-.09-.27-.14-.16.54-.48,1.02-.88,1.4.06,0,.13,0,.19,0,.1,0,.21,0,.31-.02.3-.34.51-.75.66-1.26Z"/>
    </g>
  </g>
  <g>
    <rect class="cls-6" x="26.4" y="6.47" width=".88" height="40.3" transform="translate(-10.96 26.78) rotate(-45)"/>
    <path class="cls-10" d="M9.16,10.61L.62,2.07c-.37-.37-.37-.96,0-1.33l.34-.34C1.32.03,1.92.03,2.29.4l8.54,8.54-1.67,1.67Z"/>
    <polygon class="cls-13" points="12.28 12.69 9.16 10.61 10.83 8.94 12.91 12.06 12.28 12.69"/>
    <path class="cls-15" d="M48.76,39.33c-2.13.31-4.26,3.92-5.9,2.28l-1.43-1.43-1.03,1.03,1.43,1.43c2.87,2.87,6.78,1.32,7.81.29,1.08-1.08.71-3.83-.88-3.6Z"/>
    <path class="cls-8" d="M45.67,43.91c1.7,0,3.21-.74,3.73-1.27.46-.46.6-1.5.3-2.22-.13-.33-.32-.49-.54-.49-.03,0-.06,0-.1,0-.75.11-1.62.78-2.45,1.42-1.04.8-2.02,1.56-3.09,1.56-.59,0,.68.99,2.14.99Z"/>
    <path class="cls-17" d="M1.47,2.92l-.36-.36,1.67-1.67.36.36-1.67,1.67ZM4.42,2.53l-.36-.36-1.67,1.67.36.36,1.67-1.67ZM5.7,3.82l-.36-.36-1.67,1.67.36.36,1.67-1.67ZM6.98,5.1l-.36-.36-1.67,1.67.36.36,1.67-1.67ZM8.26,6.38l-.36-.36-1.67,1.67.36.36,1.67-1.67ZM9.55,7.66l-.36-.36-1.67,1.67.36.36,1.67-1.67ZM10.83,8.94l-.36-.36-1.67,1.67.36.36,1.67-1.67Z"/>
    <g>
      <path class="cls-16" d="M48.59,43.2c-.9-.52-1.39-1.11-1.68-2.06.09-.07.17-.13.26-.19.26.92.99,1.68,1.75,2.06-.1.06-.21.13-.33.19Z"/>
      <path class="cls-3" d="M48.28,40.22c.23.79.81,1.45,1.45,1.86-.04.11-.08.21-.14.3-.84-.5-1.31-1.09-1.58-2.02.09-.05.18-.1.27-.15Z"/>
      <path class="cls-4" d="M45.83,41.96c.09-.06.17-.13.26-.19.24.79.83,1.45,1.47,1.85-.14.04-.28.08-.43.11-.66-.45-1.06-.99-1.31-1.77Z"/>
      <path class="cls-14" d="M44.71,42.64c.09-.04.18-.09.27-.14.16.54.48,1.02.88,1.4-.06,0-.13,0-.19,0-.1,0-.21,0-.31-.02-.3-.34-.51-.75-.66-1.26Z"/>
    </g>
  </g>
  <g>
    <circle class="cls-20" cx="24.91" cy="23.31" r="21.04"/>
    <path class="cls-18" d="M4.8,26.5c-.13-.27-.28-.47-.43-.54-.03-.01-.06-.02-.09-.02-.05,0-.11.02-.15.07-.01.01-.02.03-.03.05-.02-.45.03-.76.11-.85.18.04.42.55.59,1.3Z"/>
    <path class="cls-18" d="M10.37,23.83c-.39-.75-1.05-1.22-1.75-1.22-.62,0-1.16.41-1.46,1.03.07-1.16.7-2.09,1.47-2.13h.06c.86,0,1.59,1.02,1.68,2.32Z"/>
    <path class="cls-18" d="M9.89,19.27c.19-1.26,1.11-2.35,2.15-2.48.07,0,.14-.01.22-.01.46,0,.87.18,1.2.52.41.43.63,1.07.62,1.78-.38-.72-1.11-1.18-1.94-1.18-.08,0-.15,0-.23.01-.83.08-1.58.6-2.01,1.36Z"/>
    <path class="cls-18" d="M4.88,19.77c-.08-.23-.2-.35-.34-.35-.04,0-.08.01-.12.03-.07.04-.14.11-.21.21.13-.52.3-.9.42-.98.02,0,.03-.01.04-.01,0,0,.02,0,.04.02.1.11.18.48.16,1.08Z"/>
    <path class="cls-18" d="M5.65,23.45c-.21-.49-.51-.78-.82-.78-.24,0-.45.19-.59.51.08-.81.35-1.36.61-1.39h0c.34,0,.7.63.8,1.66Z"/>
    <path class="cls-18" d="M38.96,19.24c-.44-.78-1.23-1.31-2.09-1.39-.08,0-.15-.01-.23-.01-.86,0-1.62.46-2.02,1.2,0-.71.22-1.36.63-1.79.34-.36.78-.55,1.27-.55.07,0,.14,0,.21.01,1.08.13,2.04,1.23,2.22,2.52Z"/>
    <path class="cls-18" d="M41.09,15.41c-.41-.62-.99-1.08-1.59-1.23-.15-.04-.29-.05-.43-.05-.54,0-.98.29-1.21.76-.06-.56.05-1.04.31-1.34.18-.21.42-.32.71-.32.11,0,.23.02.35.05.77.22,1.55,1.13,1.86,2.13Z"/>
    <path class="cls-18" d="M35.34,14.5c-.54-.78-1.47-1.34-2.47-1.44-.12-.01-.23-.02-.35-.02-.94,0-1.73.41-2.14,1.08-.02-.57.17-1.09.53-1.48.37-.4.91-.62,1.5-.62.1,0,.2,0,.3.02,1.25.15,2.39,1.23,2.63,2.45Z"/>
    <path class="cls-18" d="M41.94,12.51c-.3-.37-.65-.67-.98-.83-.19-.09-.36-.14-.52-.14-.27,0-.47.13-.57.37-.1-.4-.08-.72.04-.89.06-.08.15-.13.27-.13s.24.04.38.11c.46.24,1,.84,1.37,1.5Z"/>
    <path class="cls-18" d="M21.75,13.99c.1-1.33,1.35-2.4,2.83-2.4,1.48,0,2.73,1.07,2.83,2.4-.56-.83-1.64-1.35-2.83-1.35-1.2,0-2.27.53-2.83,1.35Z"/>
    <path class="cls-18" d="M31.81,18.94c-.55-.91-1.62-1.5-2.82-1.54h-.1c-1.19,0-2.25.56-2.78,1.45.01-.72.29-1.39.79-1.89.51-.52,1.21-.8,1.95-.8h.1c1.5.05,2.76,1.29,2.87,2.78Z"/>
    <path class="cls-18" d="M17.04,18.95c.11-1.48,1.37-2.71,2.84-2.77h.11c.73,0,1.41.28,1.92.79.49.5.77,1.17.78,1.89-.53-.88-1.58-1.44-2.75-1.44h-.11c-1.18.04-2.24.63-2.79,1.54Z"/>
    <path class="cls-18" d="M13.67,14.54c.25-1.22,1.38-2.29,2.6-2.45.1-.01.21-.02.31-.02.58,0,1.1.21,1.46.61.35.38.54.9.52,1.47-.4-.67-1.17-1.07-2.09-1.07-.12,0-.24,0-.36.02-.98.11-1.9.66-2.44,1.44Z"/>
    <path class="cls-18" d="M7.81,27.77c-.35-.63-.84-1.07-1.32-1.16-.05,0-.11-.01-.16-.01-.34,0-.6.22-.75.58-.02-.58.09-1.07.33-1.34.11-.13.25-.2.39-.2.02,0,.04,0,.06,0,.6.08,1.21,1.01,1.44,2.12Z"/>
    <path class="cls-18" d="M5.63,19.59c.2-.94.7-1.73,1.22-1.87.06-.01.11-.02.16-.02.17,0,.32.07.46.22.28.3.43.87.42,1.54-.21-.51-.58-.82-1.02-.82-.07,0-.13,0-.2.02-.4.08-.77.43-1.03.93Z"/>
    <path class="cls-18" d="M5.17,16.24c.25-.63.59-1.16.89-1.34.07-.04.13-.06.18-.06.06,0,.11.02.15.08.11.14.19.48.1,1.07-.09-.26-.26-.41-.47-.41-.09,0-.19.03-.29.08-.19.1-.38.3-.56.58Z"/>
    <path class="cls-18" d="M27.2,24.09c-.56-.96-1.7-1.56-2.98-1.56-1.28,0-2.41.6-2.97,1.56.02-.77.32-1.48.86-2.03.56-.56,1.31-.88,2.1-.88.8,0,1.55.31,2.11.88.55.55.85,1.27.87,2.04Z"/>
    <path class="cls-18" d="M34.24,28.85c.16-1.43,1.26-2.63,2.5-2.7.03,0,.06,0,.09,0,.48,0,.92.2,1.25.56.38.42.57,1.02.54,1.67-.31-.64-.97-1.05-1.77-1.05-.06,0-.13,0-.19,0-.96.07-1.89.67-2.42,1.51Z"/>
    <path class="cls-18" d="M22.37,29.22c-.57-.9-1.69-1.5-2.9-1.54h-.11c-1.13,0-2.1.51-2.56,1.32-.02-.69.22-1.33.68-1.82.48-.51,1.16-.8,1.89-.8h.05c1.57.03,2.86,1.29,2.93,2.83Z"/>
    <path class="cls-18" d="M17.94,24.05c-.53-.91-1.55-1.49-2.65-1.49-1.06,0-1.96.54-2.41,1.38.05-1.45,1.11-2.63,2.42-2.66h.05c1.39,0,2.53,1.23,2.59,2.77Z"/>
    <path class="cls-18" d="M30.32,24.06c.05-1.56,1.24-2.81,2.68-2.81h.05c1.37.03,2.48,1.23,2.52,2.71-.47-.86-1.41-1.41-2.5-1.41-1.14,0-2.2.6-2.74,1.52Z"/>
    <path class="cls-18" d="M25.75,29.23c.05-1.54,1.36-2.8,2.95-2.83h0c.8,0,1.5.29,2.01.82.47.49.72,1.14.71,1.83-.48-.83-1.49-1.36-2.66-1.36h-.08c-1.22.03-2.36.63-2.92,1.53Z"/>
    <path class="cls-18" d="M13.89,28.73c-.51-.82-1.39-1.4-2.28-1.48-.07,0-.13,0-.2,0-.73,0-1.33.38-1.62.99-.03-.65.15-1.24.51-1.64.3-.33.68-.5,1.11-.5.03,0,.06,0,.1,0,1.16.07,2.2,1.24,2.37,2.64Z"/>
    <path class="cls-18" d="M19.6,4.45c.35-.46,1.25-.86,2.18-.94.13-.01.25-.02.37-.02.65,0,1.21.17,1.47.43.08.08.12.17.14.26-.34-.26-.94-.41-1.64-.41-.14,0-.29,0-.44.02-.8.07-1.57.32-2.07.66Z"/>
    <path class="cls-18" d="M38.2,23.86c.09-1.33.87-2.39,1.8-2.39h.06c.84.04,1.52,1.01,1.59,2.2-.31-.65-.9-1.07-1.56-1.08h0c-.78,0-1.48.49-1.89,1.27Z"/>
    <path class="cls-18" d="M44.09,16.21c-.19-.29-.4-.51-.6-.62-.1-.05-.2-.08-.3-.08-.23,0-.4.15-.5.43-.08-.59,0-.95.11-1.09.05-.06.1-.08.16-.08.06,0,.12.02.19.06.31.18.67.73.93,1.38Z"/>
    <path class="cls-18" d="M43.28,23.51c.09-1,.46-1.76.87-1.76.33.03.65.62.74,1.49-.16-.36-.39-.57-.66-.58h0c-.36,0-.7.32-.94.85Z"/>
    <path class="cls-18" d="M44.52,26.72c.19-.84.49-1.41.7-1.47,0,0,0,0,.01,0,.02,0,.03,0,.05.03.1.11.16.45.14.93-.02-.04-.04-.07-.07-.1-.05-.05-.11-.08-.18-.08-.03,0-.06,0-.1.02-.2.08-.4.34-.56.67Z"/>
    <path class="cls-18" d="M43.47,19.57c-.28-.53-.68-.89-1.11-.97-.07-.01-.14-.02-.21-.02-.47,0-.86.32-1.09.85-.01-.68.14-1.25.43-1.57.15-.16.32-.24.51-.24.06,0,.11,0,.17.02.56.14,1.09.96,1.29,1.93Z"/>
    <path class="cls-18" d="M44.63,19.75c-.01-.62.07-1,.19-1.12.03-.04.06-.04.06-.04.01,0,.03,0,.05.02.15.08.34.49.48,1.05-.08-.13-.17-.23-.26-.28-.04-.02-.09-.03-.13-.03-.16,0-.3.14-.39.4Z"/>
    <path class="cls-18" d="M30.48,4.57c-.51-.35-1.27-.62-2.06-.7-.18-.02-.36-.03-.54-.03-.65,0-1.19.14-1.5.38,0-.1.05-.18.12-.25.23-.25.73-.4,1.34-.4.14,0,.3,0,.45.03.94.11,1.84.52,2.2.99Z"/>
    <path class="cls-18" d="M35.63,5.77c-.41-.27-.88-.5-1.33-.65-.34-.11-.67-.17-.94-.17s-.49.06-.61.18c-.04-.09-.06-.21,0-.3.06-.1.22-.15.44-.15s.48.05.77.15c.58.2,1.21.56,1.66.95Z"/>
    <path class="cls-18" d="M27.33,6.61c-.49-.52-1.41-.86-2.42-.87-1,0-1.91.32-2.4.83v-.06s-.06.06-.06.06c.14-.75,1.18-1.35,2.39-1.35h.06c1.24,0,2.29.6,2.46,1.35l-.02-.02-.02.07Z"/>
    <path class="cls-18" d="M34.17,7.51c-.53-.53-1.35-.96-2.19-1.12-.22-.04-.43-.06-.63-.06-.63,0-1.13.19-1.4.51l-.02-.06-.05.06c-.03-.24.03-.45.17-.62.22-.26.62-.41,1.11-.41.17,0,.36.02.54.05h.06c1.01.21,2,.89,2.39,1.6v.05Z"/>
    <path class="cls-18" d="M31.4,10.11c-.56-.68-1.53-1.15-2.57-1.23-.1,0-.2-.01-.3-.01-.95,0-1.8.36-2.24.94,0-.4.16-.77.45-1.06.4-.42,1.03-.66,1.72-.66.08,0,.16,0,.25.01,1.28.1,2.44.99,2.68,2.01Z"/>
    <path class="cls-18" d="M37.85,11.19c-.5-.6-1.23-1.08-1.97-1.25-.21-.05-.41-.07-.61-.07-.59,0-1.06.23-1.31.63-.06-.4.02-.74.22-.99.2-.24.52-.37.9-.37.16,0,.32.02.5.07.93.24,1.87,1.09,2.26,1.99Z"/>
    <path class="cls-18" d="M14.12,5.63c.46-.4,1.11-.77,1.71-.96.28-.09.55-.14.77-.14.25,0,.42.06.5.17.05.07.05.17.01.3-.14-.13-.37-.19-.67-.19-.27,0-.59.05-.93.16-.48.15-.97.38-1.39.66Z"/>
    <path class="cls-18" d="M39.16,9.02c-.41-.4-.9-.75-1.36-.95-.27-.11-.51-.17-.72-.17-.28,0-.49.1-.6.28l-.03-.07-.02.05c-.09-.26-.08-.47,0-.6.09-.13.25-.15.36-.15.17,0,.37.05.59.15l.04.02c.62.27,1.29.84,1.73,1.44Z"/>
    <path class="cls-18" d="M18.07,10.1c.24-1.02,1.4-1.91,2.68-2.01.08,0,.16,0,.24,0,.7,0,1.33.24,1.73.66.29.3.45.67.46,1.07-.44-.58-1.29-.94-2.25-.94-.1,0-.19,0-.29.01-1.04.08-2.01.55-2.58,1.23Z"/>
    <path class="cls-18" d="M15.42,7.41c.38-.71,1.38-1.39,2.39-1.57h.06c.2-.05.37-.06.55-.06.51,0,.92.15,1.15.42.14.17.2.38.18.61l-.03-.04-.03.06c-.27-.33-.8-.53-1.45-.53-.2,0-.4.02-.61.05-.85.16-1.68.58-2.21,1.12v-.05Z"/>
    <path class="cls-18" d="M40.76,27.95c.22-1.18.9-2.15,1.59-2.23.02,0,.05,0,.07,0,.19,0,.35.08.49.24.25.29.38.81.36,1.4-.16-.41-.47-.65-.87-.65-.05,0-.11,0-.17.01-.54.09-1.09.55-1.48,1.23Z"/>
    <path class="cls-18" d="M11.44,11.21c.39-.9,1.33-1.75,2.25-1.99.17-.04.34-.07.5-.07.38,0,.69.13.89.37.21.25.28.59.22.99-.24-.4-.71-.63-1.3-.63-.19,0-.4.02-.61.08-.73.18-1.46.65-1.96,1.25Z"/>
    <path class="cls-18" d="M8.05,15.45c.32-.99,1.07-1.89,1.82-2.1.12-.03.23-.05.34-.05.27,0,.5.11.67.31.25.29.36.78.3,1.33-.22-.47-.65-.75-1.17-.75-.14,0-.28.02-.42.06-.58.15-1.15.6-1.55,1.21Z"/>
    <path class="cls-18" d="M10.33,8.96c.44-.61,1.13-1.19,1.76-1.46l.04-.02c.24-.1.44-.15.61-.15.12,0,.29.03.38.16.09.13.09.34.01.6v-.03s-.05.06-.05.06c-.11-.19-.33-.3-.63-.3-.22,0-.46.05-.73.16-.48.2-.99.56-1.4.97Z"/>
    <path class="cls-18" d="M7.38,12.52c.37-.66.9-1.25,1.36-1.49.14-.07.27-.11.38-.11s.2.04.26.12c.12.17.14.48.04.88-.1-.23-.3-.36-.56-.36-.16,0-.33.05-.52.14-.32.16-.67.46-.97.82Z"/>
    <g>
      <path class="cls-19" d="M10.29,32.72c-.11,0-.22-.02-.34-.05-.76-.21-1.52-1.12-1.84-2.12.4.61.98,1.07,1.57,1.22.14.04.28.05.42.05.53,0,.97-.29,1.2-.77.06.57-.05,1.05-.31,1.35-.18.21-.42.31-.69.31h0Z"/>
      <path class="cls-19" d="M9.15,35.14c-.11,0-.24-.04-.38-.11-.47-.24-1.01-.85-1.38-1.53.31.38.66.69,1,.85.19.09.36.13.51.13.27,0,.48-.14.58-.38.1.41.08.73-.05.9-.06.09-.16.13-.28.13t0,0Z"/>
      <path class="cls-19" d="M21.14,37.94c-.07,0-.15,0-.23,0-1.29-.1-2.47-.99-2.69-2.03.56.69,1.54,1.16,2.59,1.23.09,0,.18,0,.27,0,.97,0,1.84-.37,2.28-.96-.01.41-.17.78-.47,1.09-.41.42-1.05.67-1.76.67h0Z"/>
      <path class="cls-19" d="M14.27,36.89c-.16,0-.32-.02-.49-.06-.94-.23-1.89-1.1-2.27-2.01.5.61,1.24,1.09,1.99,1.26.21.05.41.07.6.07.6,0,1.08-.24,1.33-.65.06.41-.02.76-.23,1.01-.21.25-.53.38-.92.38h0Z"/>
      <path class="cls-19" d="M16.71,33.92c-.1,0-.2,0-.3-.02-1.24-.15-2.37-1.24-2.62-2.47.54.79,1.46,1.34,2.46,1.45.12.01.23.02.35.02.93,0,1.72-.41,2.13-1.09.02.58-.17,1.11-.53,1.49-.37.4-.9.61-1.49.61h0Z"/>
      <path class="cls-19" d="M6.26,31.2c-.05,0-.12-.02-.18-.06-.31-.18-.65-.72-.9-1.37.18.28.39.49.58.6.1.05.2.08.29.08.22,0,.4-.15.49-.43.08.6,0,.95-.12,1.09-.04.05-.1.08-.16.08h0Z"/>
      <path class="cls-19" d="M24.77,34.38c-1.49,0-2.74-1.08-2.83-2.42.56.83,1.64,1.36,2.83,1.36,1.2,0,2.28-.53,2.84-1.36-.1,1.34-1.35,2.42-2.84,2.42h0Z"/>
      <path class="cls-19" d="M24.73,43.83c-.8,0-1.48-.17-1.78-.38.43.18,1.09.29,1.78.29.68,0,1.31-.1,1.74-.27-.33.2-.98.36-1.73.36h-.01Z"/>
      <path class="cls-19" d="M19.9,43.34c-.25,0-.54-.04-.85-.1-.41-.09-.82-.23-1.17-.38.3.11.63.21.95.28.36.08.7.12,1,.12.22,0,.49-.02.67-.12,0,.03,0,.05-.01.06-.02.03-.13.15-.58.15h0Z"/>
      <path class="cls-19" d="M36.94,38.6c-.12,0-.27-.03-.36-.15-.09-.13-.09-.34,0-.61.11.18.32.28.6.28.22,0,.47-.06.74-.17.43-.18.88-.49,1.27-.86-.44.58-1.08,1.12-1.66,1.37-.22.1-.42.15-.58.15h0Z"/>
      <path class="cls-19" d="M40.33,35.08c-.11,0-.2-.04-.26-.12-.13-.17-.14-.49-.05-.9.1.24.3.37.57.37.15,0,.32-.05.51-.14.32-.16.66-.46.96-.82-.37.66-.89,1.26-1.35,1.5-.14.07-.27.11-.38.11h0Z"/>
      <path class="cls-19" d="M29.56,43.32c-.43,0-.54-.11-.56-.14,0-.01-.02-.03-.01-.07.17.1.44.12.65.12.29,0,.64-.04,1.01-.12.31-.07.62-.16.91-.27-.35.15-.75.28-1.14.37-.32.07-.61.11-.86.11h0Z"/>
      <path class="cls-19" d="M31.16,43.56s.01,0,.02,0c0,0-.01,0-.02,0Z"/>
      <path class="cls-19" d="M28.65,37.9c-.69,0-1.31-.24-1.71-.65-.29-.3-.45-.67-.45-1.08.43.59,1.26.94,2.23.94.1,0,.2,0,.31-.01,1.04-.08,2.01-.56,2.57-1.24-.24,1.03-1.41,1.93-2.69,2.04-.09,0-.17.01-.25.01Z"/>
      <path class="cls-19" d="M39.04,32.72c-.28,0-.52-.11-.7-.32-.26-.3-.37-.79-.32-1.36.23.48.67.77,1.2.77.14,0,.27-.02.42-.05.59-.15,1.17-.61,1.57-1.22-.31,1-1.08,1.91-1.84,2.13-.12.03-.23.05-.34.05h0Z"/>
      <path class="cls-19" d="M32.8,33.9c-.58,0-1.1-.22-1.47-.61-.36-.38-.54-.91-.52-1.49.4.67,1.18,1.08,2.11,1.08.11,0,.23,0,.35-.02.98-.11,1.9-.66,2.44-1.45-.25,1.23-1.37,2.31-2.6,2.46-.1.01-.2.02-.3.02h0Z"/>
      <path class="cls-19" d="M35.28,36.84c-.38,0-.69-.13-.89-.37-.21-.25-.29-.6-.23-1.01.24.41.71.64,1.3.64.19,0,.39-.02.6-.07.73-.18,1.46-.65,1.96-1.26-.38.91-1.32,1.77-2.25,2.01-.17.04-.34.06-.49.06h0Z"/>
      <path class="cls-19" d="M43.07,31.2c-.06,0-.11-.03-.16-.08-.12-.14-.2-.5-.12-1.09.1.27.27.43.49.43.09,0,.19-.03.29-.08.2-.1.4-.32.59-.6-.25.65-.6,1.19-.91,1.37-.07.04-.13.06-.18.06h0Z"/>
      <path class="cls-19" d="M25,40.82c-1.2,0-2.23-.59-2.38-1.35.5.5,1.4.81,2.38.81,1.03,0,1.95-.34,2.46-.85-.17.76-1.23,1.37-2.44,1.38h-.03Z"/>
      <path class="cls-19" d="M22.2,42.59c-.12,0-.24,0-.36-.02-.96-.09-1.89-.51-2.22-.98.5.36,1.29.62,2.11.69.15.01.29.02.43.02.7,0,1.32-.16,1.66-.42-.02.1-.06.19-.14.27-.26.27-.83.44-1.48.44h0Z"/>
      <path class="cls-19" d="M18.44,40.28c-.17,0-.34-.02-.52-.05-1.01-.18-2.02-.86-2.4-1.58.54.51,1.35.91,2.17,1.05.22.04.43.06.63.06.65,0,1.18-.19,1.47-.53.02.24-.04.45-.19.62-.23.27-.66.43-1.17.43Z"/>
      <path class="cls-19" d="M16.61,41.55c-.22,0-.48-.05-.76-.13-.64-.2-1.32-.59-1.78-1.01.44.3.96.55,1.46.7.33.1.65.16.92.16.31,0,.55-.07.69-.2.04.13.04.23-.02.31-.08.11-.26.18-.52.18h0Z"/>
      <path class="cls-19" d="M31.51,40.17c-.48,0-.86-.14-1.08-.4-.14-.17-.2-.38-.17-.62.26.32.76.5,1.37.5.22,0,.44-.02.67-.07.8-.15,1.58-.55,2.12-1.06-.39.71-1.38,1.39-2.36,1.59-.19.04-.38.06-.55.06h0Z"/>
      <path class="cls-19" d="M27.91,42.51c-.61,0-1.11-.15-1.34-.4-.08-.08-.12-.17-.13-.27.31.25.85.39,1.51.39.18,0,.36-.01.54-.03.79-.09,1.56-.36,2.07-.72-.35.47-1.26.9-2.21,1.01-.16.02-.31.03-.45.03h0Z"/>
      <path class="cls-19" d="M33.3,41.38c-.22,0-.38-.05-.44-.15-.06-.09-.04-.21,0-.31.12.12.34.19.62.19s.59-.06.93-.17c.46-.15.93-.39,1.34-.67-.46.4-1.09.78-1.68.98-.28.1-.55.15-.76.15h0Z"/>
      <path class="cls-19" d="M12.75,38.73c-.17,0-.37-.05-.59-.14-.62-.26-1.29-.82-1.73-1.41.41.39.89.71,1.35.9.28.11.53.17.75.17.3,0,.53-.1.65-.29.08.26.07.48-.02.61-.1.14-.27.17-.4.17h0Z"/>
    </g>
  </g>
</svg>