<?xml version="1.0" encoding="UTF-8"?>
<svg id="Lager_4" data-name="Lager 4" xmlns="http://www.w3.org/2000/svg" width="1425.28" height="1274" xmlns:xlink="http://www.w3.org/1999/xlink" viewBox="0 0 1425.28 1274">
  <defs>
    <style>
      .cls-1 {
        fill: url(#Namnlös_övertoning_47-7);
      }

      .cls-1, .cls-2, .cls-3, .cls-4, .cls-5, .cls-6, .cls-7, .cls-8, .cls-9, .cls-10, .cls-11, .cls-12, .cls-13, .cls-14, .cls-15, .cls-16, .cls-17, .cls-18 {
        stroke: #1d1d1b;
        stroke-miterlimit: 10;
      }

      .cls-1, .cls-2, .cls-3, .cls-4, .cls-5, .cls-6, .cls-7, .cls-11, .cls-12, .cls-13, .cls-14, .cls-15, .cls-17, .cls-18 {
        stroke-width: .25px;
      }

      .cls-2 {
        fill: url(#Namnlös_övertoning_47-3);
      }

      .cls-3 {
        fill: url(#Namnlös_övertoning_47-12);
      }

      .cls-4 {
        fill: url(#Namnlös_övertoning_47-13);
      }

      .cls-5 {
        fill: url(#Namnlös_övertoning_47);
      }

      .cls-6 {
        fill: url(#Namnlös_övertoning_47-8);
      }

      .cls-7 {
        fill: url(#Namnlös_övertoning_47-4);
      }

      .cls-8 {
        fill: url(#Namnlös_övertoning_47-9);
      }

      .cls-8, .cls-9, .cls-16 {
        stroke-width: .5px;
      }

      .cls-9 {
        fill: url(#Namnlös_övertoning_47-2);
      }

      .cls-10, .cls-19 {
        fill: #fff;
      }

      .cls-11, .cls-16 {
        fill: #23577a;
      }

      .cls-12 {
        fill: url(#Namnlös_övertoning_47-6);
      }

      .cls-13 {
        fill: url(#Namnlös_övertoning_47-5);
      }

      .cls-14 {
        fill: #13597e;
      }

      .cls-15 {
        fill: url(#Namnlös_övertoning_47-14);
      }

      .cls-20 {
        fill: #01513c;
      }

      .cls-20, .cls-19, .cls-21 {
        stroke-width: 0px;
      }

      .cls-17 {
        fill: url(#Namnlös_övertoning_47-11);
      }

      .cls-21 {
        fill: url(#Namnlös_övertoning_84);
      }

      .cls-18 {
        fill: url(#Namnlös_övertoning_47-10);
      }
    </style>
    <linearGradient id="Namnlös_övertoning_47" data-name="Namnlös övertoning 47" x1="418.82" y1="990.84" x2="974.38" y2="432.56" gradientTransform="translate(708.26 -281.75) rotate(45)" gradientUnits="userSpaceOnUse">
      <stop offset="0" stop-color="#cecece"/>
      <stop offset=".15" stop-color="#c8c8c8"/>
      <stop offset=".34" stop-color="#b8b8b8"/>
      <stop offset=".55" stop-color="#9e9d9d"/>
      <stop offset=".78" stop-color="#797978"/>
      <stop offset="1" stop-color="#504f4e"/>
    </linearGradient>
    <linearGradient id="Namnlös_övertoning_47-2" data-name="Namnlös övertoning 47" x1="233.66" y1="1020.1" x2="363.35" y2="1020.1" gradientTransform="matrix(1,0,0,1,0,0)" xlink:href="#Namnlös_övertoning_47"/>
    <linearGradient id="Namnlös_övertoning_47-3" data-name="Namnlös övertoning 47" x1="1125.93" y1="312.14" x2="1096.38" y2="279.92" gradientTransform="matrix(1,0,0,1,0,0)" xlink:href="#Namnlös_övertoning_47"/>
    <linearGradient id="Namnlös_övertoning_47-4" data-name="Namnlös övertoning 47" x1="252.56" y1="1023.03" x2="292.77" y2="1023.03" gradientTransform="matrix(1,0,0,1,0,0)" xlink:href="#Namnlös_övertoning_47"/>
    <linearGradient id="Namnlös_övertoning_47-5" data-name="Namnlös övertoning 47" x1="236.42" y1="1007.76" x2="270.8" y2="1007.76" gradientTransform="matrix(1,0,0,1,0,0)" xlink:href="#Namnlös_övertoning_47"/>
    <linearGradient id="Namnlös_övertoning_47-6" data-name="Namnlös övertoning 47" x1="279.78" y1="1036.57" x2="314.43" y2="1036.57" gradientTransform="matrix(1,0,0,1,0,0)" xlink:href="#Namnlös_övertoning_47"/>
    <linearGradient id="Namnlös_övertoning_47-7" data-name="Namnlös övertoning 47" x1="313.79" y1="1045.68" x2="336.91" y2="1045.68" gradientTransform="matrix(1,0,0,1,0,0)" xlink:href="#Namnlös_övertoning_47"/>
    <linearGradient id="Namnlös_övertoning_47-8" data-name="Namnlös övertoning 47" x1="1028.06" y1="983.87" x2="465.03" y2="421.73" gradientTransform="translate(726.87 -326.72) rotate(45)" xlink:href="#Namnlös_övertoning_47"/>
    <linearGradient id="Namnlös_övertoning_47-9" data-name="Namnlös övertoning 47" x1="1219.36" y1="1019.74" x2="1089.68" y2="1020.69" gradientTransform="matrix(1,0,0,1,0,0)" xlink:href="#Namnlös_övertoning_47"/>
    <linearGradient id="Namnlös_övertoning_47-10" data-name="Namnlös övertoning 47" x1="326.58" y1="309.97" x2="357.85" y2="279.66" gradientTransform="matrix(1,0,0,1,0,0)" xlink:href="#Namnlös_övertoning_47"/>
    <linearGradient id="Namnlös_övertoning_47-11" data-name="Namnlös övertoning 47" x1="1199.48" y1="1023.03" x2="1159.27" y2="1023.03" gradientTransform="matrix(1,0,0,1,0,0)" xlink:href="#Namnlös_övertoning_47"/>
    <linearGradient id="Namnlös_övertoning_47-12" data-name="Namnlös övertoning 47" x1="1215.62" y1="1007.76" x2="1181.26" y2="1007.76" gradientTransform="matrix(1,0,0,1,0,0)" xlink:href="#Namnlös_övertoning_47"/>
    <linearGradient id="Namnlös_övertoning_47-13" data-name="Namnlös övertoning 47" x1="1172.26" y1="1036.57" x2="1137.61" y2="1036.57" gradientTransform="matrix(1,0,0,1,0,0)" xlink:href="#Namnlös_övertoning_47"/>
    <linearGradient id="Namnlös_övertoning_47-14" data-name="Namnlös övertoning 47" x1="1138.26" y1="1045.68" x2="1115.14" y2="1045.68" gradientTransform="matrix(1,0,0,1,0,0)" xlink:href="#Namnlös_övertoning_47"/>
    <radialGradient id="Namnlös_övertoning_84" data-name="Namnlös övertoning 84" cx="719.22" cy="647.91" fx="719.22" fy="-131.75" r="779.67" gradientTransform="translate(618.78 -268.78) rotate(45) scale(1 .89)" gradientUnits="userSpaceOnUse">
      <stop offset=".44" stop-color="#fff"/>
      <stop offset=".5" stop-color="#fbfcfc"/>
      <stop offset=".55" stop-color="#f0f4f3"/>
      <stop offset=".59" stop-color="#dde8e5"/>
      <stop offset=".64" stop-color="#c3d6d1"/>
      <stop offset=".68" stop-color="#a1bfb7"/>
      <stop offset=".73" stop-color="#78a398"/>
      <stop offset=".77" stop-color="#478172"/>
      <stop offset=".82" stop-color="#105b48"/>
      <stop offset=".83" stop-color="#00513c"/>
    </radialGradient>
  </defs>
  <g>
    <g>
      <rect class="cls-5" x="291.28" y="705.24" width="805.91" height="17.67" transform="translate(-301.59 700.05) rotate(-45)"/>
      <path class="cls-11" d="M1047.79,393.83l170.85-170.85c7.33-7.33,7.33-19.24,0-26.59l-6.75-6.75c-7.35-7.33-19.24-7.33-26.59,0l-170.85,170.85,33.34,33.34Z"/>
      <polygon class="cls-11" points="985.38 435.41 1047.79 393.83 1014.45 360.5 972.88 422.91 985.38 435.41"/>
      <path class="cls-16" d="M255.87,968.17c42.65,6.2,85.22,78.38,118.06,45.54l28.58-28.58,20.63,20.63-28.58,28.58c-57.4,57.4-135.62,26.45-156.25,5.83-21.58-21.55-14.14-76.61,17.56-72Z"/>
      <path class="cls-9" d="M317.58,1059.83c-34.01,0-64.15-14.85-74.7-25.36-9.21-9.19-12.07-29.9-6.09-44.31,2.7-6.51,6.35-9.79,10.87-9.79.61,0,1.24.05,1.91.15,15.06,2.18,32.34,15.51,49.06,28.38,20.77,16.01,40.39,31.13,61.78,31.13,11.73-.02-13.52,19.81-42.83,19.81Z"/>
      <path class="cls-2" d="M1168.29,206.66l7.29-7.29,33.34,33.33-7.29,7.29-33.34-33.33ZM1175.99,265.64l7.29-7.29-33.34-33.33-7.29,7.29,33.34,33.33ZM1150.34,291.28l7.29-7.29-33.33-33.34-7.29,7.29,33.33,33.34ZM1124.7,316.92l7.29-7.29-33.34-33.33-7.29,7.29,33.34,33.33ZM1099.06,342.55l7.29-7.29-33.34-33.34-7.29,7.29,33.34,33.34ZM1073.43,368.19l7.29-7.29-33.34-33.33-7.29,7.29,33.34,33.33ZM1047.79,393.83l7.29-7.29-33.34-33.33-7.29,7.29,33.34,33.33Z"/>
      <g>
        <path class="cls-7" d="M259.23,1045.54c18.01-10.32,27.82-22.16,33.54-41.16-1.71-1.31-3.42-2.58-5.14-3.86-5.15,18.42-19.82,33.55-35.07,41.26,2.04,1.28,4.28,2.52,6.67,3.76Z"/>
        <path class="cls-13" d="M265.39,986.1c-4.6,15.75-16.12,29.06-28.97,37.27.78,2.18,1.66,4.2,2.75,6.04,16.88-10.1,26.12-21.86,31.63-40.32-1.83-1.08-3.62-2.08-5.41-2.99Z"/>
        <path class="cls-12" d="M314.43,1020.77c-1.71-1.23-3.44-2.52-5.17-3.81-4.86,15.7-16.56,28.92-29.48,36.95,2.75.84,5.59,1.58,8.51,2.28,13.26-9.08,21.18-19.77,26.14-35.41Z"/>
        <path class="cls-1" d="M336.91,1034.36c-1.83-.84-3.65-1.83-5.46-2.81-3.25,10.81-9.69,20.47-17.66,28.08,1.28.05,2.5.19,3.8.19,2.07,0,4.12-.13,6.14-.31,5.98-6.87,10.14-15.02,13.18-25.15Z"/>
      </g>
    </g>
    <g>
      <rect class="cls-6" x="748.98" y="311.1" width="17.67" height="805.91" transform="translate(-282.95 745) rotate(-45)"/>
      <path class="cls-11" d="M404.25,393.83l-170.85-170.85c-7.33-7.33-7.33-19.24,0-26.59l6.75-6.75c7.33-7.35,19.24-7.35,26.59,0l170.85,170.85-33.34,33.34Z"/>
      <polygon class="cls-14" points="466.66 435.41 404.25 393.83 437.6 360.5 479.16 422.91 466.66 435.41"/>
      <path class="cls-16" d="M1196.17,968.17c-42.65,6.2-85.23,78.38-118.06,45.54l-28.58-28.58-20.63,20.63,28.58,28.58c57.4,57.4,135.62,26.45,156.25,5.83,21.58-21.55,14.14-76.61-17.56-72Z"/>
      <path class="cls-8" d="M1134.46,1059.83c34.01,0,64.15-14.85,74.7-25.36,9.21-9.19,12.07-29.9,6.09-44.31-2.7-6.51-6.35-9.79-10.87-9.79-.61,0-1.24.05-1.91.15-15.06,2.18-32.34,15.51-49.06,28.38-20.78,16.01-40.39,31.13-61.78,31.13-11.73-.02,13.52,19.81,42.83,19.81Z"/>
      <path class="cls-18" d="M250.41,240l-7.29-7.29,33.34-33.33,7.29,7.29-33.34,33.33ZM309.39,232.3l-7.29-7.29-33.34,33.33,7.29,7.29,33.34-33.33ZM335.03,257.94l-7.29-7.29-33.33,33.34,7.29,7.29,33.33-33.34ZM360.67,283.57l-7.29-7.29-33.34,33.33,7.29,7.29,33.34-33.33ZM386.31,309.23l-7.29-7.29-33.34,33.34,7.29,7.29,33.34-33.34ZM411.94,334.86l-7.29-7.29-33.33,33.33,7.29,7.29,33.33-33.33ZM437.6,360.5l-7.29-7.29-33.34,33.33,7.29,7.29,33.34-33.33Z"/>
      <g>
        <path class="cls-17" d="M1192.81,1045.54c-18.01-10.32-27.82-22.16-33.54-41.16,1.71-1.31,3.42-2.58,5.14-3.86,5.15,18.42,19.82,33.55,35.07,41.26-2.04,1.28-4.26,2.52-6.67,3.76Z"/>
        <path class="cls-3" d="M1186.65,986.1c4.6,15.75,16.12,29.06,28.97,37.27-.78,2.18-1.66,4.2-2.75,6.04-16.88-10.1-26.12-21.86-31.61-40.32,1.81-1.08,3.6-2.08,5.4-2.99Z"/>
        <path class="cls-4" d="M1137.61,1020.77c1.71-1.23,3.44-2.52,5.17-3.81,4.86,15.7,16.56,28.92,29.48,36.95-2.75.84-5.59,1.58-8.51,2.28-13.25-9.08-21.18-19.77-26.14-35.41Z"/>
        <path class="cls-15" d="M1115.14,1034.36c1.83-.84,3.65-1.83,5.46-2.81,3.25,10.81,9.69,20.47,17.66,28.08-1.28.05-2.5.19-3.8.19-2.07,0-4.12-.13-6.14-.31-5.98-6.87-10.14-15.02-13.18-25.15Z"/>
      </g>
    </g>
    <g>
      <circle class="cls-21" cx="719.22" cy="647.91" r="420.72" transform="translate(-247.49 698.34) rotate(-45)"/>
      <path class="cls-20" d="M317.04,711.59c-2.62-5.31-5.57-9.46-8.59-10.8-.61-.28-1.22-.41-1.81-.41-1.09,0-2.11.47-2.92,1.34-.25.27-.47.58-.67.91-.39-9.09.58-15.24,2.11-17.02,3.54.83,8.34,10.94,11.88,25.98Z"/>
      <path class="cls-20" d="M428.37,658.18c-7.76-15.08-20.92-24.45-35.04-24.45-12.46.16-23.28,8.13-29.12,20.61,1.42-23.14,13.91-41.7,29.41-42.53l1.12-.03c17.25,0,31.82,20.47,33.61,46.4Z"/>
      <path class="cls-20" d="M418.79,567.08c3.7-25.29,22.19-47.07,42.95-49.68,1.45-.17,2.89-.27,4.31-.27,9.13,0,17.39,3.62,23.9,10.46,8.12,8.52,12.58,21.39,12.4,35.54-7.65-14.49-22.25-23.54-38.75-23.54-1.53,0-3.08.08-4.64.23-16.5,1.64-31.52,12.04-40.17,27.26Z"/>
      <path class="cls-20" d="M318.68,577.09c-1.64-4.59-3.98-7.07-6.84-7.07-.81,0-1.62.2-2.42.61-1.5.75-2.89,2.26-4.12,4.29,2.58-10.48,5.9-17.97,8.49-19.56.31-.19.59-.3.8-.3.09,0,.37,0,.84.5,1.92,2.12,3.51,9.56,3.25,21.53Z"/>
      <path class="cls-20" d="M334.04,650.59c-4.25-9.84-10.15-15.58-16.47-15.58-4.82.12-8.91,3.86-11.73,10.16,1.56-16.19,7.03-27.21,12.26-27.81h.02c6.85.02,13.96,12.51,15.93,33.22Z"/>
      <path class="cls-20" d="M1000.29,566.47c-8.9-15.55-24.57-26.17-41.81-27.78-1.55-.14-3.06-.22-4.57-.22-17.21,0-32.44,9.27-40.37,24.09-.17-14.16,4.42-27.12,12.69-35.8,6.87-7.2,15.61-10.99,25.31-10.99,1.41,0,2.83.08,4.26.25,21.67,2.51,40.87,24.68,44.5,50.45Z"/>
      <path class="cls-20" d="M1042.84,489.79c-8.13-12.3-19.86-21.51-31.87-24.54-2.9-.73-5.76-1.09-8.51-1.09-10.79,0-19.63,5.71-24.18,15.29-1.16-11.19,1.06-20.87,6.21-26.84,3.61-4.18,8.49-6.39,14.15-6.39,2.22,0,4.54.34,6.95,1.01,15.38,4.32,30.91,22.53,37.25,42.56Z"/>
      <path class="cls-20" d="M927.83,471.67c-10.82-15.69-29.46-26.74-49.4-28.88-2.36-.25-4.65-.37-6.92-.37-18.75,0-34.61,8.18-42.75,21.69-.37-11.43,3.33-21.86,10.51-29.51,7.48-7.98,18.16-12.37,30.04-12.37,1.94,0,3.92.11,5.92.36,24.9,2.97,47.71,24.57,52.6,49.09Z"/>
      <path class="cls-20" d="M1059.87,431.81c-6.09-7.42-13.01-13.36-19.56-16.6-3.73-1.83-7.21-2.75-10.35-2.75-5.32,0-9.31,2.65-11.38,7.35-1.92-7.99-1.64-14.36.87-17.71,1.26-1.69,3.06-2.54,5.39-2.54s4.81.77,7.7,2.26c9.27,4.81,19.91,16.8,27.34,29.98Z"/>
      <path class="cls-20" d="M655.98,461.47c2.03-26.62,27.01-48.03,56.66-48.09,29.66,0,54.61,21.36,56.57,47.98-11.19-16.55-32.71-26.96-56.55-26.96-23.9.06-45.45,10.52-56.67,27.07Z"/>
      <path class="cls-20" d="M857.31,560.4c-11.07-18.19-32.47-30.04-56.33-30.71l-2.05-.03c-23.78,0-44.97,11.23-55.68,29.06.28-14.4,5.87-27.78,15.85-37.83,10.29-10.35,24.11-16.05,38.91-16.05l1.94.03c29.91,1.06,55.19,25.76,57.36,55.54Z"/>
      <path class="cls-20" d="M561.76,560.68c2.26-29.62,27.32-54.25,56.89-55.43l2.15-.05c14.6,0,28.2,5.64,38.33,15.85,9.9,9.99,15.44,23.36,15.68,37.74-10.57-17.69-31.51-28.82-55-28.82l-2.28.03c-23.59.75-44.76,12.57-55.77,30.68Z"/>
      <path class="cls-20" d="M494.42,472.43c5-24.34,27.56-45.87,52.07-48.98,2.08-.25,4.11-.37,6.1-.37,11.58,0,21.98,4.29,29.26,12.1,7.09,7.59,10.73,17.99,10.3,29.4-7.95-13.32-23.47-21.39-41.84-21.39-2.34,0-4.73.12-7.15.41-19.64,2.22-38,13.26-48.74,28.84Z"/>
      <path class="cls-20" d="M377.13,737.01c-7.09-12.65-16.85-21.36-26.42-23.12-1.08-.19-2.11-.3-3.11-.3-6.74,0-12.08,4.34-14.93,11.65-.5-11.55,1.84-21.48,6.53-26.84,2.26-2.59,4.9-3.92,7.85-3.92.42,0,.86.03,1.3.08,11.93,1.53,24.28,20.25,28.77,42.45Z"/>
      <path class="cls-20" d="M333.6,573.35c4-18.78,13.94-34.6,24.32-37.33,1.11-.28,2.2-.44,3.26-.44,3.39,0,6.46,1.47,9.13,4.36,5.57,6.04,8.59,17.33,8.31,30.79-4.29-10.24-11.68-16.32-20.39-16.32-1.31,0-2.64.14-3.98.42-7.96,1.69-15.41,8.56-20.66,18.52Z"/>
      <path class="cls-20" d="M324.49,506.45c5.01-12.58,11.8-23.19,17.71-26.74,1.36-.81,2.59-1.22,3.65-1.22,1.16,0,2.11.5,2.95,1.51,2.2,2.7,3.73,9.66,2.09,21.47-1.84-5.23-5.14-8.17-9.45-8.17-1.81,0-3.75.55-5.75,1.62-3.76,2.01-7.65,6.09-11.21,11.52Z"/>
      <path class="cls-20" d="M765.05,663.41c-11.24-19.13-33.96-31.21-59.61-31.23-25.56.02-48.15,12.05-59.31,31.12.33-15.32,6.43-29.68,17.27-40.59,11.21-11.29,26.17-17.53,42.06-17.55,15.94,0,30.94,6.23,42.2,17.53,10.91,10.93,17.06,25.36,17.39,40.72Z"/>
      <path class="cls-20" d="M905.79,758.59c3.28-28.7,25.2-52.6,50.04-53.93.62-.03,1.26-.05,1.89-.05,9.63,0,18.49,3.95,24.97,11.12,7.54,8.34,11.4,20.42,10.76,33.47-6.17-12.9-19.41-20.91-35.44-20.91-1.26,0-2.54.05-3.84.14-19.13,1.47-37.78,13.3-48.37,30.15Z"/>
      <path class="cls-20" d="M668.42,765.96c-11.33-17.91-33.83-30.02-57.92-30.71l-2.12-.03c-22.67,0-42.06,10.18-51.15,26.37-.36-13.74,4.47-26.59,13.65-36.32,9.68-10.26,23.11-15.91,37.8-15.91l1.06.02c31.3.62,57.28,25.85,58.69,56.58Z"/>
      <path class="cls-20" d="M579.85,662.55c-10.57-18.11-31.09-29.9-52.96-29.9-21.11.12-39.27,10.77-48.26,27.65.92-28.96,22.12-52.55,48.38-53.16l1.01-.02c27.74,0,50.65,24.7,51.82,55.43Z"/>
      <path class="cls-20" d="M827.5,662.86c1.08-31.12,24.78-56.16,53.55-56.16l.94.02c27.39.56,49.51,24.61,50.38,54.13-9.35-17.28-28.28-28.18-50.02-28.29-22.86,0-44.04,11.96-54.85,30.3Z"/>
      <path class="cls-20" d="M736.11,766.31c1.09-30.84,27.26-56.03,59.08-56.53h.03c16.08,0,30.04,5.84,40.13,16.44,9.41,9.88,14.38,22.86,14.11,36.67-9.52-16.63-29.71-27.1-53.21-27.1l-1.66.02c-24.5.56-47.2,12.6-58.49,30.51Z"/>
      <path class="cls-20" d="M498.8,756.29c-10.24-16.46-27.81-28.06-45.65-29.6-1.33-.11-2.64-.17-3.92-.17-14.66,0-26.68,7.54-32.32,19.73-.66-12.96,3-24.78,10.21-32.82,5.92-6.59,13.61-10.05,22.3-10.05.62,0,1.28.02,1.92.06,23.17,1.39,43.9,24.79,47.46,52.85Z"/>
      <path class="cls-20" d="M613.08,270.7c7.04-9.23,25.06-17.17,43.58-18.86,2.53-.23,5.01-.34,7.4-.34,12.97,0,24.18,3.33,29.31,8.68,1.53,1.61,2.45,3.33,2.76,5.14-6.76-5.15-18.86-8.26-32.79-8.26-2.87,0-5.84.12-8.88.39-15.94,1.41-31.3,6.42-41.37,13.26Z"/>
      <path class="cls-20" d="M985.05,658.88c1.73-26.65,17.41-47.76,36.03-47.76l1.17.03c16.85.83,30.41,20.11,31.77,44.06-6.21-13.08-17.92-21.48-31.15-21.64h0c-15.52,0-29.65,9.73-37.83,25.31Z"/>
      <path class="cls-20" d="M1102.87,505.86c-3.81-5.82-8.03-10.2-12.1-12.32-2.06-1.06-4.04-1.61-5.92-1.61-4.56,0-8.04,3.08-9.98,8.52-1.64-11.9-.02-19,2.28-21.81.92-1.12,2-1.67,3.29-1.67,1.12,0,2.4.42,3.84,1.23,6.28,3.62,13.43,14.64,18.58,27.65Z"/>
      <path class="cls-20" d="M1086.52,651.78c1.89-19.95,9.1-35.11,17.36-35.11,6.59.66,13.04,12.47,14.71,29.73-3.14-7.14-7.84-11.4-13.29-11.52h0c-7.28,0-14.08,6.37-18.78,16.91Z"/>
      <path class="cls-20" d="M1111.52,716.1c3.89-16.77,9.76-28.2,13.97-29.31.08-.02.17-.02.25-.02.33,0,.66.09,1.09.59,1.92,2.23,3.22,8.96,2.84,18.67-.37-.77-.83-1.45-1.36-2.01-1.01-1.08-2.26-1.66-3.64-1.66-.64,0-1.3.12-1.97.37-4.06,1.55-7.93,6.82-11.19,13.35Z"/>
      <path class="cls-20" d="M1090.35,572.95c-5.56-10.52-13.63-17.77-22.26-19.47-1.41-.28-2.76-.41-4.11-.41-9.32,0-17.24,6.32-21.81,16.97-.28-13.54,2.87-25.04,8.7-31.32,2.97-3.19,6.39-4.81,10.16-4.81,1.12,0,2.28.14,3.43.42,11.21,2.78,21.84,19.19,25.89,38.61Z"/>
      <path class="cls-20" d="M1113.63,576.66c-.27-12.37,1.5-20.06,3.72-22.5.64-.7,1.11-.7,1.26-.7.3,0,.64.11,1.03.33,2.97,1.69,6.78,9.8,9.56,21.08-1.55-2.65-3.31-4.62-5.28-5.53-.84-.37-1.7-.58-2.54-.58-3.26-.02-5.92,2.76-7.74,7.9Z"/>
      <path class="cls-20" d="M830.56,273.01c-10.13-7.01-25.45-12.35-41.19-14.1-3.65-.41-7.29-.61-10.8-.61-13.02,0-23.89,2.78-30.07,7.54.19-1.95,1-3.58,2.36-5.07,4.57-5.01,14.57-8.01,26.74-8.01,2.89,0,5.92.17,9.02.53,18.84,2.15,36.86,10.49,43.93,19.72Z"/>
      <path class="cls-20" d="M933.62,297.02c-8.13-5.42-17.5-10.09-26.53-13.07-6.87-2.26-13.33-3.45-18.7-3.45s-9.76,1.26-12.22,3.64c-.7-1.89-1.12-4.28.05-6.04,1.3-1.97,4.42-3.04,8.81-3.04s9.57,1.03,15.35,2.97c11.65,3.9,24.15,11.24,33.26,19Z"/>
      <path class="cls-20" d="M767.67,313.91c-9.84-10.43-28.28-17.17-48.35-17.46-19.92.06-38.14,6.48-47.93,16.63l-.11-1.23-1.11,1.12c2.87-15.04,23.68-26.95,47.87-26.95l1.12.05c24.81.14,45.79,12.02,49.27,26.96l-.42-.5-.34,1.37Z"/>
      <path class="cls-20" d="M904.49,331.9c-10.52-10.66-26.99-19.22-43.72-22.45-4.34-.77-8.57-1.16-12.62-1.16-12.55,0-22.69,3.73-27.99,10.13l-.42-1.3-.98,1.19c-.58-4.73.61-8.96,3.43-12.33,4.34-5.15,12.46-8.1,22.26-8.1,3.47,0,7.15.36,10.9,1.08l1.2.25c20.14,3.89,40.06,17.46,47.73,31.68l.2,1.01Z"/>
      <path class="cls-20" d="M848.99,383.81c-11.23-13.57-30.68-23.01-51.43-24.57-2.01-.16-4-.22-5.95-.22-19.08,0-36.02,7.23-44.73,18.75.14-7.98,3.25-15.32,9.02-21.28,8.07-8.34,20.64-13.11,34.47-13.11,1.62,0,3.28.06,4.93.2,25.61,2.05,48.88,19.78,53.68,40.23Z"/>
      <path class="cls-20" d="M978.12,405.45c-10.07-12.08-24.68-21.53-39.39-25.04-4.17-.98-8.24-1.5-12.13-1.5-11.87,0-21.28,4.67-26.1,12.69-1.16-8.06.37-14.88,4.5-19.83,4.01-4.84,10.45-7.49,18.06-7.49,3.14,0,6.48.44,9.91,1.31,18.55,4.72,37.46,21.8,45.15,39.86Z"/>
      <path class="cls-20" d="M503.35,294.24c9.27-7.99,22.15-15.33,34.25-19.14,5.7-1.8,11.02-2.75,15.36-2.75,4.93,0,8.48,1.2,9.96,3.4,1.01,1.5,1.09,3.5.25,5.95-2.7-2.53-7.31-3.89-13.36-3.89-5.42,0-11.87,1.09-18.64,3.19-9.52,2.95-19.38,7.7-27.82,13.24Z"/>
      <path class="cls-20" d="M1004.13,361.94c-8.12-8.09-17.91-15.02-27.17-18.99-5.37-2.2-10.23-3.31-14.49-3.31-5.67,0-9.87,2-12.08,5.59l-.64-1.34-.42.94c-1.72-5.21-1.69-9.46.09-12.04,1.76-2.53,4.93-3.06,7.29-3.06,3.31,0,7.4,1.01,11.85,2.94l.89.39c12.38,5.4,25.85,16.89,34.68,28.88Z"/>
      <path class="cls-20" d="M582.43,383.55c4.73-20.47,28.01-38.17,53.69-40.17,1.62-.12,3.22-.19,4.81-.19,13.91,0,26.56,4.81,34.69,13.18,5.82,5.98,8.96,13.32,9.13,21.31-8.79-11.58-25.82-18.84-45.01-18.84-1.9,0-3.83.06-5.79.2-20.8,1.53-40.3,10.94-51.52,24.51Z"/>
      <path class="cls-20" d="M529.37,329.79c7.59-14.24,27.59-27.73,47.71-31.48l1.19-.2c3.92-.73,7.49-1.08,10.91-1.08,10.1,0,18.47,3.03,22.97,8.32,2.86,3.37,4.09,7.6,3.59,12.29l-.56-.72-.62,1.14c-5.4-6.7-15.91-10.6-28.95-10.6-3.95,0-8.09.36-12.27,1.06-16.94,3.15-33.57,11.69-44.12,22.36l.16-1.09Z"/>
      <path class="cls-20" d="M1036.31,740.57c4.45-23.56,18-42.95,31.85-44.53.48-.05.97-.08,1.44-.08,3.7,0,6.98,1.61,9.76,4.78,5.09,5.81,7.67,16.21,7.15,28.03-3.22-8.13-9.46-13.01-17.31-13.01-1.08,0-2.19.09-3.33.28-10.9,1.76-21.89,11.07-29.56,24.53Z"/>
      <path class="cls-20" d="M449.75,405.73c7.71-18.03,26.56-35.08,45-39.81,3.45-.87,6.79-1.33,9.93-1.33,7.67,0,13.85,2.58,17.88,7.43,4.11,4.92,5.64,11.76,4.45,19.81-4.78-7.99-14.11-12.62-25.9-12.62-3.87,0-7.96.5-12.13,1.51-14.65,3.53-29.18,12.94-39.22,25Z"/>
      <path class="cls-20" d="M382.1,490.7c6.35-19.77,21.5-37.71,36.39-42.06,2.37-.69,4.67-1.03,6.85-1.03,5.37,0,10.04,2.11,13.47,6.1,5.06,5.87,7.2,15.5,6.01,26.68-4.42-9.38-12.94-14.99-23.37-14.99-2.73,0-5.57.37-8.45,1.12-11.58,3.04-22.94,12.08-30.91,24.17Z"/>
      <path class="cls-20" d="M427.64,360.86c8.87-12.18,22.65-23.89,35.29-29.24l.86-.34c4.72-2,8.74-2.97,12.15-2.97,2.5,0,5.85.56,7.7,3.22,1.81,2.59,1.89,6.81.25,11.94l-.22-.52-.76,1.23c-2.25-3.83-6.67-5.95-12.65-5.95-4.31,0-9.21,1.08-14.57,3.22-9.62,4.03-19.73,11.12-28.04,19.41Z"/>
      <path class="cls-20" d="M368.55,432.09c7.42-13.11,17.95-25.03,27.12-29.84,2.87-1.5,5.45-2.26,7.65-2.26s4.06.84,5.29,2.5c2.5,3.34,2.78,9.68.84,17.67-2.05-4.65-5.98-7.29-11.26-7.29-3.12,0-6.59.92-10.3,2.76-6.48,3.2-13.32,9.1-19.34,16.46Z"/>
      <g>
        <path class="cls-19" d="M426.83,836c-2.17,0-4.45-.33-6.79-.98-15.16-4.29-30.45-22.44-36.72-42.47,8.04,12.24,19.56,21.37,31.37,24.36,2.84.72,5.64,1.08,8.32,1.08,10.69,0,19.45-5.75,24-15.35,1.14,11.32-1.09,21.09-6.28,27.07-3.56,4.11-8.37,6.29-13.9,6.29h0Z"/>
        <path class="cls-19" d="M404.03,884.5c-2.22,0-4.79-.75-7.67-2.2-9.43-4.82-20.22-17.06-27.65-30.51,6.18,7.6,13.24,13.71,19.95,16.94,3.7,1.78,7.15,2.69,10.27,2.69,5.46,0,9.57-2.75,11.69-7.59,1.9,8.12,1.56,14.6-1.03,18.03-1.3,1.75-3.17,2.64-5.57,2.64t0,0Z"/>
        <path class="cls-19" d="M643.8,940.4c-1.5,0-3.01-.06-4.56-.17-25.89-1.92-49.31-19.8-53.88-40.55,11.23,13.72,30.84,23.19,51.82,24.64,1.84.12,3.67.19,5.48.19,19.44,0,36.74-7.42,45.67-19.24-.2,8.15-3.43,15.64-9.4,21.75-8.27,8.49-21.08,13.38-35.13,13.38h0Z"/>
        <path class="cls-19" d="M506.47,919.49c-3.11,0-6.4-.42-9.81-1.28-18.72-4.68-37.77-21.97-45.37-40.28,10.09,12.24,24.82,21.75,39.7,25.25,4.11.95,8.13,1.44,11.96,1.44,12.08,0,21.67-4.76,26.57-12.97,1.14,8.2-.45,15.16-4.67,20.2-4.11,4.93-10.65,7.65-18.39,7.65h0Z"/>
        <path class="cls-19" d="M555.28,859.99c-1.94,0-3.9-.12-5.92-.36-24.78-3.01-47.46-24.72-52.33-49.32,10.76,15.72,29.27,26.82,49.1,28.96,2.34.25,4.65.37,6.92.37,18.67,0,34.46-8.21,42.53-21.76.39,11.57-3.33,22.11-10.55,29.82-7.43,7.92-17.99,12.29-29.74,12.29h0Z"/>
        <path class="cls-19" d="M346.27,805.58c-1.08,0-2.31-.41-3.67-1.19-6.1-3.54-13.05-14.43-18.08-27.32,3.68,5.67,7.73,9.9,11.68,11.98,1.98,1.05,3.9,1.56,5.71,1.56,4.48,0,7.92-3.06,9.84-8.51,1.59,11.98-.03,19.09-2.33,21.87-.89,1.06-1.92,1.61-3.15,1.61h0Z"/>
        <path class="cls-19" d="M716.39,869.16c-29.73,0-54.75-21.53-56.67-48.37,11.21,16.66,32.79,27.15,56.69,27.15,23.97-.05,45.54-10.57,56.78-27.24-2,26.84-27.04,48.4-56.77,48.46h-.03Z"/>
        <path class="cls-19" d="M715.57,1058.23c-16.03,0-29.66-3.5-35.68-7.56,8.6,3.62,21.7,5.82,35.66,5.82,13.55-.03,26.18-2.08,34.88-5.42-6.57,4-19.56,7.12-34.64,7.15h-.22Z"/>
        <path class="cls-19" d="M619.04,1048.42c-4.9,0-10.8-.72-17.05-2.08-8.12-1.78-16.38-4.51-23.5-7.62,6.06,2.25,12.54,4.17,18.97,5.54,7.2,1.55,14.1,2.36,19.95,2.36,4.36,0,9.88-.45,13.46-2.4.08.62-.11,1.03-.3,1.3-.45.69-2.65,2.9-11.54,2.9h0Z"/>
        <path class="cls-19" d="M959.92,953.53c-2.33,0-5.45-.53-7.2-3.04-1.8-2.59-1.84-6.87-.16-12.15,2.25,3.58,6.45,5.56,12.08,5.56,4.36,0,9.34-1.17,14.8-3.47,8.59-3.62,17.63-9.85,25.42-17.27-8.79,11.52-21.58,22.34-33.27,27.45-4.39,1.9-8.42,2.92-11.68,2.92h0Z"/>
        <path class="cls-19" d="M1027.61,883.24c-2.26,0-4.04-.84-5.28-2.5-2.53-3.37-2.84-9.8-.92-17.92,2.06,4.73,6.01,7.42,11.3,7.42,3.09,0,6.49-.92,10.13-2.7,6.45-3.19,13.26-9.1,19.25-16.49-7.35,13.21-17.85,25.21-26.98,29.99-2.83,1.45-5.36,2.2-7.51,2.2h0Z"/>
        <path class="cls-19" d="M812.19,1047.99c-8.6,0-10.71-2.14-11.15-2.79-.19-.27-.37-.67-.27-1.34,3.47,1.9,8.85,2.36,13.1,2.36,5.89,0,12.85-.84,20.13-2.45,6.17-1.36,12.38-3.22,18.22-5.37-6.98,3.03-14.97,5.68-22.84,7.45-6.32,1.41-12.27,2.15-17.19,2.15h0Z"/>
        <path class="cls-19" d="M844.32,1052.89c.12-.05.23-.12.36-.16-.14.03-.3.03-.36.16Z"/>
        <path class="cls-19" d="M793.95,939.71c-13.72,0-26.21-4.76-34.24-13.07-5.84-6.04-8.96-13.49-9.07-21.61,8.68,11.73,25.25,18.81,44.59,18.81,2,0,4.03-.08,6.1-.23,20.72-1.61,40.17-11.15,51.43-24.84-4.82,20.66-28.13,38.58-53.74,40.72-1.72.16-3.4.22-5.07.22Z"/>
        <path class="cls-19" d="M1001.74,836.12c-5.56,0-10.38-2.19-13.96-6.32-5.18-6-7.43-15.77-6.31-27.1,4.56,9.63,13.35,15.39,24.08,15.39,2.7,0,5.5-.36,8.34-1.08,11.85-2.98,23.4-12.13,31.44-24.4-6.26,20.05-21.59,38.24-36.8,42.51-2.34.67-4.62,1-6.79,1h0Z"/>
        <path class="cls-19" d="M877,859.6c-11.62,0-22.05-4.32-29.4-12.16-7.17-7.68-10.87-18.19-10.45-29.76,7.99,13.47,23.64,21.62,42.12,21.62,2.3,0,4.64-.12,7.01-.39,19.69-2.19,38.08-13.27,48.79-28.93-4.9,24.53-27.48,46.2-52.08,49.26-2.03.23-4.03.36-6,.36h0Z"/>
        <path class="cls-19" d="M926.55,918.51c-7.62,0-13.82-2.58-17.88-7.45-4.17-5-5.71-11.94-4.53-20.16,4.79,8.1,14.16,12.8,26,12.8,3.84,0,7.88-.5,12.01-1.5,14.63-3.53,29.13-12.99,39.14-25.12-7.67,18.2-26.48,35.39-44.9,40.13-3.42.86-6.73,1.3-9.84,1.3h0Z"/>
        <path class="cls-19" d="M1082.51,805.71c-1.25,0-2.28-.53-3.18-1.62-2.31-2.79-3.93-9.91-2.34-21.89,1.94,5.45,5.39,8.52,9.88,8.52,1.83,0,3.75-.53,5.73-1.56,3.97-2.08,8.06-6.35,11.76-12.07-5.04,12.96-12.02,23.89-18.17,27.45-1.34.76-2.59,1.17-3.67,1.17h0Z"/>
        <path class="cls-19" d="M720.96,998.06c-24.01,0-44.62-11.88-47.59-26.92,9.93,10.02,27.98,16.3,47.7,16.3,20.56-.17,39-6.71,49.26-16.96-3.48,15.21-24.56,27.35-48.76,27.57h-.61Z"/>
        <path class="cls-19" d="M664.96,1033.41c-2.33,0-4.72-.09-7.17-.31-19.19-1.7-37.78-10.16-44.33-19.55,10.09,7.12,25.81,12.35,42.17,13.75,2.95.25,5.81.37,8.59.37,14.1,0,26.34-3.17,33.22-8.43-.31,2.01-1.28,3.72-2.81,5.31-5.21,5.45-16.61,8.85-29.68,8.85h0Z"/>
        <path class="cls-19" d="M589.87,987.3c-3.36,0-6.89-.33-10.48-.98-20.3-3.67-40.37-17.22-47.93-31.63,10.79,10.24,27.01,18.24,43.5,21.09,4.34.75,8.6,1.12,12.69,1.12,13.07,0,23.68-3.86,29.34-10.51.44,4.72-.86,8.98-3.76,12.4-4.62,5.42-13.13,8.51-23.36,8.51Z"/>
        <path class="cls-19" d="M553.22,1012.7c-4.34,0-9.6-.92-15.22-2.67-12.77-3.98-26.37-11.9-35.63-20.19,8.74,5.95,19.16,11.04,29.23,14.1,6.7,2.05,13.08,3.11,18.47,3.11,6.26,0,11.04-1.42,13.8-4.06.84,2.53.73,4.61-.33,6.15-1.56,2.3-5.21,3.56-10.32,3.56h0Z"/>
        <path class="cls-19" d="M851.16,985.08c-9.65,0-17.3-2.81-21.58-7.93-2.81-3.36-3.97-7.62-3.4-12.38,5.26,6.31,15.16,9.98,27.43,9.98,4.31,0,8.82-.45,13.44-1.34,15.91-3.06,31.68-11.07,42.37-21.23-7.87,14.25-27.54,27.81-47.2,31.74-3.81.78-7.54,1.17-11.07,1.17h0Z"/>
        <path class="cls-19" d="M779.29,1031.87c-12.12,0-22.11-3.01-26.71-8.06-1.51-1.67-2.36-3.48-2.54-5.42,6.17,4.9,17.1,7.76,30.23,7.76,3.54,0,7.2-.22,10.88-.62,15.85-1.8,31.24-7.23,41.42-14.4-7.07,9.45-25.23,18-44.2,20.2-3.14.36-6.15.53-9.07.53h0Z"/>
        <path class="cls-19" d="M887.08,1009.31c-4.39,0-7.54-1.09-8.87-3.09-1.2-1.83-.78-4.29-.06-6.26,2.48,2.42,6.73,3.73,12.35,3.73s11.77-1.2,18.56-3.45c9.15-3.03,18.64-7.82,26.85-13.4-9.15,7.96-21.83,15.52-33.63,19.52-5.68,1.94-10.96,2.95-15.21,2.95h0Z"/>
        <path class="cls-19" d="M475.96,956.25c-3.4,0-7.42-.95-11.9-2.81-12.35-5.15-25.75-16.32-34.64-28.15,8.13,7.74,17.77,14.25,26.95,17.94,5.51,2.22,10.55,3.34,15.02,3.34,6.01,0,10.52-2.08,12.93-5.82,1.62,5.23,1.5,9.52-.36,12.19-1.97,2.73-5.43,3.31-7.99,3.31h0Z"/>
      </g>
    </g>
  </g>
  <g>
    <path class="cls-10" d="M394.61,1114.43c-9.54-2.37-22.65-5.03-31.3.28-3.95,2.42-7.99,9.72-11.9,21.25-3.15,9.29-6.3,18.59-9.43,27.89-3.43,9.96-6.58,20.35-7.44,30.9-49.67-8.2-98.86-21.53-143.29-44.71-50.49-26.35-100.47-63.92-125.25-115.84-18.95-39.7-20.66-83.74,8.88-120.09,28.74-35.38,71.62-49.32,116.12-45.51,47.61,4.07,92.89,23.24,135.04,44.09,27.4,13.56,54,29.01,79.93,45.62-8.32,17.4-14.97,35.55-21.55,53.66-1.06,2.98-1.6,4.47-2.66,7.45-7.18-2.16-10.77-3.27-17.93-5.59,12.68-43.63-21.43-72.2-56.55-90.13-61.24-31.26-123.79-25.6-162.76,33.89-17.1,26.1-27.99,57.58-20.51,89.36,9.65,41.03,43.1,69.88,78.58,88.36,11.29,5.88,24.27,10.12,36.6,12.32,8.36,1.49,25.59,6.17,31.57-3.78,5.98-14.34,11.98-28.68,17.98-43.01,4.59-10.27,0-20.91-8.56-27.38-10.09-7.16-21.4-12.66-32.28-18.49,2.28-3.98,3.41-5.97,5.68-9.96,12.42,6.25,25,12.37,37.55,18.15,12.49,5.75,25.26,11.32,38.11,16.44,11.11,4.43,22.43,8.54,33.68,12.42,11.2,3.87,22.61,7.55,33.98,11.12-.92,4.51-1.38,6.77-2.29,11.28Z"/>
    <path class="cls-10" d="M797.7,1124.84c5.49,44.27-12.61,81.48-46.83,107.4-41.41,31.36-97.63,38.3-148.11,34.32-50.93-4.02-106.56-18.91-143.94-55.71-29.89-29.42-43.44-69.08-31.91-110.95,10.66-38.69,38.99-69.93,75.07-87.22,37.42-17.93,79.76-21.3,120.1-18.03,40.27,3.27,81.51,12.46,116.06,35.18,32.77,21.55,54.71,55.89,59.56,95ZM721.63,1140.8c-1.68-28.85-7.94-57.62-23.67-82.64-17.51-27.84-46.81-42.41-78.84-45.43-29.82-2.81-59.58,4.82-80.97,26.33-18.81,18.92-28.7,43.88-33.52,68.89-5.43,28.19-5.23,58.91,8.23,86.08,17.35,35.04,56.26,52.22,93.07,54.46,34.58,2.1,72.27-4.05,95.43-33.35,16.59-20.99,21.77-48.49,20.27-74.34Z"/>
    <path class="cls-10" d="M1107.9,1110.11c1.83,22.13,4.07,44.73,11.56,65.81-15.92,6.77-31.92,13.23-48.08,19.4-27.67,10.2-55.6,19.72-84.07,27.43-13.74,3.72-27.52,7.26-41.35,10.62-17.16,4.17-34.48,8.07-51.71,11.5-16.18,3.22-32.6,6.1-49.01,8.5-1.19-4.46-1.78-6.68-2.96-11.14,13.38-2.98,29.74-5.45,39.45-14.57,6.91-6.49,6.13-19.02,4.01-28.07-12-58.67-23.76-117.38-35.29-176.15-2.03-10.34-7.42-16.32-16.08-18.13-4.56-1.05-13.82-.62-27.84.81-.3-4.58-.45-6.87-.75-11.46,11.37-1.6,22.79-3.33,34.02-5.28,11.25-1.96,22.62-4.15,33.81-6.71,10.51-2.4,20.97-5.16,31.36-8.1,10.4-2.95,20.74-6.09,31.05-9.34,1.73,4.26,2.6,6.38,4.35,10.63-10.02,4.18-22.88,8.18-28.95,16.87-5.12,7.33-2.88,19.32-.37,27.89,14.43,53.52,29.06,106.99,43.89,160.4,2.28,9.29,7.95,20.43,17.59,22.36,11.49,2.3,26.38-2.54,37.84-6.34,4.05-1.28,6.07-1.92,10.11-3.24,19.35-6.83,41.96-14.76,55.12-31.65,8.82-13.3,11.44-30.92,13.28-46.38,7.62-2.18,11.42-3.31,19.03-5.66Z"/>
    <path class="cls-10" d="M1232.03,798.6c11.46,17.13,24.42,33.13,37.66,48.9-5.49,4.93-8.25,7.36-13.82,12.15-9.88-7.88-23.87-17.35-36.15-16.72-13.95.71-27.54,11.68-39.39,19.87-10.5,7.57-21.18,14.9-32.02,21.98-5.14,3.36-8.07,5.9-8.87,7.32-1.19,2.11-.81,5.24,1.72,9.23,15.74,24.77,31.52,49.52,47.35,74.23,31.52-21.22,61.67-43.96,90.75-68.43,1.27-.05,1.9-.07,3.17-.13,6.41,8.14,9.62,12.21,16.03,20.35-32.25,22.93-64.98,45.01-98.75,65.65,15.48,24.08,31,48.13,46.57,72.15,6.72,10.77,20.05,11.96,31.09,7.84,14.01-4.72,26.39-13.35,38.5-21.6,2.46,3.87,3.7,5.8,6.16,9.68-13.57,9.79-27.55,19.17-41.55,28.14-13.8,8.84-27.97,17.45-42.18,25.81-14.24,8.38-28.68,16.6-43.17,24.38-14.42,7.74-29.16,15.24-44.04,22.27-2.45-3.91-3.67-5.87-6.1-9.78,12.88-7.15,28.53-14.4,36.81-26.12,6.07-8.59,2.33-21.17-2.87-29.93-28.89-52.46-57.57-105.03-86.03-157.72-5.01-9.27-12-13.34-20.92-12.44-9.3,1.67-18.09,5.46-26.72,9.21-1.63-4.29-2.45-6.44-4.1-10.73,11.47-5.4,22.89-11.02,34.11-16.81,11.28-5.81,22.5-11.99,33.46-18.47,21.81-12.91,43.05-27.07,63.34-41.96,20.57-15.09,40.67-31.34,59.98-48.32Z"/>
  </g>
  <g>
    <path class="cls-10" d="M356.14,288.6c2.62,22.32,6.11,44.83,14.43,65.85-23.86,10.83-47.39,22.73-70.02,35.53-22.92,12.97-45.56,27.19-67.21,42.5-10.39,7.34-20.53,15.06-30.52,22.95-10.07,7.95-19.94,16.16-29.69,24.5-3.37-3.38-5.06-5.07-8.45-8.44,8.6-8.26,19.67-17.68,23.21-28.5,3.1-9.47-3.72-21.12-9.94-28.86-37.82-49.45-75.64-98.89-113.45-148.34-6.08-8.48-16.5-11.07-26.03-7.04-11.4,4.91-21.44,12.99-31.08,20.63-2.69-3.96-4.04-5.94-6.72-9.9,13.2-11.09,26.78-21.85,40.46-32.19,13.56-10.25,27.51-20.28,41.54-30.04,27.38-19.06,55.62-37.1,84.35-53.66,28.4-16.37,57.82-31.61,87.79-45.38,5.59,20.74,13.73,40.6,22.19,60.3-7.39,3.55-11.07,5.36-18.4,9.07-8.33-10.77-20.96-23.08-34.49-24.43-17.09-1.71-35.85,9.94-50.92,18.13-14.15,8.11-28.09,16.6-41.86,25.34-6.57,4.18-10.32,7.38-11.41,9.05-1.64,2.53-1.41,5.91,1.29,10,16.81,25.47,33.61,50.94,50.42,76.4,31.94-21.93,64.78-42.06,98.81-60.58,1.26.25,1.89.38,3.15.64,4.56,9.76,6.85,14.64,11.43,24.39-35.45,14.65-68.99,33.3-101.52,53.53,14.46,21.92,28.93,43.84,43.39,65.76,4.91,7.86,13.12,17.67,22.45,17.83,9.48.15,20.27-6.97,28.63-12.12,5.73-3.42,8.61-5.1,14.4-8.4,14.56-8.71,31.91-18.37,39.58-33.59,6.8-13.48,6.6-30.93,7.29-46.17,6.76-1.98,10.15-2.93,16.92-4.77Z"/>
    <path class="cls-10" d="M611.86,218.08c-3.8,22.64-6.6,45.58-4.82,68.58-12.73,1.7-25.43,3.68-38.07,5.96-21.71,4.06-43.28,8.81-64.68,14-10.37,2.51-20.8,5.36-31.02,8.49-12.77,3.91-25.52,8.26-37.97,12.84-11.74,4.32-23.54,8.98-35.2,13.77-2.14-4.27-3.21-6.4-5.36-10.67,9.63-5.07,22.15-10.24,27.29-19.55,4.46-8.07,1.03-20.23-2.25-28.87-20.9-58.64-41.8-117.29-62.7-175.93-3.12-9.72-11.84-15.66-22.04-14.9-11.9.91-23.35,5.6-34.48,9.52-1.37-4.59-2.05-6.88-3.4-11.47,14.09-5.73,28.39-11.09,42.66-16.11,14.21-5,28.69-9.73,43.14-14.3,13.52-4.27,27.15-8.45,40.72-12.3,13.55-3.84,27.3-7.47,41.08-10.71,1.55,4.53,2.32,6.79,3.86,11.32-12.82,4.08-29.35,8.16-37.96,18.2-6.4,7.46-4.48,20.24-1.63,29.42,15.66,55.46,31.31,110.92,46.97,166.38,2.29,8.92,7.01,20.79,15.72,23.88,8.67,3.08,20.86-.33,30.1-2.63,3.22-.75,4.83-1.12,8.06-1.85,15.91-3.3,34.68-8.5,46.14-20.8,9.46-12.12,13.95-28.38,18.84-42.67,6.8.1,10.2.18,16.98.41Z"/>
    <path class="cls-10" d="M760.24,268.38c-.47,4.74-.71,7.11-1.18,11.86-10.52-.52-21.04-.96-31.58-1.21-10.63-.24-21.29-.31-31.91-.02-10.62.29-21.26.93-31.86,1.75-10.51.81-21,1.83-31.48,2.92-.73-4.71-1.09-7.07-1.82-11.78,9.73-1.55,23.12-3.73,29.4-11.05,5.76-6.71,5.6-18.86,4.89-27.86-3.78-62.23-7.55-124.46-11.33-186.69-.68-11.12-5.61-18.14-14.91-20.87-10.93-2.6-22.66-1.3-33.72-.73-.17-4.65-.25-6.98-.41-11.64,14.01-1.41,28.12-2.45,42.09-3.24,13.97-.79,28.11-1.27,42.15-1.65,13.91-.38,27.92-.65,41.78-.62,13.86.03,27.86.31,41.79.94.09,4.66.14,6.99.22,11.64-11.07.03-22.85-.63-33.61,2.56-9.14,3.23-13.68,10.51-13.74,21.65-.37,62.34-.74,124.68-1.11,187.02-.22,9.02.28,21.16,6.4,27.55,6.67,6.97,20.15,8.42,29.95,9.43Z"/>
    <path class="cls-10" d="M1144.71,91.79c-11.76,21.53-23.01,43.36-32.24,66.11-7.29-2.74-10.95-4.07-18.28-6.66,2.46-14.92,4.77-33.93-2.63-47.02-9.15-16.19-31.99-23.63-49.29-29.49-13.35-4.05-26.73-7.9-40.19-11.58-18.66,69.62-37.32,139.25-55.97,208.87-2.8,9.21-.77,19.39,7.53,25.01,8.56,5.04,18.12,8.28,27.45,11.59-1.7,4.46-2.54,6.68-4.23,11.14-11.73-3.79-23.59-7.47-35.36-10.82-11.66-3.32-23.55-6.47-35.43-9.18-10.64-2.42-21.4-4.5-32.16-6.38-10.75-1.87-21.53-3.54-32.33-5.11.34-4.76.51-7.14.84-11.91,11.02.7,24.96,3.18,34.49-1.45,8.71-4.23,12.41-17.48,14.06-27.02,13.25-67.1,26.49-134.2,39.74-201.29-13.23-2.6-26.51-4.96-39.82-7.08-17.76-2.9-41.41-5.34-57.12,4.72-12.98,8.31-19.84,26.47-24.02,40.94-7.61-.9-11.43-1.31-19.06-2.06,1.58-24.38,3.3-48.99,1.94-73.43,29.96,2.03,59.94,5.35,89.44,9.85,29.56,4.51,59.26,10.28,88.55,17.07,29.6,6.86,59.1,14.85,87.93,23.93,29,9.13,57.9,19.59,86.17,31.26Z"/>
    <path class="cls-10" d="M1307.54,430.23c-19.09,11.94-37.96,24.78-53.26,41.5-20.71-17.1-42.26-33.4-64.25-48.45-21.67-14.83-44.33-28.86-67.55-41.54-10.91-5.96-22.12-11.59-33.26-16.92-11.08-5.3-22.45-10.41-33.8-15.35,1.57-4.51,2.35-6.77,3.91-11.28,10.84,3.69,23.65,9.59,34.6,7.8,9.82-1.61,17.1-12.82,21.28-21.75,27.74-55.73,55.49-111.47,83.23-167.2,4.86-9.03,2.96-19.46-4.7-26.27-8.97-7.96-20.35-12.99-30.96-18.3,2.36-4.17,3.53-6.25,5.9-10.41,15.22,6.76,30.31,13.98,45.09,21.46,14.85,7.52,29.66,15.46,44.28,23.58,29.11,16.17,57.69,33.56,85.15,52.03,27.87,18.75,55.14,38.97,81.3,60.37-16.26,14.04-30.56,30.06-44.56,46.3-6.67-5.27-10.02-7.86-16.77-12.97,5.98-12.37,11.24-29.27,6.31-42.07-6.29-16.32-25.2-28.19-39.46-38.31-13.56-9.17-27.37-17.98-41.34-26.53-6.63-4.05-11.12-5.99-13.09-6.22-2.97-.35-5.89,1.35-8.38,5.59-15.43,26.32-30.87,52.65-46.3,78.97,34.07,19.18,66.9,40.03,98.76,62.7.35,1.26.52,1.89.87,3.15-6.76,8.39-10.13,12.59-16.88,20.98-29.07-25.59-60.84-47.75-93.64-68.25-13.28,22.66-26.57,45.31-39.85,67.97-4.88,7.87-10.09,19.56-6.14,28,4.01,8.58,15.2,15.15,23.5,20.39,5.63,3.66,8.43,5.52,14,9.31,14.51,9.43,31.05,20.92,48.39,21.37,15.27.39,31.1-7.26,45.35-13.19,4.95,5.38,7.4,8.09,12.26,13.57Z"/>
  </g>
</svg>