<?xml version="1.0" encoding="UTF-8"?>
<svg id="Lager_6" data-name="Lager 6" xmlns="http://www.w3.org/2000/svg" width="1401.23" height="133.15" xmlns:xlink="http://www.w3.org/1999/xlink" viewBox="0 0 1401.23 133.15">
  <defs>
    <style>
      .cls-1 {
        fill: url(#Namnlös_övertoning_47-7);
      }

      .cls-1, .cls-2, .cls-3, .cls-4, .cls-5, .cls-6, .cls-7, .cls-8, .cls-9, .cls-10, .cls-11, .cls-12, .cls-13, .cls-14, .cls-15, .cls-16, .cls-17, .cls-18 {
        stroke: #1d1d1b;
        stroke-miterlimit: 10;
      }

      .cls-1, .cls-2, .cls-3, .cls-4, .cls-5, .cls-6, .cls-7, .cls-11, .cls-12, .cls-13, .cls-14, .cls-15, .cls-17, .cls-18 {
        stroke-width: .25px;
      }

      .cls-2 {
        fill: url(#Namnlös_övertoning_47-3);
      }

      .cls-3 {
        fill: url(#Namnlös_övertoning_47-12);
      }

      .cls-4 {
        fill: url(#Namnlös_övertoning_47-13);
      }

      .cls-5 {
        fill: url(#Namnlös_övertoning_47);
      }

      .cls-6 {
        fill: url(#Namnlös_övertoning_47-8);
      }

      .cls-7 {
        fill: url(#Namnlös_övertoning_47-4);
      }

      .cls-8 {
        fill: url(#Namnlös_övertoning_47-9);
      }

      .cls-8, .cls-9, .cls-16 {
        stroke-width: .5px;
      }

      .cls-9 {
        fill: url(#Namnlös_övertoning_47-2);
      }

      .cls-10, .cls-19 {
        fill: #fff;
      }

      .cls-11, .cls-16 {
        fill: #23577a;
      }

      .cls-12 {
        fill: url(#Namnlös_övertoning_47-6);
      }

      .cls-13 {
        fill: url(#Namnlös_övertoning_47-5);
      }

      .cls-14 {
        fill: #13597e;
      }

      .cls-15 {
        fill: url(#Namnlös_övertoning_47-14);
      }

      .cls-20 {
        fill: #01513c;
      }

      .cls-20, .cls-19, .cls-21 {
        stroke-width: 0px;
      }

      .cls-17 {
        fill: url(#Namnlös_övertoning_47-11);
      }

      .cls-21 {
        fill: url(#Namnlös_övertoning_84);
      }

      .cls-18 {
        fill: url(#Namnlös_övertoning_47-10);
      }
    </style>
    <linearGradient id="Namnlös_övertoning_47" data-name="Namnlös övertoning 47" x1="29.17" y1="121.13" x2="112.5" y2="37.39" gradientTransform="translate(76.94 -26.52) rotate(45)" gradientUnits="userSpaceOnUse">
      <stop offset="0" stop-color="#cecece"/>
      <stop offset=".15" stop-color="#c8c8c8"/>
      <stop offset=".34" stop-color="#b8b8b8"/>
      <stop offset=".55" stop-color="#9e9d9d"/>
      <stop offset=".78" stop-color="#797978"/>
      <stop offset="1" stop-color="#504f4e"/>
    </linearGradient>
    <linearGradient id="Namnlös_övertoning_47-2" data-name="Namnlös övertoning 47" x1="1.4" y1="125.52" x2="20.85" y2="125.52" gradientTransform="matrix(1,0,0,1,0,0)" xlink:href="#Namnlös_övertoning_47"/>
    <linearGradient id="Namnlös_övertoning_47-3" data-name="Namnlös övertoning 47" x1="135.24" y1="19.33" x2="130.8" y2="14.49" gradientTransform="matrix(1,0,0,1,0,0)" xlink:href="#Namnlös_övertoning_47"/>
    <linearGradient id="Namnlös_övertoning_47-4" data-name="Namnlös övertoning 47" x1="4.23" y1="125.96" x2="10.26" y2="125.96" gradientTransform="matrix(1,0,0,1,0,0)" xlink:href="#Namnlös_övertoning_47"/>
    <linearGradient id="Namnlös_övertoning_47-5" data-name="Namnlös övertoning 47" x1="1.81" y1="123.67" x2="6.97" y2="123.67" gradientTransform="matrix(1,0,0,1,0,0)" xlink:href="#Namnlös_övertoning_47"/>
    <linearGradient id="Namnlös_övertoning_47-6" data-name="Namnlös övertoning 47" x1="8.31" y1="127.99" x2="13.51" y2="127.99" gradientTransform="matrix(1,0,0,1,0,0)" xlink:href="#Namnlös_övertoning_47"/>
    <linearGradient id="Namnlös_övertoning_47-7" data-name="Namnlös övertoning 47" x1="13.41" y1="129.36" x2="16.88" y2="129.36" gradientTransform="matrix(1,0,0,1,0,0)" xlink:href="#Namnlös_övertoning_47"/>
    <linearGradient id="Namnlös_övertoning_47-8" data-name="Namnlös övertoning 47" x1="120.56" y1="120.09" x2="36.1" y2="35.77" gradientTransform="translate(79.73 -33.26) rotate(45)" xlink:href="#Namnlös_övertoning_47"/>
    <linearGradient id="Namnlös_övertoning_47-9" data-name="Namnlös övertoning 47" x1="149.25" y1="125.47" x2="129.8" y2="125.61" gradientTransform="matrix(1,0,0,1,0,0)" xlink:href="#Namnlös_övertoning_47"/>
    <linearGradient id="Namnlös_övertoning_47-10" data-name="Namnlös övertoning 47" x1="15.33" y1="19" x2="20.02" y2="14.46" gradientTransform="matrix(1,0,0,1,0,0)" xlink:href="#Namnlös_övertoning_47"/>
    <linearGradient id="Namnlös_övertoning_47-11" data-name="Namnlös övertoning 47" x1="146.27" y1="125.96" x2="140.24" y2="125.96" gradientTransform="matrix(1,0,0,1,0,0)" xlink:href="#Namnlös_övertoning_47"/>
    <linearGradient id="Namnlös_övertoning_47-12" data-name="Namnlös övertoning 47" x1="148.69" y1="123.67" x2="143.54" y2="123.67" gradientTransform="matrix(1,0,0,1,0,0)" xlink:href="#Namnlös_övertoning_47"/>
    <linearGradient id="Namnlös_övertoning_47-13" data-name="Namnlös övertoning 47" x1="142.19" y1="127.99" x2="136.99" y2="127.99" gradientTransform="matrix(1,0,0,1,0,0)" xlink:href="#Namnlös_övertoning_47"/>
    <linearGradient id="Namnlös_övertoning_47-14" data-name="Namnlös övertoning 47" x1="137.09" y1="129.36" x2="133.62" y2="129.36" gradientTransform="matrix(1,0,0,1,0,0)" xlink:href="#Namnlös_övertoning_47"/>
    <radialGradient id="Namnlös_övertoning_84" data-name="Namnlös övertoning 84" cx="74.23" cy="69.69" fx="74.23" fy="-47.26" r="116.95" gradientTransform="translate(65.64 -26.69) rotate(45) scale(1 .89)" gradientUnits="userSpaceOnUse">
      <stop offset=".44" stop-color="#fff"/>
      <stop offset=".5" stop-color="#fbfcfc"/>
      <stop offset=".55" stop-color="#f0f4f3"/>
      <stop offset=".59" stop-color="#dde8e5"/>
      <stop offset=".64" stop-color="#c3d6d1"/>
      <stop offset=".68" stop-color="#a1bfb7"/>
      <stop offset=".73" stop-color="#78a398"/>
      <stop offset=".77" stop-color="#478172"/>
      <stop offset=".82" stop-color="#105b48"/>
      <stop offset=".83" stop-color="#00513c"/>
    </radialGradient>
  </defs>
  <g>
    <rect class="cls-5" x="10.04" y="78.29" width="120.89" height="2.65" transform="translate(-35.65 73.16) rotate(-45)"/>
    <path class="cls-11" d="M123.52,31.58l25.63-25.63c1.1-1.1,1.1-2.89,0-3.99l-1.01-1.01c-1.1-1.1-2.89-1.1-3.99,0l-25.63,25.63,5,5Z"/>
    <polygon class="cls-11" points="114.15 37.82 123.52 31.58 118.51 26.58 112.28 35.94 114.15 37.82"/>
    <path class="cls-16" d="M4.73,117.73c6.4.93,12.78,11.76,17.71,6.83l4.29-4.29,3.09,3.09-4.29,4.29c-8.61,8.61-20.34,3.97-23.44.87-3.24-3.23-2.12-11.49,2.63-10.8Z"/>
    <path class="cls-9" d="M13.98,131.48c-5.1,0-9.62-2.23-11.2-3.8-1.38-1.38-1.81-4.49-.91-6.65.4-.98.95-1.47,1.63-1.47.09,0,.19,0,.29.02,2.26.33,4.85,2.33,7.36,4.26,3.12,2.4,6.06,4.67,9.27,4.67,1.76,0-2.03,2.97-6.42,2.97Z"/>
    <path class="cls-2" d="M141.59,3.51l1.09-1.09,5,5-1.09,1.09-5-5ZM142.75,12.35l1.09-1.09-5-5-1.09,1.09,5,5ZM138.9,16.2l1.09-1.09-5-5-1.09,1.09,5,5ZM135.05,20.04l1.09-1.09-5-5-1.09,1.09,5,5ZM131.21,23.89l1.09-1.09-5-5-1.09,1.09,5,5ZM127.36,27.74l1.09-1.09-5-5-1.09,1.09,5,5ZM123.52,31.58l1.09-1.09-5-5-1.09,1.09,5,5Z"/>
    <g>
      <path class="cls-7" d="M5.23,129.34c2.7-1.55,4.17-3.32,5.03-6.17-.26-.2-.51-.39-.77-.58-.77,2.76-2.97,5.03-5.26,6.19.31.19.64.38,1,.56Z"/>
      <path class="cls-13" d="M6.16,120.42c-.69,2.36-2.42,4.36-4.34,5.59.12.33.25.63.41.91,2.53-1.51,3.92-3.28,4.74-6.05-.27-.16-.54-.31-.81-.45Z"/>
      <path class="cls-12" d="M13.51,125.62c-.26-.18-.52-.38-.78-.57-.73,2.36-2.48,4.34-4.42,5.54.41.13.84.24,1.28.34,1.99-1.36,3.18-2.97,3.92-5.31Z"/>
      <path class="cls-1" d="M16.88,127.66c-.27-.13-.55-.27-.82-.42-.49,1.62-1.45,3.07-2.65,4.21.19,0,.38.03.57.03.31,0,.62-.02.92-.05.9-1.03,1.52-2.25,1.98-3.77Z"/>
    </g>
  </g>
  <g>
    <rect class="cls-6" x="78.69" y="19.17" width="2.65" height="120.89" transform="translate(-32.86 79.9) rotate(-45)"/>
    <path class="cls-11" d="M26.98,31.58L1.36,5.95C.26,4.85.26,3.07,1.36,1.96l1.01-1.01C3.47-.15,5.26-.15,6.36.95l25.63,25.63-5,5Z"/>
    <polygon class="cls-14" points="36.35 37.82 26.98 31.58 31.99 26.58 38.22 35.94 36.35 37.82"/>
    <path class="cls-16" d="M145.77,117.73c-6.4.93-12.78,11.76-17.71,6.83l-4.29-4.29-3.09,3.09,4.29,4.29c8.61,8.61,20.34,3.97,23.44.87,3.24-3.23,2.12-11.49-2.63-10.8Z"/>
    <path class="cls-8" d="M136.52,131.48c5.1,0,9.62-2.23,11.2-3.8,1.38-1.38,1.81-4.49.91-6.65-.4-.98-.95-1.47-1.63-1.47-.09,0-.19,0-.29.02-2.26.33-4.85,2.33-7.36,4.26-3.12,2.4-6.06,4.67-9.27,4.67-1.76,0,2.03,2.97,6.42,2.97Z"/>
    <path class="cls-18" d="M3.91,8.51l-1.09-1.09L7.82,2.42l1.09,1.09-5,5ZM12.76,7.35l-1.09-1.09-5,5,1.09,1.09,5-5ZM16.6,11.2l-1.09-1.09-5,5,1.09,1.09,5-5ZM20.45,15.04l-1.09-1.09-5,5,1.09,1.09,5-5ZM24.29,18.89l-1.09-1.09-5,5,1.09,1.09,5-5ZM28.14,22.74l-1.09-1.09-5,5,1.09,1.09,5-5ZM31.99,26.58l-1.09-1.09-5,5,1.09,1.09,5-5Z"/>
    <g>
      <path class="cls-17" d="M145.27,129.34c-2.7-1.55-4.17-3.32-5.03-6.17.26-.2.51-.39.77-.58.77,2.76,2.97,5.03,5.26,6.19-.31.19-.64.38-1,.56Z"/>
      <path class="cls-3" d="M144.34,120.42c.69,2.36,2.42,4.36,4.34,5.59-.12.33-.25.63-.41.91-2.53-1.51-3.92-3.28-4.74-6.05.27-.16.54-.31.81-.45Z"/>
      <path class="cls-4" d="M136.99,125.62c.26-.18.52-.38.78-.57.73,2.36,2.48,4.34,4.42,5.54-.41.13-.84.24-1.28.34-1.99-1.36-3.18-2.97-3.92-5.31Z"/>
      <path class="cls-15" d="M133.62,127.66c.27-.13.55-.27.82-.42.49,1.62,1.45,3.07,2.65,4.21-.19,0-.38.03-.57.03-.31,0-.62-.02-.92-.05-.9-1.03-1.52-2.25-1.98-3.77Z"/>
    </g>
  </g>
  <g>
    <circle class="cls-21" cx="74.23" cy="69.69" r="63.11" transform="translate(-27.54 72.9) rotate(-45)"/>
    <path class="cls-20" d="M13.9,79.25c-.39-.8-.84-1.42-1.29-1.62-.09-.04-.18-.06-.27-.06-.16,0-.32.07-.44.2-.04.04-.07.09-.1.14-.06-1.36.09-2.29.32-2.55.53.12,1.25,1.64,1.78,3.9Z"/>
    <path class="cls-20" d="M30.6,71.23c-1.16-2.26-3.14-3.67-5.26-3.67-1.87.02-3.49,1.22-4.37,3.09.21-3.47,2.09-6.26,4.41-6.38h.17c2.59,0,4.77,3.07,5.04,6.96Z"/>
    <path class="cls-20" d="M29.17,57.57c.56-3.79,3.33-7.06,6.44-7.45.22-.03.43-.04.65-.04,1.37,0,2.61.54,3.59,1.57,1.22,1.28,1.89,3.21,1.86,5.33-1.15-2.17-3.34-3.53-5.81-3.53-.23,0-.46.01-.7.04-2.48.25-4.73,1.81-6.03,4.09Z"/>
    <path class="cls-20" d="M14.15,59.07c-.25-.69-.6-1.06-1.03-1.06-.12,0-.24.03-.36.09-.22.11-.43.34-.62.64.39-1.57.89-2.7,1.27-2.93.05-.03.09-.04.12-.04.01,0,.06,0,.13.07.29.32.53,1.43.49,3.23Z"/>
    <path class="cls-20" d="M16.45,70.1c-.64-1.48-1.52-2.34-2.47-2.34-.72.02-1.34.58-1.76,1.52.23-2.43,1.05-4.08,1.84-4.17h0c1.03,0,2.09,1.88,2.39,4.98Z"/>
    <path class="cls-20" d="M116.39,57.48c-1.33-2.33-3.69-3.93-6.27-4.17-.23-.02-.46-.03-.69-.03-2.58,0-4.87,1.39-6.06,3.61-.03-2.12.66-4.07,1.9-5.37,1.03-1.08,2.34-1.65,3.8-1.65.21,0,.42.01.64.04,3.25.38,6.13,3.7,6.67,7.57Z"/>
    <path class="cls-20" d="M122.77,45.98c-1.22-1.85-2.98-3.23-4.78-3.68-.44-.11-.86-.16-1.28-.16-1.62,0-2.94.86-3.63,2.29-.17-1.68.16-3.13.93-4.03.54-.63,1.27-.96,2.12-.96.33,0,.68.05,1.04.15,2.31.65,4.64,3.38,5.59,6.38Z"/>
    <path class="cls-20" d="M105.52,43.26c-1.62-2.35-4.42-4.01-7.41-4.33-.35-.04-.7-.06-1.04-.06-2.81,0-5.19,1.23-6.41,3.25-.06-1.71.5-3.28,1.58-4.43,1.12-1.2,2.72-1.85,4.51-1.85.29,0,.59.02.89.05,3.74.44,7.16,3.69,7.89,7.36Z"/>
    <path class="cls-20" d="M125.33,37.28c-.91-1.11-1.95-2-2.93-2.49-.56-.27-1.08-.41-1.55-.41-.8,0-1.4.4-1.71,1.1-.29-1.2-.25-2.15.13-2.66.19-.25.46-.38.81-.38s.72.11,1.15.34c1.39.72,2.99,2.52,4.1,4.5Z"/>
    <path class="cls-20" d="M64.74,41.73c.3-3.99,4.05-7.2,8.5-7.21,4.45,0,8.19,3.2,8.48,7.2-1.68-2.48-4.91-4.04-8.48-4.04-3.59,0-6.82,1.58-8.5,4.06Z"/>
    <path class="cls-20" d="M94.94,56.57c-1.66-2.73-4.87-4.51-8.45-4.61h-.31c-3.57,0-6.74,1.68-8.35,4.35.04-2.16.88-4.17,2.38-5.67,1.54-1.55,3.62-2.41,5.84-2.41h.29c4.49.16,8.28,3.87,8.6,8.33Z"/>
    <path class="cls-20" d="M50.61,56.61c.34-4.44,4.1-8.14,8.53-8.31h.32c2.19,0,4.23.84,5.75,2.37,1.48,1.5,2.32,3.5,2.35,5.66-1.59-2.65-4.73-4.32-8.25-4.32h-.34c-3.54.12-6.71,1.89-8.37,4.61Z"/>
    <path class="cls-20" d="M40.51,43.37c.75-3.65,4.13-6.88,7.81-7.35.31-.04.62-.06.92-.06,1.74,0,3.3.64,4.39,1.82,1.06,1.14,1.61,2.7,1.55,4.41-1.19-2-3.52-3.21-6.28-3.21-.35,0-.71.02-1.07.06-2.95.33-5.7,1.99-7.31,4.33Z"/>
    <path class="cls-20" d="M22.92,83.06c-1.06-1.9-2.53-3.2-3.96-3.47-.16-.03-.32-.04-.47-.04-1.01,0-1.81.65-2.24,1.75-.07-1.73.28-3.22.98-4.03.34-.39.74-.59,1.18-.59.06,0,.13,0,.19.01,1.79.23,3.64,3.04,4.32,6.37Z"/>
    <path class="cls-20" d="M16.39,58.51c.6-2.82,2.09-5.19,3.65-5.6.17-.04.33-.07.49-.07.51,0,.97.22,1.37.65.84.91,1.29,2.6,1.25,4.62-.64-1.54-1.75-2.45-3.06-2.45-.2,0-.4.02-.6.06-1.19.25-2.31,1.28-3.1,2.78Z"/>
    <path class="cls-20" d="M15.02,48.47c.75-1.89,1.77-3.48,2.66-4.01.2-.12.39-.18.55-.18.17,0,.32.07.44.23.33.41.56,1.45.31,3.22-.28-.78-.77-1.22-1.42-1.22-.27,0-.56.08-.86.24-.56.3-1.15.91-1.68,1.73Z"/>
    <path class="cls-20" d="M81.1,72.02c-1.69-2.87-5.09-4.68-8.94-4.68-3.83,0-7.22,1.81-8.9,4.67.05-2.3.96-4.45,2.59-6.09,1.68-1.69,3.93-2.63,6.31-2.63,2.39,0,4.64.93,6.33,2.63,1.64,1.64,2.56,3.8,2.61,6.11Z"/>
    <path class="cls-20" d="M102.21,86.29c.49-4.3,3.78-7.89,7.51-8.09.09,0,.19,0,.28,0,1.44,0,2.77.59,3.74,1.67,1.13,1.25,1.71,3.06,1.61,5.02-.93-1.93-2.91-3.14-5.32-3.14-.19,0-.38,0-.58.02-2.87.22-5.67,2-7.26,4.52Z"/>
    <path class="cls-20" d="M66.61,87.4c-1.7-2.69-5.07-4.5-8.69-4.61h-.32c-3.4,0-6.31,1.52-7.67,3.95-.05-2.06.67-3.99,2.05-5.45,1.45-1.54,3.47-2.39,5.67-2.39h.16c4.7.1,8.59,3.88,8.8,8.49Z"/>
    <path class="cls-20" d="M53.32,71.89c-1.59-2.72-4.66-4.48-7.94-4.48-3.17.02-5.89,1.62-7.24,4.15.14-4.34,3.32-7.88,7.26-7.97h.15c4.16,0,7.6,3.7,7.77,8.31Z"/>
    <path class="cls-20" d="M90.47,71.94c.16-4.67,3.72-8.42,8.03-8.42h.14c4.11.09,7.43,3.69,7.56,8.12-1.4-2.59-4.24-4.23-7.5-4.24-3.43,0-6.61,1.79-8.23,4.55Z"/>
    <path class="cls-20" d="M76.76,87.45c.16-4.63,4.09-8.41,8.86-8.48h0c2.41,0,4.51.88,6.02,2.47,1.41,1.48,2.16,3.43,2.12,5.5-1.43-2.49-4.46-4.07-7.98-4.07h-.25c-3.67.09-7.08,1.89-8.77,4.58Z"/>
    <path class="cls-20" d="M41.17,85.95c-1.54-2.47-4.17-4.21-6.85-4.44-.2-.02-.4-.03-.59-.03-2.2,0-4,1.13-4.85,2.96-.1-1.94.45-3.72,1.53-4.92.89-.99,2.04-1.51,3.34-1.51.09,0,.19,0,.29,0,3.48.21,6.59,3.72,7.12,7.93Z"/>
    <path class="cls-20" d="M58.31,13.11c1.06-1.38,3.76-2.58,6.54-2.83.38-.04.75-.05,1.11-.05,1.95,0,3.63.5,4.4,1.3.23.24.37.5.41.77-1.01-.77-2.83-1.24-4.92-1.24-.43,0-.88.02-1.33.06-2.39.21-4.7.96-6.21,1.99Z"/>
    <path class="cls-20" d="M114.1,71.34c.26-4,2.61-7.16,5.41-7.16h.18c2.53.13,4.56,3.02,4.77,6.61-.93-1.96-2.69-3.22-4.67-3.25h0c-2.33,0-4.45,1.46-5.67,3.8Z"/>
    <path class="cls-20" d="M131.78,48.39c-.57-.87-1.2-1.53-1.81-1.85-.31-.16-.61-.24-.89-.24-.68,0-1.21.46-1.5,1.28-.25-1.78,0-2.85.34-3.27.14-.17.3-.25.49-.25.17,0,.36.06.58.19.94.54,2.01,2.2,2.79,4.15Z"/>
    <path class="cls-20" d="M129.33,70.27c.28-2.99,1.37-5.27,2.6-5.27.99.1,1.96,1.87,2.21,4.46-.47-1.07-1.18-1.71-1.99-1.73h0c-1.09,0-2.11.96-2.82,2.54Z"/>
    <path class="cls-20" d="M133.07,79.92c.58-2.52,1.46-4.23,2.1-4.4.01,0,.03,0,.04,0,.05,0,.1.01.16.09.29.33.48,1.34.43,2.8-.06-.11-.12-.22-.2-.3-.15-.16-.34-.25-.55-.25-.1,0-.19.02-.3.06-.61.23-1.19,1.02-1.68,2Z"/>
    <path class="cls-20" d="M129.9,58.45c-.83-1.58-2.04-2.67-3.34-2.92-.21-.04-.41-.06-.62-.06-1.4,0-2.59.95-3.27,2.55-.04-2.03.43-3.76,1.3-4.7.44-.48.96-.72,1.52-.72.17,0,.34.02.52.06,1.68.42,3.28,2.88,3.88,5.79Z"/>
    <path class="cls-20" d="M133.39,59.01c-.04-1.85.22-3.01.56-3.37.1-.11.17-.11.19-.11.04,0,.1.02.15.05.44.25,1.02,1.47,1.43,3.16-.23-.4-.5-.69-.79-.83-.13-.06-.26-.09-.38-.09-.49,0-.89.41-1.16,1.19Z"/>
    <path class="cls-20" d="M90.93,13.46c-1.52-1.05-3.82-1.85-6.18-2.11-.55-.06-1.09-.09-1.62-.09-1.95,0-3.58.42-4.51,1.13.03-.29.15-.54.35-.76.69-.75,2.19-1.2,4.01-1.2.43,0,.89.03,1.35.08,2.83.32,5.53,1.57,6.59,2.96Z"/>
    <path class="cls-20" d="M106.39,17.06c-1.22-.81-2.63-1.51-3.98-1.96-1.03-.34-2-.52-2.81-.52s-1.46.19-1.83.55c-.11-.28-.17-.64,0-.91.19-.3.66-.46,1.32-.46s1.44.15,2.3.44c1.75.59,3.62,1.69,4.99,2.85Z"/>
    <path class="cls-20" d="M81.5,19.59c-1.48-1.56-4.24-2.58-7.25-2.62-2.99,0-5.72.97-7.19,2.49l-.02-.19-.17.17c.43-2.26,3.55-4.04,7.18-4.04h.17c3.72.03,6.87,1.81,7.39,4.05l-.06-.07-.05.21Z"/>
    <path class="cls-20" d="M102.02,22.29c-1.58-1.6-4.05-2.88-6.56-3.37-.65-.11-1.29-.17-1.89-.17-1.88,0-3.4.56-4.2,1.52l-.06-.19-.15.18c-.09-.71.09-1.34.52-1.85.65-.77,1.87-1.22,3.34-1.22.52,0,1.07.05,1.63.16l.18.04c3.02.58,6.01,2.62,7.16,4.75l.03.15Z"/>
    <path class="cls-20" d="M93.69,30.08c-1.68-2.04-4.6-3.45-7.71-3.69-.3-.02-.6-.03-.89-.03-2.86,0-5.4,1.08-6.71,2.81.02-1.2.49-2.3,1.35-3.19,1.21-1.25,3.1-1.97,5.17-1.97.24,0,.49,0,.74.03,3.84.31,7.33,2.97,8.05,6.04Z"/>
    <path class="cls-20" d="M113.06,33.32c-1.51-1.81-3.7-3.23-5.91-3.76-.63-.15-1.24-.22-1.82-.22-1.78,0-3.19.7-3.92,1.9-.17-1.21.06-2.23.67-2.97.6-.73,1.57-1.12,2.71-1.12.47,0,.97.07,1.49.2,2.78.71,5.62,3.27,6.77,5.98Z"/>
    <path class="cls-20" d="M41.85,16.64c1.39-1.2,3.32-2.3,5.14-2.87.85-.27,1.65-.41,2.3-.41.74,0,1.27.18,1.49.51.15.22.16.52.04.89-.41-.38-1.1-.58-2-.58-.81,0-1.78.16-2.8.48-1.43.44-2.91,1.15-4.17,1.99Z"/>
    <path class="cls-20" d="M116.97,26.8c-1.22-1.21-2.69-2.25-4.07-2.85-.81-.33-1.53-.5-2.17-.5-.85,0-1.48.3-1.81.84l-.1-.2-.06.14c-.26-.78-.25-1.42.01-1.81.26-.38.74-.46,1.09-.46.5,0,1.11.15,1.78.44l.13.06c1.86.81,3.88,2.53,5.2,4.33Z"/>
    <path class="cls-20" d="M53.71,30.04c.71-3.07,4.2-5.73,8.05-6.03.24-.02.48-.03.72-.03,2.09,0,3.98.72,5.2,1.98.87.9,1.34,2,1.37,3.2-1.32-1.74-3.87-2.83-6.75-2.83-.29,0-.57,0-.87.03-3.12.23-6.04,1.64-7.73,3.68Z"/>
    <path class="cls-20" d="M45.75,21.98c1.14-2.14,4.14-4.16,7.16-4.72l.18-.03c.59-.11,1.12-.16,1.64-.16,1.52,0,2.77.45,3.44,1.25.43.51.61,1.14.54,1.84l-.08-.11-.09.17c-.81-1-2.39-1.59-4.34-1.59-.59,0-1.21.05-1.84.16-2.54.47-5.04,1.75-6.62,3.35l.02-.16Z"/>
    <path class="cls-20" d="M121.79,83.59c.67-3.53,2.7-6.44,4.78-6.68.07,0,.15-.01.22-.01.56,0,1.05.24,1.46.72.76.87,1.15,2.43,1.07,4.2-.48-1.22-1.42-1.95-2.6-1.95-.16,0-.33.01-.5.04-1.63.26-3.28,1.66-4.43,3.68Z"/>
    <path class="cls-20" d="M33.81,33.37c1.16-2.7,3.98-5.26,6.75-5.97.52-.13,1.02-.2,1.49-.2,1.15,0,2.08.39,2.68,1.11.62.74.85,1.76.67,2.97-.72-1.2-2.12-1.89-3.89-1.89-.58,0-1.19.07-1.82.23-2.2.53-4.38,1.94-5.88,3.75Z"/>
    <path class="cls-20" d="M23.66,46.11c.95-2.96,3.22-5.66,5.46-6.31.36-.1.7-.15,1.03-.15.81,0,1.51.32,2.02.92.76.88,1.08,2.33.9,4-.66-1.41-1.94-2.25-3.51-2.25-.41,0-.84.06-1.27.17-1.74.46-3.44,1.81-4.64,3.63Z"/>
    <path class="cls-20" d="M30.49,26.64c1.33-1.83,3.4-3.58,5.29-4.39l.13-.05c.71-.3,1.31-.44,1.82-.44.37,0,.88.08,1.15.48.27.39.28,1.02.04,1.79l-.03-.08-.11.19c-.34-.57-1-.89-1.9-.89-.65,0-1.38.16-2.19.48-1.44.6-2.96,1.67-4.21,2.91Z"/>
    <path class="cls-20" d="M21.63,37.32c1.11-1.97,2.69-3.75,4.07-4.48.43-.22.82-.34,1.15-.34s.61.13.79.37c.37.5.42,1.45.13,2.65-.31-.7-.9-1.09-1.69-1.09-.47,0-.99.14-1.55.41-.97.48-2,1.37-2.9,2.47Z"/>
    <g>
      <path class="cls-19" d="M30.37,97.91c-.33,0-.67-.05-1.02-.15-2.27-.64-4.57-3.37-5.51-6.37,1.21,1.84,2.93,3.21,4.7,3.65.43.11.85.16,1.25.16,1.6,0,2.92-.86,3.6-2.3.17,1.7-.16,3.16-.94,4.06-.53.62-1.26.94-2.08.94h0Z"/>
      <path class="cls-19" d="M26.95,105.18c-.33,0-.72-.11-1.15-.33-1.41-.72-3.03-2.56-4.15-4.58.93,1.14,1.99,2.06,2.99,2.54.56.27,1.07.4,1.54.4.82,0,1.44-.41,1.75-1.14.29,1.22.23,2.19-.15,2.7-.19.26-.48.4-.84.4t0,0Z"/>
      <path class="cls-19" d="M62.92,113.57c-.22,0-.45,0-.68-.03-3.88-.29-7.4-2.97-8.08-6.08,1.68,2.06,4.63,3.48,7.77,3.7.28.02.55.03.82.03,2.92,0,5.51-1.11,6.85-2.89-.03,1.22-.52,2.35-1.41,3.26-1.24,1.27-3.16,2.01-5.27,2.01h0Z"/>
      <path class="cls-19" d="M42.32,110.43c-.47,0-.96-.06-1.47-.19-2.81-.7-5.67-3.3-6.81-6.04,1.51,1.84,3.72,3.26,5.96,3.79.62.14,1.22.22,1.79.22,1.81,0,3.25-.71,3.99-1.95.17,1.23-.07,2.27-.7,3.03-.62.74-1.6,1.15-2.76,1.15h0Z"/>
      <path class="cls-19" d="M49.64,101.51c-.29,0-.59-.02-.89-.05-3.72-.45-7.12-3.71-7.85-7.4,1.61,2.36,4.39,4.02,7.37,4.34.35.04.7.06,1.04.06,2.8,0,5.17-1.23,6.38-3.26.06,1.74-.5,3.32-1.58,4.47-1.11,1.19-2.7,1.84-4.46,1.84h0Z"/>
      <path class="cls-19" d="M18.29,93.34c-.16,0-.35-.06-.55-.18-.92-.53-1.96-2.16-2.71-4.1.55.85,1.16,1.48,1.75,1.8.3.16.59.23.86.23.67,0,1.19-.46,1.48-1.28.24,1.8,0,2.86-.35,3.28-.13.16-.29.24-.47.24h0Z"/>
      <path class="cls-19" d="M73.8,102.88c-4.46,0-8.21-3.23-8.5-7.26,1.68,2.5,4.92,4.07,8.5,4.07,3.59,0,6.83-1.59,8.52-4.09-.3,4.03-4.06,7.26-8.52,7.27h0Z"/>
      <path class="cls-19" d="M73.68,131.24c-2.41,0-4.45-.52-5.35-1.13,1.29.54,3.26.87,5.35.87,2.03,0,3.93-.31,5.23-.81-.99.6-2.93,1.07-5.2,1.07h-.03Z"/>
      <path class="cls-19" d="M59.2,129.77c-.74,0-1.62-.11-2.56-.31-1.22-.27-2.46-.68-3.52-1.14.91.34,1.88.63,2.85.83,1.08.23,2.11.35,2.99.35.65,0,1.48-.07,2.02-.36.01.09-.02.15-.04.19-.07.1-.4.44-1.73.44h0Z"/>
      <path class="cls-19" d="M110.33,115.54c-.35,0-.82-.08-1.08-.46-.27-.39-.28-1.03-.02-1.82.34.54.97.83,1.81.83.65,0,1.4-.18,2.22-.52,1.29-.54,2.64-1.48,3.81-2.59-1.32,1.73-3.24,3.35-4.99,4.12-.66.29-1.26.44-1.75.44h0Z"/>
      <path class="cls-19" d="M120.49,104.99c-.34,0-.61-.13-.79-.37-.38-.51-.43-1.47-.14-2.69.31.71.9,1.11,1.7,1.11.46,0,.97-.14,1.52-.41.97-.48,1.99-1.37,2.89-2.47-1.1,1.98-2.68,3.78-4.05,4.5-.42.22-.8.33-1.13.33h0Z"/>
      <path class="cls-19" d="M88.17,129.71c-1.29,0-1.61-.32-1.67-.42-.03-.04-.06-.1-.04-.2.52.29,1.33.35,1.96.35.88,0,1.93-.13,3.02-.37.93-.2,1.86-.48,2.73-.81-1.05.45-2.25.85-3.43,1.12-.95.21-1.84.32-2.58.32h0Z"/>
      <path class="cls-19" d="M92.99,130.44s.04-.02.05-.02c-.02,0-.04,0-.05.02Z"/>
      <path class="cls-19" d="M85.44,113.46c-2.06,0-3.93-.71-5.14-1.96-.88-.91-1.34-2.02-1.36-3.24,1.3,1.76,3.79,2.82,6.69,2.82.3,0,.6-.01.92-.04,3.11-.24,6.03-1.67,7.71-3.73-.72,3.1-4.22,5.79-8.06,6.11-.26.02-.51.03-.76.03Z"/>
      <path class="cls-19" d="M116.61,97.92c-.83,0-1.56-.33-2.09-.95-.78-.9-1.11-2.37-.95-4.07.68,1.44,2,2.31,3.61,2.31.41,0,.82-.05,1.25-.16,1.78-.45,3.51-1.82,4.72-3.66-.94,3.01-3.24,5.74-5.52,6.38-.35.1-.69.15-1.02.15h0Z"/>
      <path class="cls-19" d="M97.9,101.45c-1.74,0-3.31-.65-4.41-1.82-1.07-1.15-1.63-2.73-1.57-4.46,1.2,2.02,3.55,3.24,6.32,3.24.34,0,.7-.02,1.05-.06,2.95-.33,5.71-1.99,7.32-4.34-.74,3.68-4.12,6.93-7.81,7.39-.3.04-.6.05-.9.05h0Z"/>
      <path class="cls-19" d="M105.33,110.28c-1.14,0-2.07-.39-2.68-1.12-.63-.75-.86-1.79-.68-3.02.72,1.22,2.12,1.92,3.9,1.92.58,0,1.18-.07,1.8-.22,2.19-.53,4.37-1.95,5.87-3.77-1.15,2.73-3.97,5.31-6.74,6.02-.51.13-1.01.19-1.48.19h0Z"/>
      <path class="cls-19" d="M128.72,93.36c-.19,0-.34-.08-.48-.24-.35-.42-.59-1.49-.35-3.28.29.82.81,1.28,1.48,1.28.27,0,.56-.08.86-.23.59-.31,1.21-.95,1.76-1.81-.76,1.94-1.8,3.58-2.73,4.12-.2.11-.39.18-.55.18h0Z"/>
      <path class="cls-19" d="M74.49,122.22c-3.6,0-6.69-1.78-7.14-4.04,1.49,1.5,4.2,2.44,7.15,2.44,3.08-.03,5.85-1.01,7.39-2.54-.52,2.28-3.68,4.1-7.31,4.14h-.09Z"/>
      <path class="cls-19" d="M66.09,127.52c-.35,0-.71-.01-1.07-.05-2.88-.26-5.67-1.52-6.65-2.93,1.51,1.07,3.87,1.85,6.33,2.06.44.04.87.06,1.29.06,2.11,0,3.95-.48,4.98-1.26-.05.3-.19.56-.42.8-.78.82-2.49,1.33-4.45,1.33h0Z"/>
      <path class="cls-19" d="M54.83,120.6c-.5,0-1.03-.05-1.57-.15-3.04-.55-6.06-2.58-7.19-4.74,1.62,1.54,4.05,2.74,6.52,3.16.65.11,1.29.17,1.9.17,1.96,0,3.55-.58,4.4-1.58.07.71-.13,1.35-.56,1.86-.69.81-1.97,1.28-3.5,1.28Z"/>
      <path class="cls-19" d="M49.33,124.41c-.65,0-1.44-.14-2.28-.4-1.92-.6-3.96-1.78-5.34-3.03,1.31.89,2.87,1.66,4.38,2.11,1,.31,1.96.47,2.77.47.94,0,1.66-.21,2.07-.61.13.38.11.69-.05.92-.23.34-.78.53-1.55.53h0Z"/>
      <path class="cls-19" d="M94.02,120.27c-1.45,0-2.59-.42-3.24-1.19-.42-.5-.59-1.14-.51-1.86.79.95,2.27,1.5,4.11,1.5.65,0,1.32-.07,2.02-.2,2.39-.46,4.75-1.66,6.36-3.19-1.18,2.14-4.13,4.17-7.08,4.76-.57.12-1.13.18-1.66.18h0Z"/>
      <path class="cls-19" d="M83.24,127.29c-1.82,0-3.32-.45-4.01-1.21-.23-.25-.35-.52-.38-.81.93.74,2.56,1.16,4.53,1.16.53,0,1.08-.03,1.63-.09,2.38-.27,4.69-1.08,6.21-2.16-1.06,1.42-3.78,2.7-6.63,3.03-.47.05-.92.08-1.36.08h0Z"/>
      <path class="cls-19" d="M99.41,123.9c-.66,0-1.13-.16-1.33-.46-.18-.27-.12-.64,0-.94.37.36,1.01.56,1.85.56s1.77-.18,2.78-.52c1.37-.45,2.8-1.17,4.03-2.01-1.37,1.19-3.27,2.33-5.04,2.93-.85.29-1.64.44-2.28.44h0Z"/>
      <path class="cls-19" d="M37.74,115.94c-.51,0-1.11-.14-1.78-.42-1.85-.77-3.86-2.45-5.2-4.22,1.22,1.16,2.67,2.14,4.04,2.69.83.33,1.58.5,2.25.5.9,0,1.58-.31,1.94-.87.24.78.22,1.43-.05,1.83-.3.41-.82.5-1.2.5h0Z"/>
    </g>
  </g>
  <g>
    <path class="cls-10" d="M276.51,100.57c-3.21,11.5-5.03,21.35-5.45,29.54-7.19,0-18.05-.04-32.59-.13-14.54-.08-25.4-.13-32.59-.13-2.71,0-7.86.04-15.47.13-7.61.09-12.77.13-15.47.13l-.38-5.33c7.35-.51,12.09-1.6,14.2-3.3,2.54-2.03,3.8-6.34,3.8-12.93V25c0-4.9-1.69-8.12-5.07-9.64-1.78-.84-5.58-1.39-11.41-1.65l.38-5.33c2.79,0,8.03.04,15.72.13,7.69.09,12.93.13,15.72.13,6.85,0,17.18-.04,31-.13,13.82-.08,24.16-.13,31-.13-.93,7.78-1.48,17.33-1.65,28.66l-6.85.13c-1.52-8.62-3.7-14.18-6.53-16.67-2.83-2.49-8.52-3.74-17.05-3.74h-15.47c-2.45,0-3.97.21-4.56.63-.93.51-1.39,1.86-1.39,4.06v40.96l40.45-1.27.89.89-.25,12.05c-10.14-.93-23.84-1.6-41.08-2.03v35.25c0,6.26,1.18,10.31,3.55,12.17,1.86,1.44,5.96,2.16,12.3,2.16h6.72c9.55,0,16.36-1.65,20.41-4.95,3.13-2.54,6.59-8.28,10.4-17.24l6.72,1.14Z"/>
    <path class="cls-10" d="M334.37,124.79l-.25,5.33c-2.54,0-6.83-.04-12.87-.13-6.04-.08-10.33-.13-12.87-.13-2.2,0-6.07.04-11.6.13-5.54.09-9.41.13-11.6.13l-.38-5.33c6-.51,9.76-1.86,11.29-4.06,1.27-1.69,1.9-5.54,1.9-11.54V25c0-5.07-1.06-8.28-3.17-9.64-1.01-.68-4.35-1.52-10.02-2.54l-.38-5.33c16.06-2.2,27.9-4.48,35.5-6.85l2.66,1.01c-1.18,7.69-1.78,17.8-1.78,30.31v83.05c0,4.56,1.22,7.44,3.68,8.62,1.1.42,4.39.8,9.89,1.14Z"/>
    <path class="cls-10" d="M389.18,124.79l-.25,5.33c-2.28,0-6.28-.04-11.98-.13-5.71-.08-9.7-.13-11.98-.13-2.11,0-6.04.04-11.79.13-5.75.09-9.68.13-11.79.13l-.38-5.33c6-.51,9.81-1.86,11.41-4.06,1.27-1.78,1.9-5.62,1.9-11.54v-29.8c0-4.82-.85-7.9-2.54-9.26-1.1-.93-4.14-1.82-9.13-2.66l-.38-5.33c13.95-2.2,24.35-4.48,31.19-6.85l4.56,1.01c-.59,4.14-.89,7.65-.89,10.52v48.06c0,4.48,1.01,7.31,3.04,8.5,1.1.59,4.1,1.06,9,1.39ZM375.87,28.17c0,3.47-1.25,6.45-3.74,8.94s-5.47,3.74-8.94,3.74-6.45-1.25-8.94-3.74c-2.49-2.49-3.74-5.47-3.74-8.94s1.25-6.44,3.74-8.94,5.47-3.74,8.94-3.74,6.44,1.25,8.94,3.74c2.49,2.49,3.74,5.47,3.74,8.94Z"/>
    <path class="cls-10" d="M452.11,125.68c-7.1,4.31-15.17,6.47-24.22,6.47-14.96,0-22.44-7.52-22.44-22.57,0-2.7.04-6.25.13-10.65v-30.81h-11.41l-.89-.89.51-6.72,11.79-.89v-16.74c-.09-2.79-.13-4.86-.13-6.21,9.47-2.37,16.53-4.52,21.18-6.47l2.66.76c-.68,8.79-1.01,18.26-1.01,28.4l20.29-.38,1.01.89-.38,8.24h-20.92v37.28c0,10.4,3.93,15.6,11.79,15.6,2.7,0,6.42-.51,11.16-1.52l.89,6.21Z"/>
    <path class="cls-10" d="M533.43,83.45c0,4.14-1.23,6.21-3.68,6.21h-46.41c0,7.44,2.03,13.91,6.09,19.4,4.82,6.43,11.41,9.64,19.78,9.64,6.76,0,12.89-2.75,18.39-8.24l4.44,4.82c-8.2,11.58-18.47,17.37-30.81,17.37s-21.98-3.38-28.91-10.14c-6.93-6.76-10.4-15.76-10.4-27.01s3.87-20.43,11.6-28.34c7.74-7.9,17.18-11.86,28.34-11.86,8.62,0,15.89,2.24,21.81,6.72,6.51,5.07,9.76,11.96,9.76,20.67v.76ZM511.87,78.51c0-9.55-4.18-14.33-12.55-14.33-4.06,0-7.53,1.95-10.4,5.83-2.54,3.3-4.14,7.31-4.82,12.05h23.71c2.7,0,4.06-1.18,4.06-3.55Z"/>
    <path class="cls-10" d="M714.83,81.3c-5.41.59-8.83,2.16-10.27,4.69-1.01,1.78-1.52,5.5-1.52,11.16v13.69c0,6.51.3,11.41.89,14.71-17.42,4.73-32.97,7.1-46.66,7.1-21.22,0-38.38-5.16-51.48-15.47-14.03-11.16-21.05-26.71-21.05-46.66,0-21.89,7.78-38.5,23.33-49.83,13.78-9.89,32.12-14.84,55.03-14.84,12.59,0,25.06,1.65,37.41,4.95-.59,6.34-.89,15.3-.89,26.88v3.68l-7.1.51c-1.27-18.34-12.68-27.52-34.24-27.52-30.43,0-45.65,17.54-45.65,52.62,0,16.4,3.51,29.67,10.52,39.82,8.03,11.58,19.78,17.37,35.25,17.37,3.55,0,7.56-.76,12.05-2.28,5.83-2.03,8.75-4.56,8.75-7.61v-21.68c0-5.16-2.11-8.5-6.34-10.02-1.78-.59-6-1.01-12.68-1.27l.25-5.33c3.21,0,8.03.04,14.46.13,6.42.09,11.24.13,14.46.13,2.37,0,6.55-.04,12.55-.13,6-.08,10.19-.13,12.55-.13l.38,5.33Z"/>
    <path class="cls-10" d="M811.23,93.22c0,11.84-4.18,21.43-12.55,28.78-7.95,7.1-17.96,10.65-30.05,10.65s-22.78-3.3-30.56-9.89c-8.12-6.93-12.17-16.27-12.17-28.02s4.18-21.43,12.55-28.78c7.94-7.1,17.96-10.65,30.05-10.65s22.78,3.3,30.56,9.89c8.12,6.93,12.17,16.27,12.17,28.02ZM786.13,97.28c0-8.28-1.35-15.6-4.06-21.94-3.47-8.28-8.5-12.43-15.09-12.43-10.65,0-15.98,9.26-15.98,27.77,0,8.29,1.31,15.6,3.93,21.94,3.47,8.29,8.5,12.43,15.09,12.43,10.73,0,16.1-9.26,16.1-27.77Z"/>
    <path class="cls-10" d="M870.99,124.79l-.25,5.33c-2.54,0-6.83-.04-12.87-.13-6.04-.08-10.33-.13-12.87-.13-2.2,0-6.07.04-11.6.13-5.54.09-9.41.13-11.6.13l-.38-5.33c6-.51,9.76-1.86,11.29-4.06,1.27-1.69,1.9-5.54,1.9-11.54V25c0-5.07-1.06-8.28-3.17-9.64-1.01-.68-4.36-1.52-10.02-2.54l-.38-5.33c16.06-2.2,27.9-4.48,35.5-6.85l2.66,1.01c-1.19,7.69-1.78,17.8-1.78,30.31v83.05c0,4.56,1.22,7.44,3.68,8.62,1.1.42,4.39.8,9.89,1.14Z"/>
    <path class="cls-10" d="M952.69,11.56c0,6.09-3,10.1-9,12.05-5.33-6.34-10.74-9.51-16.23-9.51-9.38,0-14.07,9.64-14.07,28.91v15.72l20.92-.38,1.01.89-.38,7.99h-21.56v47.8c0,4.74,1.78,7.69,5.33,8.88,1.27.42,5.03.72,11.29.89l-.38,5.33c-2.79,0-7.21-.04-13.25-.13-6.04-.08-10.46-.13-13.25-.13-2.2,0-6.34.04-12.43.13-6.09.09-10.23.13-12.43.13l-.38-5.33c5.66-.51,9.26-1.82,10.78-3.93,1.27-1.78,1.9-5.66,1.9-11.67v-41.97h-12.05l-.89-.89.51-6.34,12.43-1.01v-11.54c0-13.86,3.63-24.81,10.9-32.84,7.94-8.88,19.57-13.31,34.87-13.31,10.9,0,16.36,3.42,16.36,10.27Z"/>
    <path class="cls-10" d="M1041.99,124.79l-.25,5.33c-2.54,0-6.62-.04-12.24-.13-5.62-.08-9.7-.13-12.24-.13-2.03,0-5.54.04-10.52.13-4.99.09-8.5.13-10.52.13l-.25-5.33c3.47-.42,5.2-1.22,5.2-2.41,0-.59-.72-1.94-2.16-4.06l-15.34-22.32c-1.1-1.6-2.07-2.41-2.92-2.41-1.1,0-1.65.34-1.65,1.01v20.41c0,4.4.93,7.23,2.79,8.5.84.59,2.92,1.01,6.21,1.27l-.25,5.33c-1.69,0-4.84-.04-9.45-.13-4.61-.08-8.18-.13-10.71-.13-2.2,0-6.34.04-12.43.13-6.09.09-10.23.13-12.43.13l-.25-5.33c6.17-.51,10.06-1.82,11.67-3.93,1.35-1.69,2.03-5.58,2.03-11.67V25c0-4.99-1.01-8.2-3.04-9.64-1.01-.68-4.27-1.52-9.76-2.54l-.51-5.33c15.81-2.11,27.43-4.39,34.87-6.85l3.04,1.01c-1.19,7.69-1.78,17.8-1.78,30.31v54.27c0,.85.76,1.27,2.28,1.27,3.13,0,6.72-2.2,10.78-6.59l6.72-7.23c3.63-3.89,5.45-6.42,5.45-7.61,0-1.52-2.62-2.54-7.86-3.04l.38-5.33c2.28,0,5.79.04,10.52.13,4.73.09,8.28.13,10.65.13h3.3c2.2,0,5.87-.08,11.03-.25l.38,5.33c-6.26.93-11.41,2.62-15.47,5.07-3.13,1.95-7.23,5.54-12.3,10.78-1.95,2.03-2.92,3.26-2.92,3.68,0,.34.3.93.89,1.78l13.31,18.39c5.41,7.44,8.96,12.09,10.65,13.95,4.9,4.99,9.93,7.69,15.09,8.12Z"/>
    <path class="cls-10" d="M1096.56,124.79l-.25,5.33c-2.54,0-6.83-.04-12.87-.13-6.04-.08-10.33-.13-12.87-.13-2.2,0-6.07.04-11.6.13-5.54.09-9.41.13-11.6.13l-.38-5.33c6-.51,9.76-1.86,11.29-4.06,1.27-1.69,1.9-5.54,1.9-11.54V25c0-5.07-1.06-8.28-3.17-9.64-1.01-.68-4.36-1.52-10.02-2.54l-.38-5.33c16.06-2.2,27.9-4.48,35.5-6.85l2.66,1.01c-1.19,7.69-1.78,17.8-1.78,30.31v83.05c0,4.56,1.22,7.44,3.68,8.62,1.1.42,4.39.8,9.89,1.14Z"/>
    <path class="cls-10" d="M1202.72,127.07c-6,.51-11.96,1.06-17.88,1.65-7.86.85-13.74,1.9-17.63,3.17l-1.27-1.01c.34-3.04.51-6.21.51-9.51-8.29,7.53-17.24,11.29-26.88,11.29-8.2,0-14.67-2.62-19.4-7.86-4.48-4.9-6.72-11.2-6.72-18.89v-28.66c0-4.48-.68-7.44-2.03-8.88-1.1-1.1-3.64-1.99-7.61-2.66l-1.65-.25-.25-5.33c12.59-.76,23.63-2.37,33.1-4.82l2.54,1.01c-.85,7.02-1.27,15.6-1.27,25.74v15.85c0,14.29,4.48,21.43,13.44,21.43,5.75,0,11.33-2.7,16.74-8.12v-33.98c0-4.9-.93-8.03-2.79-9.38-1.1-.76-4.31-1.56-9.64-2.41l-.25-5.33c15.64-1.1,27.05-2.7,34.24-4.82l2.66,1.01c-.93,7.78-1.39,16.36-1.39,25.74v27.9c0,4.99,1.01,8.16,3.04,9.51,1.1.76,4.39,1.52,9.89,2.28l.51,5.33Z"/>
    <path class="cls-10" d="M1300.14,91.19c0,13.61-4.4,24.09-13.19,31.45-8.2,6.68-19.23,10.02-33.1,10.02-14.63,0-25.99-2.07-34.11-6.21.17-6.42.25-11.2.25-14.33V26.27c0-5.16-.89-8.45-2.66-9.89-1.19-1.01-4.44-1.9-9.76-2.66l-.51-5.33c8.71-1.44,20.08-4.01,34.11-7.73l3.3,1.01c-1.1,9.13-1.65,19.19-1.65,30.18v30.94c7.18-4.99,14.16-7.48,20.92-7.48,11.07,0,19.91,3.19,26.5,9.57,6.59,6.38,9.89,15.15,9.89,26.31ZM1275.04,95.37c0-17.84-6.47-26.76-19.4-26.76-3.72,0-7.99,1.39-12.81,4.18v40.7c0,3.55,1.52,6.43,4.56,8.62,2.79,1.95,5.96,2.92,9.51,2.92,12.09,0,18.13-9.89,18.13-29.67Z"/>
    <path class="cls-10" d="M1400.73,91.19c0,13.61-4.4,24.09-13.19,31.45-8.2,6.68-19.23,10.02-33.1,10.02-14.63,0-25.99-2.07-34.11-6.21.17-6.42.25-11.2.25-14.33V26.27c0-5.16-.89-8.45-2.66-9.89-1.19-1.01-4.44-1.9-9.76-2.66l-.51-5.33c8.71-1.44,20.08-4.01,34.11-7.73l3.3,1.01c-1.1,9.13-1.65,19.19-1.65,30.18v30.94c7.18-4.99,14.16-7.48,20.92-7.48,11.07,0,19.91,3.19,26.5,9.57,6.59,6.38,9.89,15.15,9.89,26.31ZM1375.63,95.37c0-17.84-6.47-26.76-19.4-26.76-3.72,0-7.99,1.39-12.81,4.18v40.7c0,3.55,1.52,6.43,4.56,8.62,2.79,1.95,5.96,2.92,9.51,2.92,12.09,0,18.13-9.89,18.13-29.67Z"/>
  </g>
</svg>