<?xml version="1.0" encoding="UTF-8" standalone="no"?>
<!-- Uploaded to: SVG Repo, www.svgrepo.com, Generator: SVG Repo Mixer Tools -->

<svg
   fill="#000000"
   height="800"
   width="800"
   version="1.1"
   id="Layer_1"
   viewBox="-143 145 512 512"
   xml:space="preserve"
   sodipodi:docname="instagram-rounded-svgrepo-com.svg"
   xmlns:inkscape="http://www.inkscape.org/namespaces/inkscape"
   xmlns:sodipodi="http://sodipodi.sourceforge.net/DTD/sodipodi-0.dtd"
   xmlns="http://www.w3.org/2000/svg"
   xmlns:svg="http://www.w3.org/2000/svg"><defs
   id="defs3" /><sodipodi:namedview
   id="namedview3"
   pagecolor="#ffffff"
   bordercolor="#111111"
   borderopacity="1"
   inkscape:showpageshadow="0"
   inkscape:pageopacity="0"
   inkscape:pagecheckerboard="1"
   inkscape:deskcolor="#d1d1d1" />
<g
   id="g3"
   style="fill:#ffffff;fill-opacity:1">
	<path
   d="m 113,446 c 24.8,0 45.1,-20.2 45.1,-45.1 0,-9.8 -3.2,-18.9 -8.5,-26.3 -8.2,-11.3 -21.5,-18.8 -36.5,-18.8 -15,0 -28.3,7.4 -36.5,18.8 -5.3,7.4 -8.5,16.5 -8.5,26.3 C 68,425.8 88.2,446 113,446 Z"
   id="path1"
   style="fill:#ffffff;fill-opacity:1" />
	<polygon
   points="211.4,302.5 205.8,302.5 168,302.6 168.2,346 211.4,345.9 211.4,308.1 "
   id="polygon1"
   style="fill:#ffffff;fill-opacity:1" />
	<path
   d="m 329,145 h -432 c -22.1,0 -40,17.9 -40,40 v 432 c 0,22.1 17.9,40 40,40 h 432 c 22.1,0 40,-17.9 40,-40 V 185 c 0,-22.1 -17.9,-40 -40,-40 z m -88,229.7 v 104.8 c 0,27.3 -22.2,49.5 -49.5,49.5 H 34.5 C 7.2,529 -15,506.8 -15,479.5 V 374.7 322.4 c 0,-27.3 22.2,-49.5 49.5,-49.5 h 157 c 27.3,0 49.5,22.2 49.5,49.5 z"
   id="path2"
   style="fill:#ffffff;fill-opacity:1" />
	<path
   d="m 183,401 c 0,38.6 -31.4,70 -70,70 -38.6,0 -70,-31.4 -70,-70 0,-9.3 1.9,-18.2 5.2,-26.3 H 10 V 479.5 C 10,493 21,504 34.5,504 h 157 C 205,504 216,493 216,479.5 V 374.7 h -38.2 c 3.4,8.1 5.2,17 5.2,26.3 z"
   id="path3"
   style="fill:#ffffff;fill-opacity:1" />
</g>
</svg>
